<svg xmlns="http://www.w3.org/2000/svg" xmlns:xlink="http://www.w3.org/1999/xlink" contentStyleType="text/css" data-diagram-type="ACTIVITY" height="1791px" preserveAspectRatio="none" style="width:1603px;height:1791px;background:#FFFFFF;" version="1.1" viewBox="0 0 1603 1791" width="1603px" zoomAndPan="magnify"><?plantuml 1.2026.5?><defs/><g><g class="title" data-source-line="1"><text fill="#000000" font-family="sans-serif" font-size="14" font-weight="700" lengthAdjust="spacing" textLength="235.7305" x="682.6506" y="34.5332">Activity Diagram - Mark Attendance</text></g><rect fill="none" height="22.6406" style="stroke:none;stroke-width:1;" width="1556.0317" x="20" y="56.0645"/><ellipse cx="189.3984" cy="93.7051" fill="#222222" rx="10" ry="10" style="stroke:#222222;stroke-width:1;"/><rect fill="#F1F1F1" height="35.0938" rx="12.5" ry="12.5" style="stroke:#181818;stroke-width:0.5;" width="326.7969" x="26" y="123.7051"/><text fill="#000000" font-family="sans-serif" font-size="12" lengthAdjust="spacing" textLength="306.7969" x="36" y="146.1621">Teacher or Administrator opens ClassMeetingDetailsView</text><rect fill="#F1F1F1" height="35.0938" rx="12.5" ry="12.5" style="stroke:#181818;stroke-width:0.5;" width="172.0508" x="103.373" y="178.7988"/><text fill="#000000" font-family="sans-serif" font-size="12" lengthAdjust="spacing" textLength="152.0508" x="113.373" y="201.2559">User clicks Mark Attendance</text><rect fill="#F1F1F1" height="35.0938" rx="12.5" ry="12.5" style="stroke:#181818;stroke-width:0.5;" width="184.0859" x="97.3555" y="1090.1621"/><text fill="#000000" font-family="sans-serif" font-size="12" lengthAdjust="spacing" textLength="164.0859" x="107.3555" y="1112.6191">User selects attendance status</text><rect fill="#F1F1F1" height="35.0938" rx="12.5" ry="12.5" style="stroke:#181818;stroke-width:0.5;" width="242.1055" x="68.3457" y="1152.7559"/><text fill="#000000" font-family="sans-serif" font-size="12" lengthAdjust="spacing" textLength="222.1055" x="78.3457" y="1175.2129">User optionally enters individual comment</text><polygon fill="#F1F1F1" points="189.3984,1046.1621,201.3984,1058.1621,189.3984,1070.1621,177.3984,1058.1621,189.3984,1046.1621" style="stroke:#181818;stroke-width:0.5;stroke-linejoin:miter;stroke-miterlimit:10;"/><polygon fill="#F1F1F1" points="141.0989,1207.8496,237.698,1207.8496,249.698,1219.8496,237.698,1231.8496,141.0989,1231.8496,129.0989,1219.8496,141.0989,1207.8496" style="stroke:#181818;stroke-width:0.5;stroke-linejoin:miter;stroke-miterlimit:10;"/><text fill="#000000" font-family="sans-serif" font-size="11" lengthAdjust="spacing" textLength="96.5991" x="141.0989" y="1224.3506">More student rows?</text><text fill="#000000" font-family="sans-serif" font-size="11" lengthAdjust="spacing" textLength="17.1177" x="249.698" y="1217.4326">yes</text><line style="stroke:#000000;stroke-width:1.5;" x1="20" x2="20" y1="56.0645" y2="1770.877"/><rect fill="#F1F1F1" height="35.0938" rx="12.5" ry="12.5" style="stroke:#181818;stroke-width:0.5;" width="354.6992" x="593.8682" y="282.8105"/><text fill="#000000" font-family="sans-serif" font-size="12" lengthAdjust="spacing" textLength="334.6992" x="603.8682" y="305.2676">Show "Cannot mark attendance for a cancelled class meeting."</text><ellipse cx="771.2178" cy="356.8574" fill="none" rx="11" ry="11" style="stroke:#222222;stroke-width:1;"/><ellipse cx="771.2178" cy="356.8574" fill="#222222" rx="6" ry="6" style="stroke:#222222;stroke-width:1;"/><polygon fill="#F1F1F1" points="692.3513,233.8926,850.0842,233.8926,862.0842,245.8926,850.0842,257.8926,692.3513,257.8926,680.3513,245.8926,692.3513,233.8926" style="stroke:#181818;stroke-width:0.5;stroke-linejoin:miter;stroke-miterlimit:10;"/><text fill="#000000" font-family="sans-serif" font-size="11" lengthAdjust="spacing" textLength="17.1177" x="775.2178" y="269.3115">yes</text><text fill="#000000" font-family="sans-serif" font-size="11" lengthAdjust="spacing" textLength="157.7329" x="692.3513" y="250.3936">Meeting status is CANCELLED?</text><polygon fill="#F1F1F1" points="729.342,409.8574,813.0935,409.8574,825.0935,421.8574,813.0935,433.8574,729.342,433.8574,717.342,421.8574,729.342,409.8574" style="stroke:#181818;stroke-width:0.5;stroke-linejoin:miter;stroke-miterlimit:10;"/><text fill="#000000" font-family="sans-serif" font-size="11" lengthAdjust="spacing" textLength="83.7515" x="729.342" y="426.3584">User is Teacher?</text><text fill="#000000" font-family="sans-serif" font-size="11" lengthAdjust="spacing" textLength="17.1177" x="700.2244" y="419.4404">yes</text><text fill="#000000" font-family="sans-serif" font-size="11" lengthAdjust="spacing" textLength="64.7969" x="825.0935" y="419.4404">Administrator</text><rect fill="#F1F1F1" height="35.0938" rx="12.5" ry="12.5" style="stroke:#181818;stroke-width:0.5;" width="290.668" x="413.4922" y="492.7754"/><text fill="#000000" font-family="sans-serif" font-size="12" lengthAdjust="spacing" textLength="270.668" x="423.4922" y="515.2324">Show "You are not assigned to this class meeting."</text><ellipse cx="558.8262" cy="566.8223" fill="none" rx="11" ry="11" style="stroke:#222222;stroke-width:1;"/><ellipse cx="558.8262" cy="566.8223" fill="#222222" rx="6" ry="6" style="stroke:#222222;stroke-width:1;"/><polygon fill="#F1F1F1" points="479.3367,443.8574,638.3157,443.8574,650.3157,455.8574,638.3157,467.8574,479.3367,467.8574,467.3367,455.8574,479.3367,443.8574" style="stroke:#181818;stroke-width:0.5;stroke-linejoin:miter;stroke-miterlimit:10;"/><text fill="#000000" font-family="sans-serif" font-size="11" lengthAdjust="spacing" textLength="12.2354" x="562.8262" y="479.2764">no</text><text fill="#000000" font-family="sans-serif" font-size="11" lengthAdjust="spacing" textLength="158.979" x="479.3367" y="460.3584">Teacher is assigned to meeting?</text><text fill="#000000" font-family="sans-serif" font-size="11" lengthAdjust="spacing" textLength="17.1177" x="650.3157" y="453.4404">yes</text><rect fill="#F1F1F1" height="35.0938" rx="12.5" ry="12.5" style="stroke:#181818;stroke-width:0.5;" width="392.0586" x="362.7969" y="668.7402"/><text fill="#000000" font-family="sans-serif" font-size="12" lengthAdjust="spacing" textLength="372.0586" x="372.7969" y="691.1973">Show "Attendance cannot be marked before the class meeting starts."</text><ellipse cx="558.8262" cy="742.7871" fill="none" rx="11" ry="11" style="stroke:#222222;stroke-width:1;"/><ellipse cx="558.8262" cy="742.7871" fill="#222222" rx="6" ry="6" style="stroke:#222222;stroke-width:1;"/><polygon fill="#F1F1F1" points="482.3982,619.8223,635.2542,619.8223,647.2542,631.8223,635.2542,643.8223,482.3982,643.8223,470.3982,631.8223,482.3982,619.8223" style="stroke:#181818;stroke-width:0.5;stroke-linejoin:miter;stroke-miterlimit:10;"/><text fill="#000000" font-family="sans-serif" font-size="11" lengthAdjust="spacing" textLength="12.2354" x="562.8262" y="655.2412">no</text><text fill="#000000" font-family="sans-serif" font-size="11" lengthAdjust="spacing" textLength="152.856" x="482.3982" y="636.3232">Meeting start time has passed?</text><text fill="#000000" font-family="sans-serif" font-size="11" lengthAdjust="spacing" textLength="17.1177" x="647.2542" y="629.4053">yes</text><rect fill="#F1F1F1" height="35.0938" rx="12.5" ry="12.5" style="stroke:#181818;stroke-width:0.5;" width="373.5078" x="796.8555" y="443.8574"/><text fill="#000000" font-family="sans-serif" font-size="12" lengthAdjust="spacing" textLength="353.5078" x="806.8555" y="466.3145">Administrator may mark attendance for any non-cancelled meeting</text><polygon fill="#F1F1F1" points="771.2178,781.7871,783.2178,793.7871,771.2178,805.7871,759.2178,793.7871,771.2178,781.7871" style="stroke:#181818;stroke-width:0.5;stroke-linejoin:miter;stroke-miterlimit:10;"/><rect fill="#F1F1F1" height="35.0938" rx="12.5" ry="12.5" style="stroke:#181818;stroke-width:0.5;" width="274.8008" x="633.8174" y="880.8809"/><text fill="#000000" font-family="sans-serif" font-size="12" lengthAdjust="spacing" textLength="254.8008" x="643.8174" y="903.3379">Use ClassMeeting -&gt; StudentGroup -&gt; Students</text><rect fill="#F1F1F1" height="35.0938" rx="12.5" ry="12.5" style="stroke:#181818;stroke-width:0.5;" width="244.8184" x="648.8086" y="935.9746"/><text fill="#000000" font-family="sans-serif" font-size="12" lengthAdjust="spacing" textLength="224.8184" x="658.8086" y="958.4316">Build one attendance row for each student</text><rect fill="#F1F1F1" height="35.0938" rx="12.5" ry="12.5" style="stroke:#181818;stroke-width:0.5;" width="151.4199" x="695.5078" y="991.0684"/><text fill="#000000" font-family="sans-serif" font-size="12" lengthAdjust="spacing" textLength="131.4199" x="705.5078" y="1013.5254">Display attendance table</text><rect fill="#F1F1F1" height="35.0938" rx="12.5" ry="12.5" style="stroke:#181818;stroke-width:0.5;" width="220.6309" x="660.9023" y="1300.7676"/><text fill="#000000" font-family="sans-serif" font-size="12" lengthAdjust="spacing" textLength="200.6309" x="670.9023" y="1323.2246">Show "Attendance status is required."</text><ellipse cx="771.2178" cy="1376.4082" fill="none" rx="11" ry="11" style="stroke:#222222;stroke-width:1;"/><ellipse cx="771.2178" cy="1376.4082" fill="#222222" rx="6" ry="6" style="stroke:#222222;stroke-width:1;"/><polygon fill="#F1F1F1" points="722.3086,1251.8496,820.127,1251.8496,832.127,1263.8496,820.127,1275.8496,722.3086,1275.8496,710.3086,1263.8496,722.3086,1251.8496" style="stroke:#181818;stroke-width:0.5;stroke-linejoin:miter;stroke-miterlimit:10;"/><text fill="#000000" font-family="sans-serif" font-size="11" lengthAdjust="spacing" textLength="17.1177" x="775.2178" y="1287.2686">yes</text><text fill="#000000" font-family="sans-serif" font-size="11" lengthAdjust="spacing" textLength="97.8184" x="722.3086" y="1268.3506">Any status missing?</text><polygon fill="#F1F1F1" points="700.8967,1484.502,841.5388,1484.502,853.5388,1496.502,841.5388,1508.502,700.8967,1508.502,688.8967,1496.502,700.8967,1484.502" style="stroke:#181818;stroke-width:0.5;stroke-linejoin:miter;stroke-miterlimit:10;"/><text fill="#000000" font-family="sans-serif" font-size="11" lengthAdjust="spacing" textLength="140.6421" x="700.8967" y="1501.0029">Duplicate attendance exists?</text><text fill="#000000" font-family="sans-serif" font-size="11" lengthAdjust="spacing" textLength="17.1177" x="671.7791" y="1494.085">yes</text><text fill="#000000" font-family="sans-serif" font-size="11" lengthAdjust="spacing" textLength="12.2354" x="853.5388" y="1494.085">no</text><rect fill="#F1F1F1" height="35.0938" rx="12.5" ry="12.5" style="stroke:#181818;stroke-width:0.5;" width="429.4414" x="398.1191" y="1528.502"/><text fill="#000000" font-family="sans-serif" font-size="12" lengthAdjust="spacing" textLength="409.4414" x="408.1191" y="1550.959">Show "Attendance has already been registered for this student and meeting."</text><ellipse cx="612.8398" cy="1594.5957" fill="none" rx="11" ry="11" style="stroke:#222222;stroke-width:1;"/><ellipse cx="612.8398" cy="1594.5957" fill="#222222" rx="6" ry="6" style="stroke:#222222;stroke-width:1;"/><rect fill="#F1F1F1" height="35.0938" rx="12.5" ry="12.5" style="stroke:#181818;stroke-width:0.5;" width="148.7246" x="855.2334" y="1693.7832"/><text fill="#000000" font-family="sans-serif" font-size="12" lengthAdjust="spacing" textLength="128.7246" x="865.2334" y="1716.2402">Show success message</text><ellipse cx="771.2178" cy="1759.877" fill="none" rx="11" ry="11" style="stroke:#222222;stroke-width:1;"/><ellipse cx="771.2178" cy="1759.877" fill="#222222" rx="6" ry="6" style="stroke:#222222;stroke-width:1;"/><line style="stroke:#000000;stroke-width:1.5;" x1="356.7969" x2="356.7969" y1="56.0645" y2="1770.877"/><rect fill="#F1F1F1" height="35.0938" rx="12.5" ry="12.5" style="stroke:#181818;stroke-width:0.5;" width="299.5098" x="1180.3633" y="825.7871"/><text fill="#000000" font-family="sans-serif" font-size="12" lengthAdjust="spacing" textLength="279.5098" x="1190.3633" y="848.2441">Load ClassMeeting with StudentGroup and Students</text><rect fill="#F1F1F1" height="35.0938" rx="12.5" ry="12.5" style="stroke:#181818;stroke-width:0.5;" width="205.4316" x="1227.4023" y="1429.4082"/><text fill="#000000" font-family="sans-serif" font-size="12" lengthAdjust="spacing" textLength="185.4316" x="1237.4023" y="1451.8652">Check existing Attendance records</text><rect fill="#F1F1F1" height="35.0938" rx="12.5" ry="12.5" style="stroke:#181818;stroke-width:0.5;" width="112.7246" x="1432.1338" y="1528.502"/><text fill="#000000" font-family="sans-serif" font-size="12" lengthAdjust="spacing" textLength="92.7246" x="1442.1338" y="1550.959">Begin transaction</text><rect fill="#F1F1F1" height="35.0938" rx="12.5" ry="12.5" style="stroke:#181818;stroke-width:0.5;" width="164.0703" x="1406.4609" y="1583.5957"/><text fill="#000000" font-family="sans-serif" font-size="12" lengthAdjust="spacing" textLength="144.0703" x="1416.4609" y="1606.0527">Persist Attendance records</text><rect fill="#F1F1F1" height="35.0938" rx="12.5" ry="12.5" style="stroke:#181818;stroke-width:0.5;" width="123.3652" x="1426.8135" y="1638.6895"/><text fill="#000000" font-family="sans-serif" font-size="12" lengthAdjust="spacing" textLength="103.3652" x="1436.8135" y="1661.1465">Commit transaction</text><line style="stroke:#000000;stroke-width:1.5;" x1="1174.3633" x2="1174.3633" y1="56.0645" y2="1770.877"/><line style="stroke:#000000;stroke-width:1.5;" x1="1574.5313" x2="1574.5313" y1="56.0645" y2="1770.877"/><line style="stroke:#181818;stroke-width:1;" x1="189.3984" x2="189.3984" y1="103.7051" y2="123.7051"/><polygon fill="#181818" points="185.3984,113.7051,189.3984,123.7051,193.3984,113.7051,189.3984,117.7051" style="stroke:#181818;stroke-width:1;stroke-linejoin:miter;stroke-miterlimit:10;"/><line style="stroke:#181818;stroke-width:1;" x1="189.3984" x2="189.3984" y1="158.7988" y2="178.7988"/><polygon fill="#181818" points="185.3984,168.7988,189.3984,178.7988,193.3984,168.7988,189.3984,172.7988" style="stroke:#181818;stroke-width:1;stroke-linejoin:miter;stroke-miterlimit:10;"/><line style="stroke:#181818;stroke-width:1;" x1="189.3984" x2="189.3984" y1="1125.2559" y2="1152.7559"/><polygon fill="#181818" points="185.3984,1142.7559,189.3984,1152.7559,193.3984,1142.7559,189.3984,1146.7559" style="stroke:#181818;stroke-width:1;stroke-linejoin:miter;stroke-miterlimit:10;"/><line style="stroke:#181818;stroke-width:1;" x1="189.3984" x2="189.3984" y1="1070.1621" y2="1090.1621"/><polygon fill="#181818" points="185.3984,1080.1621,189.3984,1090.1621,193.3984,1080.1621,189.3984,1084.1621" style="stroke:#181818;stroke-width:1;stroke-linejoin:miter;stroke-miterlimit:10;"/><line style="stroke:#181818;stroke-width:1;" x1="249.698" x2="322.4512" y1="1219.8496" y2="1219.8496"/><polygon fill="#181818" points="318.4512,1145.2559,322.4512,1135.2559,326.4512,1145.2559,322.4512,1141.2559" style="stroke:#181818;stroke-width:1;stroke-linejoin:miter;stroke-miterlimit:10;"/><line style="stroke:#181818;stroke-width:1;" x1="322.4512" x2="322.4512" y1="1058.1621" y2="1219.8496"/><line style="stroke:#181818;stroke-width:1;" x1="322.4512" x2="201.3984" y1="1058.1621" y2="1058.1621"/><polygon fill="#181818" points="211.3984,1054.1621,201.3984,1058.1621,211.3984,1062.1621,207.3984,1058.1621" style="stroke:#181818;stroke-width:1;stroke-linejoin:miter;stroke-miterlimit:10;"/><line style="stroke:#181818;stroke-width:1;" x1="189.3984" x2="189.3984" y1="1187.8496" y2="1207.8496"/><polygon fill="#181818" points="185.3984,1197.8496,189.3984,1207.8496,193.3984,1197.8496,189.3984,1201.8496" style="stroke:#181818;stroke-width:1;stroke-linejoin:miter;stroke-miterlimit:10;"/><line style="stroke:#181818;stroke-width:1;" x1="771.2178" x2="771.2178" y1="317.9043" y2="345.8574"/><polygon fill="#181818" points="767.2178,335.8574,771.2178,345.8574,775.2178,335.8574,771.2178,339.8574" style="stroke:#181818;stroke-width:1;stroke-linejoin:miter;stroke-miterlimit:10;"/><line style="stroke:#181818;stroke-width:1;" x1="771.2178" x2="771.2178" y1="257.8926" y2="282.8105"/><polygon fill="#181818" points="767.2178,272.8105,771.2178,282.8105,775.2178,272.8105,771.2178,276.8105" style="stroke:#181818;stroke-width:1;stroke-linejoin:miter;stroke-miterlimit:10;"/><line style="stroke:#181818;stroke-width:1;" x1="862.0842" x2="958.5674" y1="245.8926" y2="245.8926"/><polygon fill="#181818" points="954.5674,315.8574,958.5674,325.8574,962.5674,315.8574,958.5674,319.8574" style="stroke:#181818;stroke-width:1;stroke-linejoin:miter;stroke-miterlimit:10;"/><line style="stroke:#181818;stroke-width:1;" x1="958.5674" x2="958.5674" y1="245.8926" y2="389.8574"/><line style="stroke:#181818;stroke-width:1;" x1="958.5674" x2="771.2178" y1="389.8574" y2="389.8574"/><line style="stroke:#181818;stroke-width:1;" x1="771.2178" x2="771.2178" y1="389.8574" y2="409.8574"/><polygon fill="#181818" points="767.2178,399.8574,771.2178,409.8574,775.2178,399.8574,771.2178,403.8574" style="stroke:#181818;stroke-width:1;stroke-linejoin:miter;stroke-miterlimit:10;"/><line style="stroke:#181818;stroke-width:1;" x1="558.8262" x2="558.8262" y1="527.8691" y2="555.8223"/><polygon fill="#181818" points="554.8262,545.8223,558.8262,555.8223,562.8262,545.8223,558.8262,549.8223" style="stroke:#181818;stroke-width:1;stroke-linejoin:miter;stroke-miterlimit:10;"/><line style="stroke:#181818;stroke-width:1;" x1="558.8262" x2="558.8262" y1="467.8574" y2="492.7754"/><polygon fill="#181818" points="554.8262,482.7754,558.8262,492.7754,562.8262,482.7754,558.8262,486.7754" style="stroke:#181818;stroke-width:1;stroke-linejoin:miter;stroke-miterlimit:10;"/><line style="stroke:#181818;stroke-width:1;" x1="650.3157" x2="714.1602" y1="455.8574" y2="455.8574"/><polygon fill="#181818" points="710.1602,525.8223,714.1602,535.8223,718.1602,525.8223,714.1602,529.8223" style="stroke:#181818;stroke-width:1;stroke-linejoin:miter;stroke-miterlimit:10;"/><line style="stroke:#181818;stroke-width:1;" x1="714.1602" x2="714.1602" y1="455.8574" y2="599.8223"/><line style="stroke:#181818;stroke-width:1;" x1="714.1602" x2="558.8262" y1="599.8223" y2="599.8223"/><line style="stroke:#181818;stroke-width:1;" x1="558.8262" x2="558.8262" y1="599.8223" y2="619.8223"/><polygon fill="#181818" points="554.8262,609.8223,558.8262,619.8223,562.8262,609.8223,558.8262,613.8223" style="stroke:#181818;stroke-width:1;stroke-linejoin:miter;stroke-miterlimit:10;"/><line style="stroke:#181818;stroke-width:1;" x1="558.8262" x2="558.8262" y1="703.834" y2="731.7871"/><polygon fill="#181818" points="554.8262,721.7871,558.8262,731.7871,562.8262,721.7871,558.8262,725.7871" style="stroke:#181818;stroke-width:1;stroke-linejoin:miter;stroke-miterlimit:10;"/><line style="stroke:#181818;stroke-width:1;" x1="558.8262" x2="558.8262" y1="643.8223" y2="668.7402"/><polygon fill="#181818" points="554.8262,658.7402,558.8262,668.7402,562.8262,658.7402,558.8262,662.7402" style="stroke:#181818;stroke-width:1;stroke-linejoin:miter;stroke-miterlimit:10;"/><line style="stroke:#181818;stroke-width:1;" x1="647.2542" x2="764.8555" y1="631.8223" y2="631.8223"/><polygon fill="#181818" points="760.8555,701.7871,764.8555,711.7871,768.8555,701.7871,764.8555,705.7871" style="stroke:#181818;stroke-width:1;stroke-linejoin:miter;stroke-miterlimit:10;"/><line style="stroke:#181818;stroke-width:1;" x1="764.8555" x2="764.8555" y1="631.8223" y2="775.7871"/><line style="stroke:#181818;stroke-width:1;" x1="764.8555" x2="558.8262" y1="775.7871" y2="775.7871"/><line style="stroke:#181818;stroke-width:1;" x1="558.8262" x2="558.8262" y1="775.7871" y2="793.7871"/><line style="stroke:#181818;stroke-width:1;" x1="558.8262" x2="759.2178" y1="793.7871" y2="793.7871"/><polygon fill="#181818" points="749.2178,789.7871,759.2178,793.7871,749.2178,797.7871,753.2178,793.7871" style="stroke:#181818;stroke-width:1;stroke-linejoin:miter;stroke-miterlimit:10;"/><line style="stroke:#181818;stroke-width:1;" x1="717.342" x2="558.8262" y1="421.8574" y2="421.8574"/><line style="stroke:#181818;stroke-width:1;" x1="558.8262" x2="558.8262" y1="421.8574" y2="443.8574"/><polygon fill="#181818" points="554.8262,433.8574,558.8262,443.8574,562.8262,433.8574,558.8262,437.8574" style="stroke:#181818;stroke-width:1;stroke-linejoin:miter;stroke-miterlimit:10;"/><line style="stroke:#181818;stroke-width:1;" x1="825.0935" x2="983.6094" y1="421.8574" y2="421.8574"/><line style="stroke:#181818;stroke-width:1;" x1="983.6094" x2="983.6094" y1="421.8574" y2="443.8574"/><polygon fill="#181818" points="979.6094,433.8574,983.6094,443.8574,987.6094,433.8574,983.6094,437.8574" style="stroke:#181818;stroke-width:1;stroke-linejoin:miter;stroke-miterlimit:10;"/><line style="stroke:#181818;stroke-width:1;" x1="983.6094" x2="983.6094" y1="478.9512" y2="793.7871"/><line style="stroke:#181818;stroke-width:1;" x1="983.6094" x2="783.2178" y1="793.7871" y2="793.7871"/><polygon fill="#181818" points="793.2178,789.7871,783.2178,793.7871,793.2178,797.7871,789.2178,793.7871" style="stroke:#181818;stroke-width:1;stroke-linejoin:miter;stroke-miterlimit:10;"/><line style="stroke:#181818;stroke-width:1;" x1="771.2178" x2="771.2178" y1="915.9746" y2="935.9746"/><polygon fill="#181818" points="767.2178,925.9746,771.2178,935.9746,775.2178,925.9746,771.2178,929.9746" style="stroke:#181818;stroke-width:1;stroke-linejoin:miter;stroke-miterlimit:10;"/><line style="stroke:#181818;stroke-width:1;" x1="771.2178" x2="771.2178" y1="971.0684" y2="991.0684"/><polygon fill="#181818" points="767.2178,981.0684,771.2178,991.0684,775.2178,981.0684,771.2178,985.0684" style="stroke:#181818;stroke-width:1;stroke-linejoin:miter;stroke-miterlimit:10;"/><line style="stroke:#181818;stroke-width:1;" x1="771.2178" x2="771.2178" y1="1335.8613" y2="1365.4082"/><polygon fill="#181818" points="767.2178,1355.4082,771.2178,1365.4082,775.2178,1355.4082,771.2178,1359.4082" style="stroke:#181818;stroke-width:1;stroke-linejoin:miter;stroke-miterlimit:10;"/><line style="stroke:#181818;stroke-width:1;" x1="771.2178" x2="771.2178" y1="1275.8496" y2="1300.7676"/><polygon fill="#181818" points="767.2178,1290.7676,771.2178,1300.7676,775.2178,1290.7676,771.2178,1294.7676" style="stroke:#181818;stroke-width:1;stroke-linejoin:miter;stroke-miterlimit:10;"/><line style="stroke:#181818;stroke-width:1;" x1="832.127" x2="1330.1182" y1="1263.8496" y2="1263.8496"/><polygon fill="#181818" points="1326.1182,1345.8613,1330.1182,1355.8613,1334.1182,1345.8613,1330.1182,1349.8613" style="stroke:#181818;stroke-width:1;stroke-linejoin:miter;stroke-miterlimit:10;"/><line style="stroke:#181818;stroke-width:1;" x1="1330.1182" x2="1330.1182" y1="1263.8496" y2="1429.4082"/><polygon fill="#181818" points="1326.1182,1419.4082,1330.1182,1429.4082,1334.1182,1419.4082,1330.1182,1423.4082" style="stroke:#181818;stroke-width:1;stroke-linejoin:miter;stroke-miterlimit:10;"/><line style="stroke:#181818;stroke-width:1;" x1="612.8398" x2="612.8398" y1="1563.5957" y2="1583.5957"/><polygon fill="#181818" points="608.8398,1573.5957,612.8398,1583.5957,616.8398,1573.5957,612.8398,1577.5957" style="stroke:#181818;stroke-width:1;stroke-linejoin:miter;stroke-miterlimit:10;"/><line style="stroke:#181818;stroke-width:1;" x1="688.8967" x2="612.8398" y1="1496.502" y2="1496.502"/><line style="stroke:#181818;stroke-width:1;" x1="612.8398" x2="612.8398" y1="1496.502" y2="1528.502"/><polygon fill="#181818" points="608.8398,1518.502,612.8398,1528.502,616.8398,1518.502,612.8398,1522.502" style="stroke:#181818;stroke-width:1;stroke-linejoin:miter;stroke-miterlimit:10;"/><line style="stroke:#181818;stroke-width:1;" x1="929.5957" x2="929.5957" y1="1728.877" y2="1733.877"/><line style="stroke:#181818;stroke-width:1;" x1="929.5957" x2="771.2178" y1="1733.877" y2="1733.877"/><line style="stroke:#181818;stroke-width:1;" x1="771.2178" x2="771.2178" y1="1733.877" y2="1748.877"/><polygon fill="#181818" points="767.2178,1738.877,771.2178,1748.877,775.2178,1738.877,771.2178,1742.877" style="stroke:#181818;stroke-width:1;stroke-linejoin:miter;stroke-miterlimit:10;"/><line style="stroke:#181818;stroke-width:1;" x1="1488.4961" x2="1488.4961" y1="1563.5957" y2="1583.5957"/><polygon fill="#181818" points="1484.4961,1573.5957,1488.4961,1583.5957,1492.4961,1573.5957,1488.4961,1577.5957" style="stroke:#181818;stroke-width:1;stroke-linejoin:miter;stroke-miterlimit:10;"/><line style="stroke:#181818;stroke-width:1;" x1="1488.4961" x2="1488.4961" y1="1618.6895" y2="1638.6895"/><polygon fill="#181818" points="1484.4961,1628.6895,1488.4961,1638.6895,1492.4961,1628.6895,1488.4961,1632.6895" style="stroke:#181818;stroke-width:1;stroke-linejoin:miter;stroke-miterlimit:10;"/><line style="stroke:#181818;stroke-width:1;" x1="189.3984" x2="189.3984" y1="213.8926" y2="218.8926"/><line style="stroke:#181818;stroke-width:1;" x1="189.3984" x2="771.2178" y1="218.8926" y2="218.8926"/><line style="stroke:#181818;stroke-width:1;" x1="771.2178" x2="771.2178" y1="218.8926" y2="233.8926"/><polygon fill="#181818" points="767.2178,223.8926,771.2178,233.8926,775.2178,223.8926,771.2178,227.8926" style="stroke:#181818;stroke-width:1;stroke-linejoin:miter;stroke-miterlimit:10;"/><line style="stroke:#181818;stroke-width:1;" x1="771.2178" x2="771.2178" y1="805.7871" y2="810.7871"/><line style="stroke:#181818;stroke-width:1;" x1="771.2178" x2="1330.1182" y1="810.7871" y2="810.7871"/><line style="stroke:#181818;stroke-width:1;" x1="1330.1182" x2="1330.1182" y1="810.7871" y2="825.7871"/><polygon fill="#181818" points="1326.1182,815.7871,1330.1182,825.7871,1334.1182,815.7871,1330.1182,819.7871" style="stroke:#181818;stroke-width:1;stroke-linejoin:miter;stroke-miterlimit:10;"/><line style="stroke:#181818;stroke-width:1;" x1="1330.1182" x2="1330.1182" y1="860.8809" y2="865.8809"/><line style="stroke:#181818;stroke-width:1;" x1="1330.1182" x2="771.2178" y1="865.8809" y2="865.8809"/><line style="stroke:#181818;stroke-width:1;" x1="771.2178" x2="771.2178" y1="865.8809" y2="880.8809"/><polygon fill="#181818" points="767.2178,870.8809,771.2178,880.8809,775.2178,870.8809,771.2178,874.8809" style="stroke:#181818;stroke-width:1;stroke-linejoin:miter;stroke-miterlimit:10;"/><line style="stroke:#181818;stroke-width:1;" x1="771.2178" x2="771.2178" y1="1026.1621" y2="1031.1621"/><line style="stroke:#181818;stroke-width:1;" x1="771.2178" x2="189.3984" y1="1031.1621" y2="1031.1621"/><line style="stroke:#181818;stroke-width:1;" x1="189.3984" x2="189.3984" y1="1031.1621" y2="1046.1621"/><polygon fill="#181818" points="185.3984,1036.1621,189.3984,1046.1621,193.3984,1036.1621,189.3984,1040.1621" style="stroke:#181818;stroke-width:1;stroke-linejoin:miter;stroke-miterlimit:10;"/><line style="stroke:#181818;stroke-width:1;" x1="189.3984" x2="189.3984" y1="1231.8496" y2="1236.8496"/><line style="stroke:#181818;stroke-width:1;" x1="189.3984" x2="771.2178" y1="1236.8496" y2="1236.8496"/><line style="stroke:#181818;stroke-width:1;" x1="771.2178" x2="771.2178" y1="1236.8496" y2="1251.8496"/><polygon fill="#181818" points="767.2178,1241.8496,771.2178,1251.8496,775.2178,1241.8496,771.2178,1245.8496" style="stroke:#181818;stroke-width:1;stroke-linejoin:miter;stroke-miterlimit:10;"/><line style="stroke:#181818;stroke-width:1;" x1="1488.4961" x2="1488.4961" y1="1673.7832" y2="1678.7832"/><line style="stroke:#181818;stroke-width:1;" x1="1488.4961" x2="929.5957" y1="1678.7832" y2="1678.7832"/><line style="stroke:#181818;stroke-width:1;" x1="929.5957" x2="929.5957" y1="1678.7832" y2="1693.7832"/><polygon fill="#181818" points="925.5957,1683.7832,929.5957,1693.7832,933.5957,1683.7832,929.5957,1687.7832" style="stroke:#181818;stroke-width:1;stroke-linejoin:miter;stroke-miterlimit:10;"/><line style="stroke:#181818;stroke-width:1;" x1="853.5388" x2="1488.4961" y1="1496.502" y2="1496.502"/><line style="stroke:#181818;stroke-width:1;" x1="1488.4961" x2="1488.4961" y1="1496.502" y2="1528.502"/><polygon fill="#181818" points="1484.4961,1518.502,1488.4961,1528.502,1492.4961,1518.502,1488.4961,1522.502" style="stroke:#181818;stroke-width:1;stroke-linejoin:miter;stroke-miterlimit:10;"/><line style="stroke:#181818;stroke-width:1;" x1="1330.1182" x2="1330.1182" y1="1464.502" y2="1469.502"/><line style="stroke:#181818;stroke-width:1;" x1="1330.1182" x2="771.2178" y1="1469.502" y2="1469.502"/><line style="stroke:#181818;stroke-width:1;" x1="771.2178" x2="771.2178" y1="1469.502" y2="1484.502"/><polygon fill="#181818" points="767.2178,1474.502,771.2178,1484.502,775.2178,1474.502,771.2178,1478.502" style="stroke:#181818;stroke-width:1;stroke-linejoin:miter;stroke-miterlimit:10;"/><text fill="#000000" font-family="sans-serif" font-size="18" lengthAdjust="spacing" textLength="187.0664" x="94.8652" y="74.75">Teacher / Administrator</text><text fill="#000000" font-family="sans-serif" font-size="18" lengthAdjust="spacing" textLength="60.0117" x="735.5742" y="74.75">System</text><text fill="#000000" font-family="sans-serif" font-size="18" lengthAdjust="spacing" textLength="192.1025" x="1278.396" y="74.75">Database / Repositories</text><?plantuml-src ZLJBRjj03BphAuYSd4EQkmsqSEoWbwGechP0Zup4M8HNk-gIYYl07r-kPDcIupvkiaNE33b3AQiZMERAhwmjh1at4IkuWKUCMrYgaY_GvvHbicLVOthfs9EsDK68MeOistybp4kAS0lBecBFeX4rn7qcYb6pR3uKX3YjW52J5rWv57aaKlQRDIcoa-zCkqKs_oRMbJlEjtAkQ674JwqeLVkCNs1sw0VZr4Q03NRvQNN_y72__d0DMfA7MKjodG7CdygmWwiLUXyKgeIBHrnuCLq8UNfsZWgZDtLGzV3lhXO681hgpEhv9UkuEvd6U9Zpd2-L32kmAeFZZJTa3GFiUGSv8PZva9wFUd-41Z0I9D5Z32qDz8BAWqv3wvNsGaPxYWhA5K690hMrK_5VEauUf2qbDS_KRT7aF9EjZnB8L55F9nU5zIIJO7GkJQDIONlPAj_QHlpDoR03vM9mQBz6nMSqabluGdKGDZmcsMVpXu3597wmOotXIPk2l7wCeQcDe1Z-a77eKZYdlJVlfvsdtzOulslO5H0yZIU8jj0qHKg7RQKhjjerI-riu56bZU2wqF_nsYBLX9esr-LHo56kCiReRsDnB0crSl3eN6jMA4Kx6rlPAnSDEiX3LNLgUbpObMoVYjbZylUWDCaNoupbhq_Cz2INPitX72ksmBxD-Tj4dSutqi-68nLlJ-ulXgvAohT0lsmhoP4HSAGyn4BEFnlhfhRF2-h4bQvV_Yqs7GwwI5YqbdmhZRInJZBLdQlTPGwxIZcwy1KPNTYVvpBoEuFsO5vxmJpPrjdusKmpnek3skkLUSXwtdLSm32JD7bEtR6Au8QEbvCK_WO0?></g></svg>