<svg xmlns="http://www.w3.org/2000/svg" xmlns:xlink="http://www.w3.org/1999/xlink" contentStyleType="text/css" data-diagram-type="ACTIVITY" height="1578px" preserveAspectRatio="none" style="width:2454px;height:1578px;background:#FFFFFF;" version="1.1" viewBox="0 0 2454 1578" width="2454px" zoomAndPan="magnify"><?plantuml 1.2026.5?><defs/><g><g class="title" data-source-line="1"><text fill="#000000" font-family="sans-serif" font-size="14" font-weight="700" lengthAdjust="spacing" textLength="392.0752" x="1030.25" y="34.5332">Activity Diagram - Generate And Export Attendance Report</text></g><rect fill="none" height="22.6406" style="stroke:none;stroke-width:1;" width="2407.5752" x="20" y="56.0645"/><ellipse cx="386.8037" cy="93.7051" fill="#222222" rx="10" ry="10" style="stroke:#222222;stroke-width:1;"/><rect fill="#F1F1F1" height="35.0938" rx="12.5" ry="12.5" style="stroke:#181818;stroke-width:0.5;" width="264.7871" x="254.4102" y="123.7051"/><text fill="#000000" font-family="sans-serif" font-size="12" lengthAdjust="spacing" textLength="244.7871" x="264.4102" y="146.1621">Administrator opens Generate Reports screen</text><path d="M488.4902,223.8926 L488.4902,257.5957 L468.4902,261.5957 L488.4902,265.5957 L488.4902,299.2988 A0,0 0 0 0 488.4902,299.2988 L712.5327,299.2988 A0,0 0 0 0 712.5327,299.2988 L712.5327,233.8926 L702.5327,223.8926 L488.4902,223.8926 A0,0 0 0 0 488.4902,223.8926" fill="#FEFFDD" style="stroke:#181818;stroke-width:0.5;"/><path d="M702.5327,223.8926 L702.5327,233.8926 L712.5327,233.8926 L702.5327,223.8926" fill="#FEFFDD" style="stroke:#181818;stroke-width:0.5;"/><text fill="#000000" font-family="sans-serif" font-size="13" lengthAdjust="spacing" textLength="111.979" x="494.4902" y="242.3877">Filters may include:</text><text fill="#000000" font-family="sans-serif" font-size="13" lengthAdjust="spacing" textLength="203.0425" x="494.4902" y="258.7393">semesters, teacher, subject, group,</text><text fill="#000000" font-family="sans-serif" font-size="13" lengthAdjust="spacing" textLength="170.5298" x="494.4902" y="275.0908">class type, date from, date to.</text><text fill="#000000" font-family="sans-serif" font-size="13" lengthAdjust="spacing" textLength="194.3525" x="494.4902" y="291.4424">Null or empty means unrestricted.</text><rect fill="#F1F1F1" height="35.0938" rx="12.5" ry="12.5" style="stroke:#181818;stroke-width:0.5;" width="163.373" x="305.1172" y="244.0488"/><text fill="#000000" font-family="sans-serif" font-size="12" lengthAdjust="spacing" textLength="143.373" x="315.1172" y="266.5059">Administrator selects filters</text><rect fill="#F1F1F1" height="35.0938" rx="12.5" ry="12.5" style="stroke:#181818;stroke-width:0.5;" width="216.0723" x="278.7676" y="319.2988"/><text fill="#000000" font-family="sans-serif" font-size="12" lengthAdjust="spacing" textLength="196.0723" x="288.7676" y="341.7559">Administrator clicks Generate Report</text><rect fill="#F1F1F1" height="35.0938" rx="12.5" ry="12.5" style="stroke:#181818;stroke-width:0.5;" width="191.4102" x="53" y="1195.3418"/><text fill="#000000" font-family="sans-serif" font-size="12" lengthAdjust="spacing" textLength="171.4102" x="63" y="1217.7988">Administrator chooses target file</text><polygon fill="#F1F1F1" points="306.1138,1058.4238,467.4937,1058.4238,479.4937,1070.4238,467.4937,1082.4238,306.1138,1082.4238,294.1138,1070.4238,306.1138,1058.4238" style="stroke:#181818;stroke-width:0.5;stroke-linejoin:miter;stroke-miterlimit:10;"/><text fill="#000000" font-family="sans-serif" font-size="11" lengthAdjust="spacing" textLength="17.1177" x="390.8037" y="1093.8428">yes</text><text fill="#000000" font-family="sans-serif" font-size="11" lengthAdjust="spacing" textLength="161.3799" x="306.1138" y="1074.9248">Administrator clicks Export CSV?</text><text fill="#000000" font-family="sans-serif" font-size="11" lengthAdjust="spacing" textLength="12.2354" x="281.8784" y="1068.0068">no</text><polygon fill="#F1F1F1" points="386.8037,1491.2168,398.8037,1503.2168,386.8037,1515.2168,374.8037,1503.2168,386.8037,1491.2168" style="stroke:#181818;stroke-width:0.5;stroke-linejoin:miter;stroke-miterlimit:10;"/><line style="stroke:#000000;stroke-width:1.5;" x1="20" x2="20" y1="56.0645" y2="1557.2168"/><rect fill="#F1F1F1" height="35.0938" rx="12.5" ry="12.5" style="stroke:#181818;stroke-width:0.5;" width="184.0684" x="1073.4761" y="178.7988"/><text fill="#000000" font-family="sans-serif" font-size="12" lengthAdjust="spacing" textLength="164.0684" x="1083.4761" y="201.2559">System displays optional filters</text><rect fill="#F1F1F1" height="35.0938" rx="12.5" ry="12.5" style="stroke:#181818;stroke-width:0.5;" width="221.4277" x="1054.7964" y="374.3926"/><text fill="#000000" font-family="sans-serif" font-size="12" lengthAdjust="spacing" textLength="201.4277" x="1064.7964" y="396.8496">System builds AttendanceReportFilter</text><rect fill="#F1F1F1" height="35.0938" rx="12.5" ry="12.5" style="stroke:#181818;stroke-width:0.5;" width="206.7734" x="884.2104" y="969.3301"/><text fill="#000000" font-family="sans-serif" font-size="12" lengthAdjust="spacing" textLength="186.7734" x="894.2104" y="991.7871">Display report table and conclusion</text><rect fill="#F1F1F1" height="35.0938" rx="12.5" ry="12.5" style="stroke:#181818;stroke-width:0.5;" width="209.4102" x="1238.7183" y="528.5801"/><text fill="#000000" font-family="sans-serif" font-size="12" lengthAdjust="spacing" textLength="189.4102" x="1248.7183" y="551.0371">Create empty/no-result report result</text><rect fill="#F1F1F1" height="35.0938" rx="12.5" ry="12.5" style="stroke:#181818;stroke-width:0.5;" width="145.4141" x="1270.7163" y="583.6738"/><text fill="#000000" font-family="sans-serif" font-size="12" lengthAdjust="spacing" textLength="125.4141" x="1280.7163" y="606.1309">Show no data message</text><polygon fill="#F1F1F1" points="1119.6438,1107.3418,1211.3767,1107.3418,1223.3767,1119.3418,1211.3767,1131.3418,1119.6438,1131.3418,1107.6438,1119.3418,1119.6438,1107.3418" style="stroke:#181818;stroke-width:0.5;stroke-linejoin:miter;stroke-miterlimit:10;"/><text fill="#000000" font-family="sans-serif" font-size="11" lengthAdjust="spacing" textLength="91.7329" x="1119.6438" y="1123.8428">Report generated?</text><text fill="#000000" font-family="sans-serif" font-size="11" lengthAdjust="spacing" textLength="17.1177" x="1090.5261" y="1116.9248">yes</text><text fill="#000000" font-family="sans-serif" font-size="11" lengthAdjust="spacing" textLength="12.2354" x="1223.3767" y="1116.9248">no</text><polygon fill="#F1F1F1" points="916.626,1151.3418,1002.2305,1151.3418,1014.2305,1163.3418,1002.2305,1175.3418,916.626,1175.3418,904.626,1163.3418,916.626,1151.3418" style="stroke:#181818;stroke-width:0.5;stroke-linejoin:miter;stroke-miterlimit:10;"/><text fill="#000000" font-family="sans-serif" font-size="11" lengthAdjust="spacing" textLength="85.6045" x="916.626" y="1167.8428">Report has lines?</text><text fill="#000000" font-family="sans-serif" font-size="11" lengthAdjust="spacing" textLength="17.1177" x="887.5083" y="1160.9248">yes</text><text fill="#000000" font-family="sans-serif" font-size="11" lengthAdjust="spacing" textLength="12.2354" x="1014.2305" y="1160.9248">no</text><rect fill="#F1F1F1" height="35.0938" rx="12.5" ry="12.5" style="stroke:#181818;stroke-width:0.5;" width="185.4102" x="723.5327" y="1368.123"/><text fill="#000000" font-family="sans-serif" font-size="12" lengthAdjust="spacing" textLength="165.4102" x="733.5327" y="1390.5801">Show export success message</text><rect fill="#F1F1F1" height="35.0938" rx="12.5" ry="12.5" style="stroke:#181818;stroke-width:0.5;" width="227.9609" x="988.6382" y="1195.3418"/><text fill="#000000" font-family="sans-serif" font-size="12" lengthAdjust="spacing" textLength="207.9609" x="998.6382" y="1217.7988">Show "Cannot export an empty report."</text><polygon fill="#F1F1F1" points="959.4282,1413.2168,971.4282,1425.2168,959.4282,1437.2168,947.4282,1425.2168,959.4282,1413.2168" style="stroke:#181818;stroke-width:0.5;stroke-linejoin:miter;stroke-miterlimit:10;"/><rect fill="#F1F1F1" height="35.0938" rx="12.5" ry="12.5" style="stroke:#181818;stroke-width:0.5;" width="249.9863" x="1246.5991" y="1151.3418"/><text fill="#000000" font-family="sans-serif" font-size="12" lengthAdjust="spacing" textLength="229.9863" x="1256.5991" y="1173.7988">Show "Generate a report before exporting."</text><polygon fill="#F1F1F1" points="1165.5103,1447.2168,1177.5103,1459.2168,1165.5103,1471.2168,1153.5103,1459.2168,1165.5103,1447.2168" style="stroke:#181818;stroke-width:0.5;stroke-linejoin:miter;stroke-miterlimit:10;"/><ellipse cx="1165.5103" cy="1546.2168" fill="none" rx="11" ry="11" style="stroke:#222222;stroke-width:1;"/><ellipse cx="1165.5103" cy="1546.2168" fill="#222222" rx="6" ry="6" style="stroke:#222222;stroke-width:1;"/><line style="stroke:#000000;stroke-width:1.5;" x1="717.5327" x2="717.5327" y1="56.0645" y2="1557.2168"/><rect fill="#F1F1F1" height="35.0938" rx="12.5" ry="12.5" style="stroke:#181818;stroke-width:0.5;" width="312.793" x="1851.8618" y="429.4863"/><text fill="#000000" font-family="sans-serif" font-size="12" lengthAdjust="spacing" textLength="292.793" x="1861.8618" y="451.9434">ClassMeetingRepository finds matching ClassMeetings</text><polygon fill="#F1F1F1" points="1943.7461,484.5801,2072.7705,484.5801,2084.7705,496.5801,2072.7705,508.5801,1943.7461,508.5801,1931.7461,496.5801,1943.7461,484.5801" style="stroke:#181818;stroke-width:0.5;stroke-linejoin:miter;stroke-miterlimit:10;"/><text fill="#000000" font-family="sans-serif" font-size="11" lengthAdjust="spacing" textLength="129.0244" x="1943.7461" y="501.0811">Matching meetings found?</text><text fill="#000000" font-family="sans-serif" font-size="11" lengthAdjust="spacing" textLength="17.1177" x="1914.6284" y="494.1631">yes</text><text fill="#000000" font-family="sans-serif" font-size="11" lengthAdjust="spacing" textLength="12.2354" x="2084.7705" y="494.1631">no</text><rect fill="#F1F1F1" height="35.0938" rx="12.5" ry="12.5" style="stroke:#181818;stroke-width:0.5;" width="462.2422" x="1599.2241" y="528.5801"/><text fill="#000000" font-family="sans-serif" font-size="12" lengthAdjust="spacing" textLength="442.2422" x="1609.2241" y="551.0371">System finds involved students through ClassMeeting -&gt; StudentGroup -&gt; Students</text><rect fill="#F1F1F1" height="35.0938" rx="12.5" ry="12.5" style="stroke:#181818;stroke-width:0.5;" width="397.5488" x="1631.5708" y="583.6738"/><text fill="#000000" font-family="sans-serif" font-size="12" lengthAdjust="spacing" textLength="377.5488" x="1641.5708" y="606.1309">AttendanceRepository loads attendance records for matching meetings</text><rect fill="#F1F1F1" height="35.0938" rx="12.5" ry="12.5" style="stroke:#181818;stroke-width:0.5;" width="218.7676" x="1720.9614" y="638.7676"/><text fill="#000000" font-family="sans-serif" font-size="12" lengthAdjust="spacing" textLength="198.7676" x="1730.9614" y="661.2246">System calculates counts per student</text><rect fill="#F1F1F1" height="35.0938" rx="12.5" ry="12.5" style="stroke:#181818;stroke-width:0.5;" width="401.5742" x="1629.5581" y="693.8613"/><text fill="#000000" font-family="sans-serif" font-size="12" lengthAdjust="spacing" textLength="381.5742" x="1639.5581" y="716.3184">Calculate attendancePercentage = (present + late) / totalMeetings * 100</text><rect fill="#F1F1F1" height="35.0938" rx="12.5" ry="12.5" style="stroke:#181818;stroke-width:0.5;" width="282.834" x="1688.9282" y="748.9551"/><text fill="#000000" font-family="sans-serif" font-size="12" lengthAdjust="spacing" textLength="262.834" x="1698.9282" y="771.4121">Create AttendanceReport and ReportLine objects</text><rect fill="#F1F1F1" height="35.0938" rx="12.5" ry="12.5" style="stroke:#181818;stroke-width:0.5;" width="238.7832" x="1710.9536" y="804.0488"/><text fill="#000000" font-family="sans-serif" font-size="12" lengthAdjust="spacing" textLength="218.7832" x="1720.9536" y="826.5059">Calculate overallPerformancePercentage</text><rect fill="#F1F1F1" height="35.0938" rx="12.5" ry="12.5" style="stroke:#181818;stroke-width:0.5;" width="158.7441" x="1750.9731" y="859.1426"/><text fill="#000000" font-family="sans-serif" font-size="12" lengthAdjust="spacing" textLength="138.7441" x="1760.9731" y="881.5996">Build conclusion message</text><polygon fill="#F1F1F1" points="2008.2583,1014.4238,2020.2583,1026.4238,2008.2583,1038.4238,1996.2583,1026.4238,2008.2583,1014.4238" style="stroke:#181818;stroke-width:0.5;stroke-linejoin:miter;stroke-miterlimit:10;"/><rect fill="#F1F1F1" height="35.0938" rx="12.5" ry="12.5" style="stroke:#181818;stroke-width:0.5;" width="304.8008" x="1506.5854" y="1250.4355"/><text fill="#000000" font-family="sans-serif" font-size="12" lengthAdjust="spacing" textLength="284.8008" x="1516.5854" y="1272.8926">ReportExportService writes metadata and report lines</text><line style="stroke:#000000;stroke-width:1.5;" x1="1500.5854" x2="1500.5854" y1="56.0645" y2="1557.2168"/><rect fill="#F1F1F1" height="35.0938" rx="12.5" ry="12.5" style="stroke:#181818;stroke-width:0.5;" width="134.7207" x="2174.6548" y="914.2363"/><text fill="#000000" font-family="sans-serif" font-size="12" lengthAdjust="spacing" textLength="114.7207" x="2184.6548" y="936.6934">Save report with lines</text><line style="stroke:#000000;stroke-width:1.5;" x1="2168.6548" x2="2168.6548" y1="56.0645" y2="1557.2168"/><rect fill="#F1F1F1" height="35.0938" rx="12.5" ry="12.5" style="stroke:#181818;stroke-width:0.5;" width="102.6992" x="2319.3755" y="1313.0293"/><text fill="#000000" font-family="sans-serif" font-size="12" lengthAdjust="spacing" textLength="82.6992" x="2329.3755" y="1335.4863">Create CSV file</text><line style="stroke:#000000;stroke-width:1.5;" x1="2313.3755" x2="2313.3755" y1="56.0645" y2="1557.2168"/><line style="stroke:#000000;stroke-width:1.5;" x1="2426.0747" x2="2426.0747" y1="56.0645" y2="1557.2168"/><line style="stroke:#181818;stroke-width:1;" x1="386.8037" x2="386.8037" y1="103.7051" y2="123.7051"/><polygon fill="#181818" points="382.8037,113.7051,386.8037,123.7051,390.8037,113.7051,386.8037,117.7051" style="stroke:#181818;stroke-width:1;stroke-linejoin:miter;stroke-miterlimit:10;"/><line style="stroke:#181818;stroke-width:1;" x1="386.8037" x2="386.8037" y1="279.1426" y2="319.2988"/><polygon fill="#181818" points="382.8037,309.2988,386.8037,319.2988,390.8037,309.2988,386.8037,313.2988" style="stroke:#181818;stroke-width:1;stroke-linejoin:miter;stroke-miterlimit:10;"/><line style="stroke:#181818;stroke-width:1;" x1="294.1138" x2="39" y1="1070.4238" y2="1070.4238"/><polygon fill="#181818" points="35,1283.0293,39,1293.0293,43,1283.0293,39,1287.0293" style="stroke:#181818;stroke-width:1;stroke-linejoin:miter;stroke-miterlimit:10;"/><line style="stroke:#181818;stroke-width:1;" x1="39" x2="39" y1="1070.4238" y2="1503.2168"/><line style="stroke:#181818;stroke-width:1;" x1="39" x2="374.8037" y1="1503.2168" y2="1503.2168"/><polygon fill="#181818" points="364.8037,1499.2168,374.8037,1503.2168,364.8037,1507.2168,368.8037,1503.2168" style="stroke:#181818;stroke-width:1;stroke-linejoin:miter;stroke-miterlimit:10;"/><line style="stroke:#181818;stroke-width:1;" x1="1343.4233" x2="1343.4233" y1="563.6738" y2="583.6738"/><polygon fill="#181818" points="1339.4233,573.6738,1343.4233,583.6738,1347.4233,573.6738,1343.4233,577.6738" style="stroke:#181818;stroke-width:1;stroke-linejoin:miter;stroke-miterlimit:10;"/><line style="stroke:#181818;stroke-width:1;" x1="1014.2305" x2="1102.6187" y1="1163.3418" y2="1163.3418"/><line style="stroke:#181818;stroke-width:1;" x1="1102.6187" x2="1102.6187" y1="1163.3418" y2="1195.3418"/><polygon fill="#181818" points="1098.6187,1185.3418,1102.6187,1195.3418,1106.6187,1185.3418,1102.6187,1189.3418" style="stroke:#181818;stroke-width:1;stroke-linejoin:miter;stroke-miterlimit:10;"/><line style="stroke:#181818;stroke-width:1;" x1="816.2378" x2="816.2378" y1="1403.2168" y2="1425.2168"/><line style="stroke:#181818;stroke-width:1;" x1="816.2378" x2="947.4282" y1="1425.2168" y2="1425.2168"/><polygon fill="#181818" points="937.4282,1421.2168,947.4282,1425.2168,937.4282,1429.2168,941.4282,1425.2168" style="stroke:#181818;stroke-width:1;stroke-linejoin:miter;stroke-miterlimit:10;"/><line style="stroke:#181818;stroke-width:1;" x1="1102.6187" x2="1102.6187" y1="1230.4355" y2="1425.2168"/><line style="stroke:#181818;stroke-width:1;" x1="1102.6187" x2="971.4282" y1="1425.2168" y2="1425.2168"/><polygon fill="#181818" points="981.4282,1421.2168,971.4282,1425.2168,981.4282,1429.2168,977.4282,1425.2168" style="stroke:#181818;stroke-width:1;stroke-linejoin:miter;stroke-miterlimit:10;"/><line style="stroke:#181818;stroke-width:1;" x1="1107.6438" x2="959.4282" y1="1119.3418" y2="1119.3418"/><line style="stroke:#181818;stroke-width:1;" x1="959.4282" x2="959.4282" y1="1119.3418" y2="1151.3418"/><polygon fill="#181818" points="955.4282,1141.3418,959.4282,1151.3418,963.4282,1141.3418,959.4282,1145.3418" style="stroke:#181818;stroke-width:1;stroke-linejoin:miter;stroke-miterlimit:10;"/><line style="stroke:#181818;stroke-width:1;" x1="1223.3767" x2="1371.5923" y1="1119.3418" y2="1119.3418"/><line style="stroke:#181818;stroke-width:1;" x1="1371.5923" x2="1371.5923" y1="1119.3418" y2="1151.3418"/><polygon fill="#181818" points="1367.5923,1141.3418,1371.5923,1151.3418,1375.5923,1141.3418,1371.5923,1145.3418" style="stroke:#181818;stroke-width:1;stroke-linejoin:miter;stroke-miterlimit:10;"/><line style="stroke:#181818;stroke-width:1;" x1="959.4282" x2="959.4282" y1="1437.2168" y2="1459.2168"/><line style="stroke:#181818;stroke-width:1;" x1="959.4282" x2="1153.5103" y1="1459.2168" y2="1459.2168"/><polygon fill="#181818" points="1143.5103,1455.2168,1153.5103,1459.2168,1143.5103,1463.2168,1147.5103,1459.2168" style="stroke:#181818;stroke-width:1;stroke-linejoin:miter;stroke-miterlimit:10;"/><line style="stroke:#181818;stroke-width:1;" x1="1371.5923" x2="1371.5923" y1="1186.4355" y2="1459.2168"/><line style="stroke:#181818;stroke-width:1;" x1="1371.5923" x2="1177.5103" y1="1459.2168" y2="1459.2168"/><polygon fill="#181818" points="1187.5103,1455.2168,1177.5103,1459.2168,1187.5103,1463.2168,1183.5103,1459.2168" style="stroke:#181818;stroke-width:1;stroke-linejoin:miter;stroke-miterlimit:10;"/><line style="stroke:#181818;stroke-width:1;" x1="1830.3452" x2="1830.3452" y1="563.6738" y2="583.6738"/><polygon fill="#181818" points="1826.3452,573.6738,1830.3452,583.6738,1834.3452,573.6738,1830.3452,577.6738" style="stroke:#181818;stroke-width:1;stroke-linejoin:miter;stroke-miterlimit:10;"/><line style="stroke:#181818;stroke-width:1;" x1="1830.3452" x2="1830.3452" y1="618.7676" y2="638.7676"/><polygon fill="#181818" points="1826.3452,628.7676,1830.3452,638.7676,1834.3452,628.7676,1830.3452,632.7676" style="stroke:#181818;stroke-width:1;stroke-linejoin:miter;stroke-miterlimit:10;"/><line style="stroke:#181818;stroke-width:1;" x1="1830.3452" x2="1830.3452" y1="673.8613" y2="693.8613"/><polygon fill="#181818" points="1826.3452,683.8613,1830.3452,693.8613,1834.3452,683.8613,1830.3452,687.8613" style="stroke:#181818;stroke-width:1;stroke-linejoin:miter;stroke-miterlimit:10;"/><line style="stroke:#181818;stroke-width:1;" x1="1830.3452" x2="1830.3452" y1="728.9551" y2="748.9551"/><polygon fill="#181818" points="1826.3452,738.9551,1830.3452,748.9551,1834.3452,738.9551,1830.3452,742.9551" style="stroke:#181818;stroke-width:1;stroke-linejoin:miter;stroke-miterlimit:10;"/><line style="stroke:#181818;stroke-width:1;" x1="1830.3452" x2="1830.3452" y1="784.0488" y2="804.0488"/><polygon fill="#181818" points="1826.3452,794.0488,1830.3452,804.0488,1834.3452,794.0488,1830.3452,798.0488" style="stroke:#181818;stroke-width:1;stroke-linejoin:miter;stroke-miterlimit:10;"/><line style="stroke:#181818;stroke-width:1;" x1="1830.3452" x2="1830.3452" y1="839.1426" y2="859.1426"/><polygon fill="#181818" points="1826.3452,849.1426,1830.3452,859.1426,1834.3452,849.1426,1830.3452,853.1426" style="stroke:#181818;stroke-width:1;stroke-linejoin:miter;stroke-miterlimit:10;"/><line style="stroke:#181818;stroke-width:1;" x1="1931.7461" x2="1830.3452" y1="496.5801" y2="496.5801"/><line style="stroke:#181818;stroke-width:1;" x1="1830.3452" x2="1830.3452" y1="496.5801" y2="528.5801"/><polygon fill="#181818" points="1826.3452,518.5801,1830.3452,528.5801,1834.3452,518.5801,1830.3452,522.5801" style="stroke:#181818;stroke-width:1;stroke-linejoin:miter;stroke-miterlimit:10;"/><line style="stroke:#181818;stroke-width:1;" x1="2008.2583" x2="2008.2583" y1="464.5801" y2="484.5801"/><polygon fill="#181818" points="2004.2583,474.5801,2008.2583,484.5801,2012.2583,474.5801,2008.2583,478.5801" style="stroke:#181818;stroke-width:1;stroke-linejoin:miter;stroke-miterlimit:10;"/><line style="stroke:#181818;stroke-width:1;" x1="386.8037" x2="386.8037" y1="158.7988" y2="163.7988"/><line style="stroke:#181818;stroke-width:1;" x1="386.8037" x2="1165.5103" y1="163.7988" y2="163.7988"/><line style="stroke:#181818;stroke-width:1;" x1="1165.5103" x2="1165.5103" y1="163.7988" y2="178.7988"/><polygon fill="#181818" points="1161.5103,168.7988,1165.5103,178.7988,1169.5103,168.7988,1165.5103,172.7988" style="stroke:#181818;stroke-width:1;stroke-linejoin:miter;stroke-miterlimit:10;"/><line style="stroke:#181818;stroke-width:1;" x1="1165.5103" x2="1165.5103" y1="213.8926" y2="218.8926"/><line style="stroke:#181818;stroke-width:1;" x1="1165.5103" x2="386.8037" y1="218.8926" y2="218.8926"/><line style="stroke:#181818;stroke-width:1;" x1="386.8037" x2="386.8037" y1="218.8926" y2="244.0488"/><polygon fill="#181818" points="382.8037,234.0488,386.8037,244.0488,390.8037,234.0488,386.8037,238.0488" style="stroke:#181818;stroke-width:1;stroke-linejoin:miter;stroke-miterlimit:10;"/><line style="stroke:#181818;stroke-width:1;" x1="386.8037" x2="386.8037" y1="354.3926" y2="359.3926"/><line style="stroke:#181818;stroke-width:1;" x1="386.8037" x2="1165.5103" y1="359.3926" y2="359.3926"/><line style="stroke:#181818;stroke-width:1;" x1="1165.5103" x2="1165.5103" y1="359.3926" y2="374.3926"/><polygon fill="#181818" points="1161.5103,364.3926,1165.5103,374.3926,1169.5103,364.3926,1165.5103,368.3926" style="stroke:#181818;stroke-width:1;stroke-linejoin:miter;stroke-miterlimit:10;"/><line style="stroke:#181818;stroke-width:1;" x1="1165.5103" x2="1165.5103" y1="409.4863" y2="414.4863"/><line style="stroke:#181818;stroke-width:1;" x1="1165.5103" x2="2008.2583" y1="414.4863" y2="414.4863"/><line style="stroke:#181818;stroke-width:1;" x1="2008.2583" x2="2008.2583" y1="414.4863" y2="429.4863"/><polygon fill="#181818" points="2004.2583,419.4863,2008.2583,429.4863,2012.2583,419.4863,2008.2583,423.4863" style="stroke:#181818;stroke-width:1;stroke-linejoin:miter;stroke-miterlimit:10;"/><line style="stroke:#181818;stroke-width:1;" x1="1830.3452" x2="1830.3452" y1="894.2363" y2="899.2363"/><line style="stroke:#181818;stroke-width:1;" x1="1830.3452" x2="2242.0151" y1="899.2363" y2="899.2363"/><line style="stroke:#181818;stroke-width:1;" x1="2242.0151" x2="2242.0151" y1="899.2363" y2="914.2363"/><polygon fill="#181818" points="2238.0151,904.2363,2242.0151,914.2363,2246.0151,904.2363,2242.0151,908.2363" style="stroke:#181818;stroke-width:1;stroke-linejoin:miter;stroke-miterlimit:10;"/><line style="stroke:#181818;stroke-width:1;" x1="2242.0151" x2="2242.0151" y1="949.3301" y2="954.3301"/><line style="stroke:#181818;stroke-width:1;" x1="2242.0151" x2="987.5972" y1="954.3301" y2="954.3301"/><line style="stroke:#181818;stroke-width:1;" x1="987.5972" x2="987.5972" y1="954.3301" y2="969.3301"/><polygon fill="#181818" points="983.5972,959.3301,987.5972,969.3301,991.5972,959.3301,987.5972,963.3301" style="stroke:#181818;stroke-width:1;stroke-linejoin:miter;stroke-miterlimit:10;"/><line style="stroke:#181818;stroke-width:1;" x1="2084.7705" x2="2096.7705" y1="496.5801" y2="496.5801"/><line style="stroke:#181818;stroke-width:1;" x1="2096.7705" x2="2096.7705" y1="496.5801" y2="514.5801"/><line style="stroke:#181818;stroke-width:1;" x1="2096.7705" x2="1343.4233" y1="514.5801" y2="514.5801"/><line style="stroke:#181818;stroke-width:1;" x1="1343.4233" x2="1343.4233" y1="514.5801" y2="528.5801"/><polygon fill="#181818" points="1339.4233,518.5801,1343.4233,528.5801,1347.4233,518.5801,1343.4233,522.5801" style="stroke:#181818;stroke-width:1;stroke-linejoin:miter;stroke-miterlimit:10;"/><line style="stroke:#181818;stroke-width:1;" x1="987.5972" x2="987.5972" y1="1004.4238" y2="1026.4238"/><line style="stroke:#181818;stroke-width:1;" x1="987.5972" x2="1996.2583" y1="1026.4238" y2="1026.4238"/><polygon fill="#181818" points="1986.2583,1022.4238,1996.2583,1026.4238,1986.2583,1030.4238,1990.2583,1026.4238" style="stroke:#181818;stroke-width:1;stroke-linejoin:miter;stroke-miterlimit:10;"/><line style="stroke:#181818;stroke-width:1;" x1="1343.4233" x2="1343.4233" y1="618.7676" y2="1008.4238"/><line style="stroke:#181818;stroke-width:1;" x1="1343.4233" x2="2038.2583" y1="1008.4238" y2="1008.4238"/><line style="stroke:#181818;stroke-width:1;" x1="2038.2583" x2="2038.2583" y1="1008.4238" y2="1026.4238"/><line style="stroke:#181818;stroke-width:1;" x1="2038.2583" x2="2020.2583" y1="1026.4238" y2="1026.4238"/><polygon fill="#181818" points="2030.2583,1022.4238,2020.2583,1026.4238,2030.2583,1030.4238,2026.2583,1026.4238" style="stroke:#181818;stroke-width:1;stroke-linejoin:miter;stroke-miterlimit:10;"/><line style="stroke:#181818;stroke-width:1;" x1="148.7051" x2="148.7051" y1="1230.4355" y2="1235.4355"/><line style="stroke:#181818;stroke-width:1;" x1="148.7051" x2="1658.9858" y1="1235.4355" y2="1235.4355"/><line style="stroke:#181818;stroke-width:1;" x1="1658.9858" x2="1658.9858" y1="1235.4355" y2="1250.4355"/><polygon fill="#181818" points="1654.9858,1240.4355,1658.9858,1250.4355,1662.9858,1240.4355,1658.9858,1244.4355" style="stroke:#181818;stroke-width:1;stroke-linejoin:miter;stroke-miterlimit:10;"/><line style="stroke:#181818;stroke-width:1;" x1="1658.9858" x2="1658.9858" y1="1285.5293" y2="1298.0293"/><line style="stroke:#181818;stroke-width:1;" x1="1658.9858" x2="2370.7251" y1="1298.0293" y2="1298.0293"/><line style="stroke:#181818;stroke-width:1;" x1="2370.7251" x2="2370.7251" y1="1298.0293" y2="1313.0293"/><polygon fill="#181818" points="2366.7251,1303.0293,2370.7251,1313.0293,2374.7251,1303.0293,2370.7251,1307.0293" style="stroke:#181818;stroke-width:1;stroke-linejoin:miter;stroke-miterlimit:10;"/><line style="stroke:#181818;stroke-width:1;" x1="2370.7251" x2="2370.7251" y1="1348.123" y2="1353.123"/><line style="stroke:#181818;stroke-width:1;" x1="2370.7251" x2="816.2378" y1="1353.123" y2="1353.123"/><line style="stroke:#181818;stroke-width:1;" x1="816.2378" x2="816.2378" y1="1353.123" y2="1368.123"/><polygon fill="#181818" points="812.2378,1358.123,816.2378,1368.123,820.2378,1358.123,816.2378,1362.123" style="stroke:#181818;stroke-width:1;stroke-linejoin:miter;stroke-miterlimit:10;"/><line style="stroke:#181818;stroke-width:1;" x1="904.626" x2="148.7051" y1="1163.3418" y2="1163.3418"/><line style="stroke:#181818;stroke-width:1;" x1="148.7051" x2="148.7051" y1="1163.3418" y2="1195.3418"/><polygon fill="#181818" points="144.7051,1185.3418,148.7051,1195.3418,152.7051,1185.3418,148.7051,1189.3418" style="stroke:#181818;stroke-width:1;stroke-linejoin:miter;stroke-miterlimit:10;"/><line style="stroke:#181818;stroke-width:1;" x1="386.8037" x2="386.8037" y1="1082.4238" y2="1094.8828"/><line style="stroke:#181818;stroke-width:1;" x1="386.8037" x2="1165.5103" y1="1094.8828" y2="1094.8828"/><line style="stroke:#181818;stroke-width:1;" x1="1165.5103" x2="1165.5103" y1="1094.8828" y2="1107.3418"/><polygon fill="#181818" points="1161.5103,1097.3418,1165.5103,1107.3418,1169.5103,1097.3418,1165.5103,1101.3418" style="stroke:#181818;stroke-width:1;stroke-linejoin:miter;stroke-miterlimit:10;"/><line style="stroke:#181818;stroke-width:1;" x1="1165.5103" x2="1165.5103" y1="1471.2168" y2="1478.7578"/><line style="stroke:#181818;stroke-width:1;" x1="1165.5103" x2="386.8037" y1="1478.7578" y2="1478.7578"/><line style="stroke:#181818;stroke-width:1;" x1="386.8037" x2="386.8037" y1="1478.7578" y2="1491.2168"/><polygon fill="#181818" points="382.8037,1481.2168,386.8037,1491.2168,390.8037,1481.2168,386.8037,1485.2168" style="stroke:#181818;stroke-width:1;stroke-linejoin:miter;stroke-miterlimit:10;"/><line style="stroke:#181818;stroke-width:1;" x1="2008.2583" x2="2008.2583" y1="1038.4238" y2="1043.4238"/><line style="stroke:#181818;stroke-width:1;" x1="2008.2583" x2="386.8037" y1="1043.4238" y2="1043.4238"/><line style="stroke:#181818;stroke-width:1;" x1="386.8037" x2="386.8037" y1="1043.4238" y2="1058.4238"/><polygon fill="#181818" points="382.8037,1048.4238,386.8037,1058.4238,390.8037,1048.4238,386.8037,1052.4238" style="stroke:#181818;stroke-width:1;stroke-linejoin:miter;stroke-miterlimit:10;"/><line style="stroke:#181818;stroke-width:1;" x1="386.8037" x2="386.8037" y1="1515.2168" y2="1520.2168"/><line style="stroke:#181818;stroke-width:1;" x1="386.8037" x2="1165.5103" y1="1520.2168" y2="1520.2168"/><line style="stroke:#181818;stroke-width:1;" x1="1165.5103" x2="1165.5103" y1="1520.2168" y2="1535.2168"/><polygon fill="#181818" points="1161.5103,1525.2168,1165.5103,1535.2168,1169.5103,1525.2168,1165.5103,1529.2168" style="stroke:#181818;stroke-width:1;stroke-linejoin:miter;stroke-miterlimit:10;"/><text fill="#000000" font-family="sans-serif" font-size="18" lengthAdjust="spacing" textLength="106.0313" x="315.7507" y="74.75">Administrator</text><text fill="#000000" font-family="sans-serif" font-size="18" lengthAdjust="spacing" textLength="98.0244" x="1060.0469" y="74.75">JavaFX GUI</text><text fill="#000000" font-family="sans-serif" font-size="18" lengthAdjust="spacing" textLength="184.0693" x="1742.5854" y="74.75">Services / Repositories</text><text fill="#000000" font-family="sans-serif" font-size="18" lengthAdjust="spacing" textLength="77.0537" x="2202.4883" y="74.75">Database</text><text fill="#000000" font-family="sans-serif" font-size="18" lengthAdjust="spacing" textLength="94.0166" x="2322.7168" y="74.75">File System</text><?plantuml-src VLJRRjD047ttLunuIY2zyDeAK4bf1Q884O5utQmdzjBrhhMpJecKZsVsuZXsMjxitTapvvovUEKrmetqQgly3cwLg9neu0pkqQ0JdkzC2P_-jjPvkF4UJIcCHFY1uQGew56PLeGdMXdqknQ1psjR5FkRib56aMSKw_O5UH4UN8sEmRPeQ4YMO0b8EaHppIXVn5RS_ORxdv_tnTLgHnuRA1MrMko8NtjbZT2mKTgZe-lJj9DyX1eb9nWU6CjvdQfgNzobGsZ43fIHkYlngY1iaCBn0ZmAMQDR07NhFmopWChPhbqKKWiY2EeNK0OT6sUR_EdjUV6jqvfz0MnQDhb1mPexunZNAUcnF2_OLmXCJWoIMid74uTUScRTALtIKQ5IU18M7gtGRPL4Wek8H8fpA2H6M0OD3uXUcUfmjMEZJ1aSyRBc2pYE2kwf3SmU-iicdyF6TgRyC0TVeu7P3cbU0FGS4w8oMwktM09vjjbmINpDPbRrA0MSlOTL2hWFLX_zStR672lDdBKLd44CtUfGMbS6NcwGqXnK3DoaqBBJx3E1P0tCgaNNKuo1opxY2FyxEidtea9u1xEMwyf_y0P2s9oTzjOBtPi6h-7jvMN2SXWdR58j4DmCwVCh3nNOs6mqIM-tt11QSsvMrOnfnD2FeHTOHcXauZ5XmKJvSdyhl5WBmdqKBxR1evZxIVawpdBCDseoZhnDazS7CmPlZq1tI7DTe2Q4cR7pPm2ov3W85yQUiLUTzZrU-ai5gUqJJqIO8J4mPv_KvdJ8GnS-EpPvSIrNlwRTE24M4BBxLHwramOUHTM2aasdKGm-uPTEfvDTMqlSQBmNA_HX8yNInFSlZcb6IYIIkXmBJqw5lctGYsXQA4lszL3F2CxR024r_04mruMD6XCPknH3OsKm6KkTP9Pqt5e0n_N_ByYhfJ2yz7emOVA2JApFNsMuMFCfx0beXZmiIj6BNoCF2EOaF849Dw4EcBcpoDls7m00?></g></svg>