<svg xmlns="http://www.w3.org/2000/svg" xmlns:xlink="http://www.w3.org/1999/xlink" contentStyleType="text/css" data-diagram-type="ACTIVITY" height="777px" preserveAspectRatio="none" style="width:1172px;height:777px;background:#FFFFFF;" version="1.1" viewBox="0 0 1172 777" width="1172px" zoomAndPan="magnify"><?plantuml 1.2026.5?><defs/><g><g class="title" data-source-line="1"><text fill="#000000" font-family="sans-serif" font-size="14" font-weight="700" lengthAdjust="spacing" textLength="306.5303" x="431.8267" y="34.5332">Activity Diagram - Open Class Meeting Details</text></g><ellipse cx="584.0918" cy="63.6094" fill="#222222" rx="10" ry="10" style="stroke:#222222;stroke-width:1;"/><rect fill="#F1F1F1" height="35.0938" rx="12.5" ry="12.5" style="stroke:#181818;stroke-width:0.5;" width="268.1504" x="450.0166" y="93.6094"/><text fill="#000000" font-family="sans-serif" font-size="12" lengthAdjust="spacing" textLength="248.1504" x="460.0166" y="116.0664">Logged-in user opens Public Weekly Schedule</text><rect fill="#F1F1F1" height="35.0938" rx="12.5" ry="12.5" style="stroke:#181818;stroke-width:0.5;" width="247.4199" x="460.3818" y="148.7031"/><text fill="#000000" font-family="sans-serif" font-size="12" lengthAdjust="spacing" textLength="227.4199" x="470.3818" y="171.1602">System loads current-week class meetings</text><rect fill="#F1F1F1" height="35.0938" rx="12.5" ry="12.5" style="stroke:#181818;stroke-width:0.5;" width="216.0781" x="476.0527" y="203.7969"/><text fill="#000000" font-family="sans-serif" font-size="12" lengthAdjust="spacing" textLength="196.0781" x="486.0527" y="226.2539">System displays public meeting rows</text><rect fill="#F1F1F1" height="35.0938" rx="12.5" ry="12.5" style="stroke:#181818;stroke-width:0.5;" width="172.7246" x="497.7295" y="258.8906"/><text fill="#000000" font-family="sans-serif" font-size="12" lengthAdjust="spacing" textLength="152.7246" x="507.7295" y="281.3477">User selects a class meeting</text><polygon fill="#F1F1F1" points="65.2773,313.9844,173.4727,313.9844,185.4727,325.9844,173.4727,337.9844,65.2773,337.9844,53.2773,325.9844,65.2773,313.9844" style="stroke:#181818;stroke-width:0.5;stroke-linejoin:miter;stroke-miterlimit:10;"/><text fill="#000000" font-family="sans-serif" font-size="11" lengthAdjust="spacing" textLength="17.1177" x="123.375" y="349.4033">yes</text><text fill="#000000" font-family="sans-serif" font-size="11" lengthAdjust="spacing" textLength="108.1953" x="65.2773" y="330.4854">User is Administrator?</text><rect fill="#F1F1F1" height="35.0938" rx="12.5" ry="12.5" style="stroke:#181818;stroke-width:0.5;" width="206.75" x="16" y="370.9033"/><text fill="#000000" font-family="sans-serif" font-size="12" lengthAdjust="spacing" textLength="186.75" x="26" y="393.3604">Open full ClassMeetingDetailsView</text><polygon fill="#F1F1F1" points="254.75,313.9844,440.0098,313.9844,452.0098,325.9844,440.0098,337.9844,254.75,337.9844,242.75,325.9844,254.75,313.9844" style="stroke:#181818;stroke-width:0.5;stroke-linejoin:miter;stroke-miterlimit:10;"/><text fill="#000000" font-family="sans-serif" font-size="11" lengthAdjust="spacing" textLength="17.1177" x="351.3799" y="349.4033">yes</text><text fill="#000000" font-family="sans-serif" font-size="11" lengthAdjust="spacing" textLength="185.2598" x="254.75" y="330.4854">User is Teacher assigned to meeting?</text><rect fill="#F1F1F1" height="35.0938" rx="12.5" ry="12.5" style="stroke:#181818;stroke-width:0.5;" width="206.75" x="244.0049" y="370.9033"/><text fill="#000000" font-family="sans-serif" font-size="12" lengthAdjust="spacing" textLength="186.75" x="254.0049" y="393.3604">Open full ClassMeetingDetailsView</text><polygon fill="#F1F1F1" points="505.5862,313.9844,671.9021,313.9844,683.9021,325.9844,671.9021,337.9844,505.5862,337.9844,493.5862,325.9844,505.5862,313.9844" style="stroke:#181818;stroke-width:0.5;stroke-linejoin:miter;stroke-miterlimit:10;"/><text fill="#000000" font-family="sans-serif" font-size="11" lengthAdjust="spacing" textLength="17.1177" x="592.7441" y="349.4033">yes</text><text fill="#000000" font-family="sans-serif" font-size="11" lengthAdjust="spacing" textLength="166.3159" x="505.5862" y="330.4854">User is Student in meeting group?</text><text fill="#000000" font-family="sans-serif" font-size="11" lengthAdjust="spacing" textLength="12.2354" x="683.9021" y="323.5674">no</text><rect fill="#F1F1F1" height="35.0938" rx="12.5" ry="12.5" style="stroke:#181818;stroke-width:0.5;" width="206.75" x="485.3691" y="370.9033"/><text fill="#000000" font-family="sans-serif" font-size="12" lengthAdjust="spacing" textLength="186.75" x="495.3691" y="393.3604">Open full ClassMeetingDetailsView</text><rect fill="#F1F1F1" height="35.0938" rx="12.5" ry="12.5" style="stroke:#181818;stroke-width:0.5;" width="157.4082" x="510.04" y="428.626"/><text fill="#000000" font-family="sans-serif" font-size="12" lengthAdjust="spacing" textLength="137.4082" x="520.04" y="451.083">Show details as read-only</text><rect fill="#F1F1F1" height="35.0938" rx="12.5" ry="12.5" style="stroke:#181818;stroke-width:0.5;" width="233.4688" x="472.0098" y="486.3486"/><text fill="#000000" font-family="sans-serif" font-size="12" lengthAdjust="spacing" textLength="213.4688" x="482.0098" y="508.8057">Show own attendance status if available</text><rect fill="#F1F1F1" height="35.0938" rx="12.5" ry="12.5" style="stroke:#181818;stroke-width:0.5;" width="224.1172" x="826.7725" y="373.5322"/><text fill="#000000" font-family="sans-serif" font-size="12" lengthAdjust="spacing" textLength="204.1172" x="836.7725" y="395.9893">Show public schedule information only</text><rect fill="#F1F1F1" height="35.0938" rx="12.5" ry="12.5" style="stroke:#181818;stroke-width:0.5;" width="426.7051" x="725.4785" y="431.2549"/><text fill="#000000" font-family="sans-serif" font-size="12" lengthAdjust="spacing" textLength="406.7051" x="735.4785" y="453.7119">Display "Only public schedule information is available for this class meeting."</text><ellipse cx="938.8311" cy="499.9775" fill="none" rx="11" ry="11" style="stroke:#222222;stroke-width:1;"/><ellipse cx="938.8311" cy="499.9775" fill="#222222" rx="6" ry="6" style="stroke:#222222;stroke-width:1;"/><rect fill="#F1F1F1" height="35.0938" rx="12.5" ry="12.5" style="stroke:#181818;stroke-width:0.5;" width="440.1934" x="363.9951" y="561.4424"/><text fill="#000000" font-family="sans-serif" font-size="12" lengthAdjust="spacing" textLength="420.1934" x="373.9951" y="583.8994">Display subject, type, group, teacher, email, date, time, mode, status, comment</text><polygon fill="#F1F1F1" points="543.4326,616.5361,624.751,616.5361,636.751,628.5361,624.751,640.5361,543.4326,640.5361,531.4326,628.5361,543.4326,616.5361" style="stroke:#181818;stroke-width:0.5;stroke-linejoin:miter;stroke-miterlimit:10;"/><text fill="#000000" font-family="sans-serif" font-size="11" lengthAdjust="spacing" textLength="81.3184" x="543.4326" y="633.0371">User is Student?</text><text fill="#000000" font-family="sans-serif" font-size="11" lengthAdjust="spacing" textLength="17.1177" x="514.3149" y="626.1191">yes</text><text fill="#000000" font-family="sans-serif" font-size="11" lengthAdjust="spacing" textLength="121.043" x="636.751" y="626.1191">Teacher or Administrator</text><rect fill="#F1F1F1" height="35.0938" rx="12.5" ry="12.5" style="stroke:#181818;stroke-width:0.5;" width="210.1309" x="335.9487" y="650.5361"/><text fill="#000000" font-family="sans-serif" font-size="12" lengthAdjust="spacing" textLength="190.1309" x="345.9487" y="672.9932">Disable edit and attendance actions</text><rect fill="#F1F1F1" height="35.0938" rx="12.5" ry="12.5" style="stroke:#181818;stroke-width:0.5;" width="322.1797" x="566.0796" y="650.5361"/><text fill="#000000" font-family="sans-serif" font-size="12" lengthAdjust="spacing" textLength="302.1797" x="576.0796" y="672.9932">Show comment and attendance actions according to role</text><polygon fill="#F1F1F1" points="584.0918,691.6299,596.0918,703.6299,584.0918,715.6299,572.0918,703.6299,584.0918,691.6299" style="stroke:#181818;stroke-width:0.5;stroke-linejoin:miter;stroke-miterlimit:10;"/><ellipse cx="584.0918" cy="746.6299" fill="none" rx="11" ry="11" style="stroke:#222222;stroke-width:1;"/><ellipse cx="584.0918" cy="746.6299" fill="#222222" rx="6" ry="6" style="stroke:#222222;stroke-width:1;"/><line style="stroke:#181818;stroke-width:1;" x1="584.0918" x2="584.0918" y1="73.6094" y2="93.6094"/><polygon fill="#181818" points="580.0918,83.6094,584.0918,93.6094,588.0918,83.6094,584.0918,87.6094" style="stroke:#181818;stroke-width:1;stroke-linejoin:miter;stroke-miterlimit:10;"/><line style="stroke:#181818;stroke-width:1;" x1="584.0918" x2="584.0918" y1="128.7031" y2="148.7031"/><polygon fill="#181818" points="580.0918,138.7031,584.0918,148.7031,588.0918,138.7031,584.0918,142.7031" style="stroke:#181818;stroke-width:1;stroke-linejoin:miter;stroke-miterlimit:10;"/><line style="stroke:#181818;stroke-width:1;" x1="584.0918" x2="584.0918" y1="183.7969" y2="203.7969"/><polygon fill="#181818" points="580.0918,193.7969,584.0918,203.7969,588.0918,193.7969,584.0918,197.7969" style="stroke:#181818;stroke-width:1;stroke-linejoin:miter;stroke-miterlimit:10;"/><line style="stroke:#181818;stroke-width:1;" x1="584.0918" x2="584.0918" y1="238.8906" y2="258.8906"/><polygon fill="#181818" points="580.0918,248.8906,584.0918,258.8906,588.0918,248.8906,584.0918,252.8906" style="stroke:#181818;stroke-width:1;stroke-linejoin:miter;stroke-miterlimit:10;"/><line style="stroke:#181818;stroke-width:1;" x1="588.7441" x2="588.7441" y1="405.9971" y2="428.626"/><polygon fill="#181818" points="584.7441,418.626,588.7441,428.626,592.7441,418.626,588.7441,422.626" style="stroke:#181818;stroke-width:1;stroke-linejoin:miter;stroke-miterlimit:10;"/><line style="stroke:#181818;stroke-width:1;" x1="588.7441" x2="588.7441" y1="463.7197" y2="486.3486"/><polygon fill="#181818" points="584.7441,476.3486,588.7441,486.3486,592.7441,476.3486,588.7441,480.3486" style="stroke:#181818;stroke-width:1;stroke-linejoin:miter;stroke-miterlimit:10;"/><line style="stroke:#181818;stroke-width:1;" x1="938.8311" x2="938.8311" y1="408.626" y2="431.2549"/><polygon fill="#181818" points="934.8311,421.2549,938.8311,431.2549,942.8311,421.2549,938.8311,425.2549" style="stroke:#181818;stroke-width:1;stroke-linejoin:miter;stroke-miterlimit:10;"/><line style="stroke:#181818;stroke-width:1;" x1="938.8311" x2="938.8311" y1="466.3486" y2="488.9775"/><polygon fill="#181818" points="934.8311,478.9775,938.8311,488.9775,942.8311,478.9775,938.8311,482.9775" style="stroke:#181818;stroke-width:1;stroke-linejoin:miter;stroke-miterlimit:10;"/><line style="stroke:#181818;stroke-width:1;" x1="119.375" x2="119.375" y1="337.9844" y2="370.9033"/><polygon fill="#181818" points="115.375,360.9033,119.375,370.9033,123.375,360.9033,119.375,364.9033" style="stroke:#181818;stroke-width:1;stroke-linejoin:miter;stroke-miterlimit:10;"/><line style="stroke:#181818;stroke-width:1;" x1="119.375" x2="119.375" y1="405.9971" y2="541.4424"/><polygon fill="#181818" points="115.375,531.4424,119.375,541.4424,123.375,531.4424,119.375,535.4424" style="stroke:#181818;stroke-width:1;stroke-linejoin:miter;stroke-miterlimit:10;"/><line style="stroke:#181818;stroke-width:1;" x1="347.3799" x2="347.3799" y1="337.9844" y2="370.9033"/><polygon fill="#181818" points="343.3799,360.9033,347.3799,370.9033,351.3799,360.9033,347.3799,364.9033" style="stroke:#181818;stroke-width:1;stroke-linejoin:miter;stroke-miterlimit:10;"/><line style="stroke:#181818;stroke-width:1;" x1="347.3799" x2="347.3799" y1="405.9971" y2="541.4424"/><polygon fill="#181818" points="343.3799,531.4424,347.3799,541.4424,351.3799,531.4424,347.3799,535.4424" style="stroke:#181818;stroke-width:1;stroke-linejoin:miter;stroke-miterlimit:10;"/><line style="stroke:#181818;stroke-width:1;" x1="588.7441" x2="588.7441" y1="337.9844" y2="370.9033"/><polygon fill="#181818" points="584.7441,360.9033,588.7441,370.9033,592.7441,360.9033,588.7441,364.9033" style="stroke:#181818;stroke-width:1;stroke-linejoin:miter;stroke-miterlimit:10;"/><line style="stroke:#181818;stroke-width:1;" x1="588.7441" x2="588.7441" y1="521.4424" y2="541.4424"/><polygon fill="#181818" points="584.7441,531.4424,588.7441,541.4424,592.7441,531.4424,588.7441,535.4424" style="stroke:#181818;stroke-width:1;stroke-linejoin:miter;stroke-miterlimit:10;"/><line style="stroke:#181818;stroke-width:1;" x1="185.4727" x2="242.75" y1="325.9844" y2="325.9844"/><polygon fill="#181818" points="232.75,321.9844,242.75,325.9844,232.75,329.9844,236.75,325.9844" style="stroke:#181818;stroke-width:1;stroke-linejoin:miter;stroke-miterlimit:10;"/><line style="stroke:#181818;stroke-width:1;" x1="452.0098" x2="493.5862" y1="325.9844" y2="325.9844"/><polygon fill="#181818" points="483.5862,321.9844,493.5862,325.9844,483.5862,329.9844,487.5862,325.9844" style="stroke:#181818;stroke-width:1;stroke-linejoin:miter;stroke-miterlimit:10;"/><line style="stroke:#181818;stroke-width:1;" x1="584.0918" x2="584.0918" y1="293.9844" y2="298.9844"/><line style="stroke:#181818;stroke-width:1;" x1="584.0918" x2="119.375" y1="298.9844" y2="298.9844"/><line style="stroke:#181818;stroke-width:1;" x1="119.375" x2="119.375" y1="298.9844" y2="313.9844"/><polygon fill="#181818" points="115.375,303.9844,119.375,313.9844,123.375,303.9844,119.375,307.9844" style="stroke:#181818;stroke-width:1;stroke-linejoin:miter;stroke-miterlimit:10;"/><line style="stroke:#181818;stroke-width:1;" x1="683.9021" x2="938.8311" y1="325.9844" y2="325.9844"/><line style="stroke:#181818;stroke-width:1;" x1="938.8311" x2="938.8311" y1="325.9844" y2="373.5322"/><polygon fill="#181818" points="934.8311,363.5322,938.8311,373.5322,942.8311,363.5322,938.8311,367.5322" style="stroke:#181818;stroke-width:1;stroke-linejoin:miter;stroke-miterlimit:10;"/><line style="stroke:#181818;stroke-width:1;" x1="119.375" x2="588.7441" y1="541.4424" y2="541.4424"/><line style="stroke:#181818;stroke-width:1;" x1="584.0918" x2="584.0918" y1="541.4424" y2="561.4424"/><polygon fill="#181818" points="580.0918,551.4424,584.0918,561.4424,588.0918,551.4424,584.0918,555.4424" style="stroke:#181818;stroke-width:1;stroke-linejoin:miter;stroke-miterlimit:10;"/><line style="stroke:#181818;stroke-width:1;" x1="531.4326" x2="441.0142" y1="628.5361" y2="628.5361"/><line style="stroke:#181818;stroke-width:1;" x1="441.0142" x2="441.0142" y1="628.5361" y2="650.5361"/><polygon fill="#181818" points="437.0142,640.5361,441.0142,650.5361,445.0142,640.5361,441.0142,644.5361" style="stroke:#181818;stroke-width:1;stroke-linejoin:miter;stroke-miterlimit:10;"/><line style="stroke:#181818;stroke-width:1;" x1="636.751" x2="727.1694" y1="628.5361" y2="628.5361"/><line style="stroke:#181818;stroke-width:1;" x1="727.1694" x2="727.1694" y1="628.5361" y2="650.5361"/><polygon fill="#181818" points="723.1694,640.5361,727.1694,650.5361,731.1694,640.5361,727.1694,644.5361" style="stroke:#181818;stroke-width:1;stroke-linejoin:miter;stroke-miterlimit:10;"/><line style="stroke:#181818;stroke-width:1;" x1="441.0142" x2="441.0142" y1="685.6299" y2="703.6299"/><line style="stroke:#181818;stroke-width:1;" x1="441.0142" x2="572.0918" y1="703.6299" y2="703.6299"/><polygon fill="#181818" points="562.0918,699.6299,572.0918,703.6299,562.0918,707.6299,566.0918,703.6299" style="stroke:#181818;stroke-width:1;stroke-linejoin:miter;stroke-miterlimit:10;"/><line style="stroke:#181818;stroke-width:1;" x1="727.1694" x2="727.1694" y1="685.6299" y2="703.6299"/><line style="stroke:#181818;stroke-width:1;" x1="727.1694" x2="596.0918" y1="703.6299" y2="703.6299"/><polygon fill="#181818" points="606.0918,699.6299,596.0918,703.6299,606.0918,707.6299,602.0918,703.6299" style="stroke:#181818;stroke-width:1;stroke-linejoin:miter;stroke-miterlimit:10;"/><line style="stroke:#181818;stroke-width:1;" x1="584.0918" x2="584.0918" y1="596.5361" y2="616.5361"/><polygon fill="#181818" points="580.0918,606.5361,584.0918,616.5361,588.0918,606.5361,584.0918,610.5361" style="stroke:#181818;stroke-width:1;stroke-linejoin:miter;stroke-miterlimit:10;"/><line style="stroke:#181818;stroke-width:1;" x1="584.0918" x2="584.0918" y1="715.6299" y2="735.6299"/><polygon fill="#181818" points="580.0918,725.6299,584.0918,735.6299,588.0918,725.6299,584.0918,729.6299" style="stroke:#181818;stroke-width:1;stroke-linejoin:miter;stroke-miterlimit:10;"/><?plantuml-src hLBBRjim4BppAmOvsO3T3x0FHL0VMwI0a_PCYskPAHy2TnL1Vz_LouvRj8UY5mfQBcTsPbQy1C9Z9VxDIu-3jtMn4LiyDPJmALXcV24IdseSIAmFR0oBBMBCxdEkQt9Rdz0o5MHzmlZQdeAly9teH-Xnh2xasa1xiplsB1GHidMCgYs5acmxRKCrqiI9Xc-jpdCJRCze9iov0oLtGzVBGCeKg1A6lKVP6-FFM8qjdl7eea-UfLZ9vUCQSb5rgvvuRO3TgFNSXZ09dlNEShzvwlQ60jDxm6Uoggn0stsTo47oGlq_u8_IEhK7QkqYkYwvRVu5MxkEbzp1JKKT6OMis-OK-jjjxXAi22LdKqNGYALbw4psJL_Pqn3XC2LMAQ-lh-PWU4vPvptd4gtud735Fqmnuk59AtzzeiglTD2oYjNINR0V7WPCbjmOdTMVTGqNV6vFhxeB6qZVq6OoJ7-cf3QWgCWRE2jwAJxg6RFJSzAwGPLZLDD_MPqvYj-SLzPnJ79UO9Dxxvwj1ZcyEBOiYmgwMyIRZpFr7t3qM-NYXYtGDIjvp68IFnZn4m00?></g></svg>