<svg xmlns="http://www.w3.org/2000/svg" xmlns:xlink="http://www.w3.org/1999/xlink" contentStyleType="text/css" data-diagram-type="ACTIVITY" height="2019px" preserveAspectRatio="none" style="width:609px;height:2019px;background:#FFFFFF;" version="1.1" viewBox="0 0 609 2019" width="609px" zoomAndPan="magnify"><?plantuml 1.2026.5?><defs/><g><g class="title" data-source-line="1"><text fill="#000000" font-family="sans-serif" font-size="14" font-weight="700" lengthAdjust="spacing" textLength="483.9023" x="61.8484" y="34.5332">Activity Diagram - Weekly Schedule Entry And Class Meeting Generation</text></g><ellipse cx="269.4424" cy="63.6094" fill="#222222" rx="10" ry="10" style="stroke:#222222;stroke-width:1;"/><rect fill="#F1F1F1" height="35.0938" rx="12.5" ry="12.5" style="stroke:#181818;stroke-width:0.5;" width="275.4629" x="131.7109" y="93.6094"/><text fill="#000000" font-family="sans-serif" font-size="12" lengthAdjust="spacing" textLength="255.4629" x="141.7109" y="116.0664">Administrator opens Manage Weekly Schedules</text><rect fill="#F1F1F1" height="35.0938" rx="12.5" ry="12.5" style="stroke:#181818;stroke-width:0.5;" width="314.7852" x="112.0498" y="148.7031"/><text fill="#000000" font-family="sans-serif" font-size="12" lengthAdjust="spacing" textLength="294.7852" x="122.0498" y="171.1602">System displays existing WeeklyScheduleEntry records</text><rect fill="#F1F1F1" height="35.0938" rx="12.5" ry="12.5" style="stroke:#181818;stroke-width:0.5;" width="506.8848" x="16" y="203.7969"/><text fill="#000000" font-family="sans-serif" font-size="12" lengthAdjust="spacing" textLength="486.8848" x="26" y="226.2539">Administrator enters group, semester, subject, teacher, class type, meeting mode, day, time</text><polygon fill="#F1F1F1" points="189.3567,258.8906,349.5281,258.8906,361.5281,270.8906,349.5281,282.8906,189.3567,282.8906,177.3567,270.8906,189.3567,258.8906" style="stroke:#181818;stroke-width:0.5;stroke-linejoin:miter;stroke-miterlimit:10;"/><text fill="#000000" font-family="sans-serif" font-size="11" lengthAdjust="spacing" textLength="160.1714" x="189.3567" y="275.3916">Meeting mode is CLASSROOM?</text><text fill="#000000" font-family="sans-serif" font-size="11" lengthAdjust="spacing" textLength="17.1177" x="160.239" y="268.4736">yes</text><text fill="#000000" font-family="sans-serif" font-size="11" lengthAdjust="spacing" textLength="40.9546" x="361.5281" y="268.4736">ONLINE</text><rect fill="#F1F1F1" height="35.0938" rx="12.5" ry="12.5" style="stroke:#181818;stroke-width:0.5;" width="162.043" x="80.3853" y="292.8906"/><text fill="#000000" font-family="sans-serif" font-size="12" lengthAdjust="spacing" textLength="142.043" x="90.3853" y="315.3477">Administrator selects room</text><rect fill="#F1F1F1" height="35.0938" rx="12.5" ry="12.5" style="stroke:#181818;stroke-width:0.5;" width="230.0996" x="262.4282" y="292.8906"/><text fill="#000000" font-family="sans-serif" font-size="12" lengthAdjust="spacing" textLength="210.0996" x="272.4282" y="315.3477">Administrator enters online meeting link</text><polygon fill="#F1F1F1" points="269.4424,333.9844,281.4424,345.9844,269.4424,357.9844,257.4424,345.9844,269.4424,333.9844" style="stroke:#181818;stroke-width:0.5;stroke-linejoin:miter;stroke-miterlimit:10;"/><rect fill="#F1F1F1" height="35.0938" rx="12.5" ry="12.5" style="stroke:#181818;stroke-width:0.5;" width="281.4277" x="128.7285" y="377.9844"/><text fill="#000000" font-family="sans-serif" font-size="12" lengthAdjust="spacing" textLength="261.4277" x="138.7285" y="400.4414">Administrator clicks Save Weekly Schedule Entry</text><rect fill="#F1F1F1" height="35.0938" rx="12.5" ry="12.5" style="stroke:#181818;stroke-width:0.5;" width="132.7227" x="203.0811" y="481.9961"/><text fill="#000000" font-family="sans-serif" font-size="12" lengthAdjust="spacing" textLength="112.7227" x="213.0811" y="504.4531">Show validation error</text><ellipse cx="269.4424" cy="556.043" fill="none" rx="11" ry="11" style="stroke:#222222;stroke-width:1;"/><ellipse cx="269.4424" cy="556.043" fill="#222222" rx="6" ry="6" style="stroke:#222222;stroke-width:1;"/><polygon fill="#F1F1F1" points="216.8567,433.0781,322.0281,433.0781,334.0281,445.0781,322.0281,457.0781,216.8567,457.0781,204.8567,445.0781,216.8567,433.0781" style="stroke:#181818;stroke-width:0.5;stroke-linejoin:miter;stroke-miterlimit:10;"/><text fill="#000000" font-family="sans-serif" font-size="11" lengthAdjust="spacing" textLength="12.2354" x="273.4424" y="468.4971">no</text><text fill="#000000" font-family="sans-serif" font-size="11" lengthAdjust="spacing" textLength="105.1714" x="216.8567" y="449.5791">Required fields valid?</text><text fill="#000000" font-family="sans-serif" font-size="11" lengthAdjust="spacing" textLength="17.1177" x="334.0281" y="442.6611">yes</text><rect fill="#F1F1F1" height="35.0938" rx="12.5" ry="12.5" style="stroke:#181818;stroke-width:0.5;" width="298.6719" x="120.1064" y="657.9609"/><text fill="#000000" font-family="sans-serif" font-size="12" lengthAdjust="spacing" textLength="278.6719" x="130.1064" y="680.418">Show "Teacher is not qualified to teach this subject."</text><ellipse cx="269.4424" cy="732.0078" fill="none" rx="11" ry="11" style="stroke:#222222;stroke-width:1;"/><ellipse cx="269.4424" cy="732.0078" fill="#222222" rx="6" ry="6" style="stroke:#222222;stroke-width:1;"/><polygon fill="#F1F1F1" points="197.2898,609.043,341.595,609.043,353.595,621.043,341.595,633.043,197.2898,633.043,185.2898,621.043,197.2898,609.043" style="stroke:#181818;stroke-width:0.5;stroke-linejoin:miter;stroke-miterlimit:10;"/><text fill="#000000" font-family="sans-serif" font-size="11" lengthAdjust="spacing" textLength="12.2354" x="273.4424" y="644.4619">no</text><text fill="#000000" font-family="sans-serif" font-size="11" lengthAdjust="spacing" textLength="144.3052" x="197.2898" y="625.5439">Teacher qualified for subject?</text><text fill="#000000" font-family="sans-serif" font-size="11" lengthAdjust="spacing" textLength="17.1177" x="353.595" y="618.626">yes</text><rect fill="#F1F1F1" height="35.0938" rx="12.5" ry="12.5" style="stroke:#181818;stroke-width:0.5;" width="158.7266" x="190.0791" y="833.9258"/><text fill="#000000" font-family="sans-serif" font-size="12" lengthAdjust="spacing" textLength="138.7266" x="200.0791" y="856.3828">Show time validation error</text><ellipse cx="269.4424" cy="907.9727" fill="none" rx="11" ry="11" style="stroke:#222222;stroke-width:1;"/><ellipse cx="269.4424" cy="907.9727" fill="#222222" rx="6" ry="6" style="stroke:#222222;stroke-width:1;"/><polygon fill="#F1F1F1" points="203.104,785.0078,335.7808,785.0078,347.7808,797.0078,335.7808,809.0078,203.104,809.0078,191.104,797.0078,203.104,785.0078" style="stroke:#181818;stroke-width:0.5;stroke-linejoin:miter;stroke-miterlimit:10;"/><text fill="#000000" font-family="sans-serif" font-size="11" lengthAdjust="spacing" textLength="12.2354" x="273.4424" y="820.4268">no</text><text fill="#000000" font-family="sans-serif" font-size="11" lengthAdjust="spacing" textLength="132.6768" x="203.104" y="801.5088">Start time before end time?</text><text fill="#000000" font-family="sans-serif" font-size="11" lengthAdjust="spacing" textLength="17.1177" x="347.7808" y="794.5908">yes</text><rect fill="#F1F1F1" height="35.0938" rx="12.5" ry="12.5" style="stroke:#181818;stroke-width:0.5;" width="168.0723" x="185.4063" y="960.9727"/><text fill="#000000" font-family="sans-serif" font-size="12" lengthAdjust="spacing" textLength="148.0723" x="195.4063" y="983.4297">Save WeeklyScheduleEntry</text><rect fill="#F1F1F1" height="35.0938" rx="12.5" ry="12.5" style="stroke:#181818;stroke-width:0.5;" width="262.0859" x="138.3994" y="1016.0664"/><text fill="#000000" font-family="sans-serif" font-size="12" lengthAdjust="spacing" textLength="242.0859" x="148.3994" y="1038.5234">Administrator clicks Generate Class Meetings</text><rect fill="#F1F1F1" height="35.0938" rx="12.5" ry="12.5" style="stroke:#181818;stroke-width:0.5;" width="413.5273" x="62.6787" y="1071.1602"/><text fill="#000000" font-family="sans-serif" font-size="12" lengthAdjust="spacing" textLength="393.5273" x="72.6787" y="1093.6172">System iterates dates between semester.startDate and semester.endDate</text><rect fill="#F1F1F1" height="35.0938" rx="12.5" ry="12.5" style="stroke:#181818;stroke-width:0.5;" width="225.4355" x="156.7246" y="1219.1719"/><text fill="#000000" font-family="sans-serif" font-size="12" lengthAdjust="spacing" textLength="205.4355" x="166.7246" y="1241.6289">Create ClassMeeting for concrete date</text><rect fill="#F1F1F1" height="35.0938" rx="12.5" ry="12.5" style="stroke:#181818;stroke-width:0.5;" width="345.4883" x="96.6982" y="1274.2656"/><text fill="#000000" font-family="sans-serif" font-size="12" lengthAdjust="spacing" textLength="325.4883" x="106.6982" y="1296.7227">Set subject, teacher, group, type, mode, status SCHEDULED</text><rect fill="#F1F1F1" height="35.0938" rx="12.5" ry="12.5" style="stroke:#181818;stroke-width:0.5;" width="222.1016" x="158.3916" y="1329.3594"/><text fill="#000000" font-family="sans-serif" font-size="12" lengthAdjust="spacing" textLength="202.1016" x="168.3916" y="1351.8164">Link meeting to WeeklyScheduleEntry</text><rect fill="#F1F1F1" height="35.0938" rx="12.5" ry="12.5" style="stroke:#181818;stroke-width:0.5;" width="210.7637" x="164.0605" y="1433.3711"/><text fill="#000000" font-family="sans-serif" font-size="12" lengthAdjust="spacing" textLength="190.7637" x="174.0605" y="1455.8281">Create MeetingSlot(date, start, end)</text><polygon fill="#F1F1F1" points="222.9744,1494.3711,315.9104,1494.3711,327.9104,1506.3711,315.9104,1518.3711,222.9744,1518.3711,210.9744,1506.3711,222.9744,1494.3711" style="stroke:#181818;stroke-width:0.5;stroke-linejoin:miter;stroke-miterlimit:10;"/><text fill="#000000" font-family="sans-serif" font-size="11" lengthAdjust="spacing" textLength="92.936" x="222.9744" y="1510.8721">Room is available?</text><text fill="#000000" font-family="sans-serif" font-size="11" lengthAdjust="spacing" textLength="17.1177" x="193.8567" y="1503.9541">yes</text><text fill="#000000" font-family="sans-serif" font-size="11" lengthAdjust="spacing" textLength="12.2354" x="327.9104" y="1503.9541">no</text><rect fill="#F1F1F1" height="35.0938" rx="12.5" ry="12.5" style="stroke:#181818;stroke-width:0.5;" width="134.7266" x="87.9058" y="1528.3711"/><text fill="#000000" font-family="sans-serif" font-size="12" lengthAdjust="spacing" textLength="114.7266" x="97.9058" y="1550.8281">Create RoomBooking</text><rect fill="#F1F1F1" height="35.0938" rx="12.5" ry="12.5" style="stroke:#181818;stroke-width:0.5;" width="126.0664" x="320.5825" y="1528.3711"/><text fill="#000000" font-family="sans-serif" font-size="12" lengthAdjust="spacing" textLength="106.0664" x="330.5825" y="1550.8281">Rollback generation</text><rect fill="#F1F1F1" height="35.0938" rx="12.5" ry="12.5" style="stroke:#181818;stroke-width:0.5;" width="281.9668" x="242.6323" y="1583.4648"/><text fill="#000000" font-family="sans-serif" font-size="12" lengthAdjust="spacing" textLength="261.9668" x="252.6323" y="1605.9219">Show "Room is already booked for this time slot."</text><ellipse cx="383.6157" cy="1649.5586" fill="none" rx="11" ry="11" style="stroke:#222222;stroke-width:1;"/><ellipse cx="383.6157" cy="1649.5586" fill="#222222" rx="6" ry="6" style="stroke:#222222;stroke-width:1;"/><polygon fill="#F1F1F1" points="189.3567,1384.4531,349.5281,1384.4531,361.5281,1396.4531,349.5281,1408.4531,189.3567,1408.4531,177.3567,1396.4531,189.3567,1384.4531" style="stroke:#181818;stroke-width:0.5;stroke-linejoin:miter;stroke-miterlimit:10;"/><text fill="#000000" font-family="sans-serif" font-size="11" lengthAdjust="spacing" textLength="17.1177" x="273.4424" y="1419.8721">yes</text><text fill="#000000" font-family="sans-serif" font-size="11" lengthAdjust="spacing" textLength="160.1714" x="189.3567" y="1400.9541">Meeting mode is CLASSROOM?</text><polygon fill="#F1F1F1" points="269.4424,1680.5586,281.4424,1692.5586,269.4424,1704.5586,257.4424,1692.5586,269.4424,1680.5586" style="stroke:#181818;stroke-width:0.5;stroke-linejoin:miter;stroke-miterlimit:10;"/><polygon fill="#F1F1F1" points="188.4355,1170.2539,350.4492,1170.2539,362.4492,1182.2539,350.4492,1194.2539,188.4355,1194.2539,176.4355,1182.2539,188.4355,1170.2539" style="stroke:#181818;stroke-width:0.5;stroke-linejoin:miter;stroke-miterlimit:10;"/><text fill="#000000" font-family="sans-serif" font-size="11" lengthAdjust="spacing" textLength="17.1177" x="273.4424" y="1205.6729">yes</text><text fill="#000000" font-family="sans-serif" font-size="11" lengthAdjust="spacing" textLength="162.0137" x="188.4355" y="1186.7549">Date matches entry.dayOfWeek?</text><polygon fill="#F1F1F1" points="269.4424,1724.5586,281.4424,1736.5586,269.4424,1748.5586,257.4424,1736.5586,269.4424,1724.5586" style="stroke:#181818;stroke-width:0.5;stroke-linejoin:miter;stroke-miterlimit:10;"/><polygon fill="#F1F1F1" points="269.4424,1126.2539,281.4424,1138.2539,269.4424,1150.2539,257.4424,1138.2539,269.4424,1126.2539" style="stroke:#181818;stroke-width:0.5;stroke-linejoin:miter;stroke-miterlimit:10;"/><polygon fill="#F1F1F1" points="214.7244,1768.5586,324.1604,1768.5586,336.1604,1780.5586,324.1604,1792.5586,214.7244,1792.5586,202.7244,1780.5586,214.7244,1768.5586" style="stroke:#181818;stroke-width:0.5;stroke-linejoin:miter;stroke-miterlimit:10;"/><text fill="#000000" font-family="sans-serif" font-size="11" lengthAdjust="spacing" textLength="109.436" x="214.7244" y="1785.0596">More semester dates?</text><text fill="#000000" font-family="sans-serif" font-size="11" lengthAdjust="spacing" textLength="17.1177" x="336.1604" y="1778.1416">yes</text><rect fill="#F1F1F1" height="35.0938" rx="12.5" ry="12.5" style="stroke:#181818;stroke-width:0.5;" width="222.1191" x="158.3828" y="1812.5586"/><text fill="#000000" font-family="sans-serif" font-size="12" lengthAdjust="spacing" textLength="202.1191" x="168.3828" y="1835.0156">Save generated ClassMeeting objects</text><rect fill="#F1F1F1" height="35.0938" rx="12.5" ry="12.5" style="stroke:#181818;stroke-width:0.5;" width="444.2598" x="47.3125" y="1867.6523"/><text fill="#000000" font-family="sans-serif" font-size="12" lengthAdjust="spacing" textLength="424.2598" x="57.3125" y="1890.1094">Generated meetings appear in Public Weekly Schedule and personal schedules</text><rect fill="#F1F1F1" height="35.0938" rx="12.5" ry="12.5" style="stroke:#181818;stroke-width:0.5;" width="192.1133" x="173.3857" y="1922.7461"/><text fill="#000000" font-family="sans-serif" font-size="12" lengthAdjust="spacing" textLength="172.1133" x="183.3857" y="1945.2031">Show generated meetings count</text><ellipse cx="269.4424" cy="1988.8398" fill="none" rx="11" ry="11" style="stroke:#222222;stroke-width:1;"/><ellipse cx="269.4424" cy="1988.8398" fill="#222222" rx="6" ry="6" style="stroke:#222222;stroke-width:1;"/><line style="stroke:#181818;stroke-width:1;" x1="269.4424" x2="269.4424" y1="73.6094" y2="93.6094"/><polygon fill="#181818" points="265.4424,83.6094,269.4424,93.6094,273.4424,83.6094,269.4424,87.6094" style="stroke:#181818;stroke-width:1;stroke-linejoin:miter;stroke-miterlimit:10;"/><line style="stroke:#181818;stroke-width:1;" x1="269.4424" x2="269.4424" y1="128.7031" y2="148.7031"/><polygon fill="#181818" points="265.4424,138.7031,269.4424,148.7031,273.4424,138.7031,269.4424,142.7031" style="stroke:#181818;stroke-width:1;stroke-linejoin:miter;stroke-miterlimit:10;"/><line style="stroke:#181818;stroke-width:1;" x1="269.4424" x2="269.4424" y1="183.7969" y2="203.7969"/><polygon fill="#181818" points="265.4424,193.7969,269.4424,203.7969,273.4424,193.7969,269.4424,197.7969" style="stroke:#181818;stroke-width:1;stroke-linejoin:miter;stroke-miterlimit:10;"/><line style="stroke:#181818;stroke-width:1;" x1="177.3567" x2="161.4067" y1="270.8906" y2="270.8906"/><line style="stroke:#181818;stroke-width:1;" x1="161.4067" x2="161.4067" y1="270.8906" y2="292.8906"/><polygon fill="#181818" points="157.4067,282.8906,161.4067,292.8906,165.4067,282.8906,161.4067,286.8906" style="stroke:#181818;stroke-width:1;stroke-linejoin:miter;stroke-miterlimit:10;"/><line style="stroke:#181818;stroke-width:1;" x1="361.5281" x2="377.478" y1="270.8906" y2="270.8906"/><line style="stroke:#181818;stroke-width:1;" x1="377.478" x2="377.478" y1="270.8906" y2="292.8906"/><polygon fill="#181818" points="373.478,282.8906,377.478,292.8906,381.478,282.8906,377.478,286.8906" style="stroke:#181818;stroke-width:1;stroke-linejoin:miter;stroke-miterlimit:10;"/><line style="stroke:#181818;stroke-width:1;" x1="161.4067" x2="161.4067" y1="327.9844" y2="345.9844"/><line style="stroke:#181818;stroke-width:1;" x1="161.4067" x2="257.4424" y1="345.9844" y2="345.9844"/><polygon fill="#181818" points="247.4424,341.9844,257.4424,345.9844,247.4424,349.9844,251.4424,345.9844" style="stroke:#181818;stroke-width:1;stroke-linejoin:miter;stroke-miterlimit:10;"/><line style="stroke:#181818;stroke-width:1;" x1="377.478" x2="377.478" y1="327.9844" y2="345.9844"/><line style="stroke:#181818;stroke-width:1;" x1="377.478" x2="281.4424" y1="345.9844" y2="345.9844"/><polygon fill="#181818" points="291.4424,341.9844,281.4424,345.9844,291.4424,349.9844,287.4424,345.9844" style="stroke:#181818;stroke-width:1;stroke-linejoin:miter;stroke-miterlimit:10;"/><line style="stroke:#181818;stroke-width:1;" x1="269.4424" x2="269.4424" y1="238.8906" y2="258.8906"/><polygon fill="#181818" points="265.4424,248.8906,269.4424,258.8906,273.4424,248.8906,269.4424,252.8906" style="stroke:#181818;stroke-width:1;stroke-linejoin:miter;stroke-miterlimit:10;"/><line style="stroke:#181818;stroke-width:1;" x1="269.4424" x2="269.4424" y1="357.9844" y2="377.9844"/><polygon fill="#181818" points="265.4424,367.9844,269.4424,377.9844,273.4424,367.9844,269.4424,371.9844" style="stroke:#181818;stroke-width:1;stroke-linejoin:miter;stroke-miterlimit:10;"/><line style="stroke:#181818;stroke-width:1;" x1="269.4424" x2="269.4424" y1="517.0898" y2="545.043"/><polygon fill="#181818" points="265.4424,535.043,269.4424,545.043,273.4424,535.043,269.4424,539.043" style="stroke:#181818;stroke-width:1;stroke-linejoin:miter;stroke-miterlimit:10;"/><line style="stroke:#181818;stroke-width:1;" x1="269.4424" x2="269.4424" y1="457.0781" y2="481.9961"/><polygon fill="#181818" points="265.4424,471.9961,269.4424,481.9961,273.4424,471.9961,269.4424,475.9961" style="stroke:#181818;stroke-width:1;stroke-linejoin:miter;stroke-miterlimit:10;"/><line style="stroke:#181818;stroke-width:1;" x1="334.0281" x2="346.0281" y1="445.0781" y2="445.0781"/><polygon fill="#181818" points="342.0281,515.043,346.0281,525.043,350.0281,515.043,346.0281,519.043" style="stroke:#181818;stroke-width:1;stroke-linejoin:miter;stroke-miterlimit:10;"/><line style="stroke:#181818;stroke-width:1;" x1="346.0281" x2="346.0281" y1="445.0781" y2="589.043"/><line style="stroke:#181818;stroke-width:1;" x1="346.0281" x2="269.4424" y1="589.043" y2="589.043"/><line style="stroke:#181818;stroke-width:1;" x1="269.4424" x2="269.4424" y1="589.043" y2="609.043"/><polygon fill="#181818" points="265.4424,599.043,269.4424,609.043,273.4424,599.043,269.4424,603.043" style="stroke:#181818;stroke-width:1;stroke-linejoin:miter;stroke-miterlimit:10;"/><line style="stroke:#181818;stroke-width:1;" x1="269.4424" x2="269.4424" y1="413.0781" y2="433.0781"/><polygon fill="#181818" points="265.4424,423.0781,269.4424,433.0781,273.4424,423.0781,269.4424,427.0781" style="stroke:#181818;stroke-width:1;stroke-linejoin:miter;stroke-miterlimit:10;"/><line style="stroke:#181818;stroke-width:1;" x1="269.4424" x2="269.4424" y1="693.0547" y2="721.0078"/><polygon fill="#181818" points="265.4424,711.0078,269.4424,721.0078,273.4424,711.0078,269.4424,715.0078" style="stroke:#181818;stroke-width:1;stroke-linejoin:miter;stroke-miterlimit:10;"/><line style="stroke:#181818;stroke-width:1;" x1="269.4424" x2="269.4424" y1="633.043" y2="657.9609"/><polygon fill="#181818" points="265.4424,647.9609,269.4424,657.9609,273.4424,647.9609,269.4424,651.9609" style="stroke:#181818;stroke-width:1;stroke-linejoin:miter;stroke-miterlimit:10;"/><line style="stroke:#181818;stroke-width:1;" x1="353.595" x2="428.7783" y1="621.043" y2="621.043"/><polygon fill="#181818" points="424.7783,691.0078,428.7783,701.0078,432.7783,691.0078,428.7783,695.0078" style="stroke:#181818;stroke-width:1;stroke-linejoin:miter;stroke-miterlimit:10;"/><line style="stroke:#181818;stroke-width:1;" x1="428.7783" x2="428.7783" y1="621.043" y2="765.0078"/><line style="stroke:#181818;stroke-width:1;" x1="428.7783" x2="269.4424" y1="765.0078" y2="765.0078"/><line style="stroke:#181818;stroke-width:1;" x1="269.4424" x2="269.4424" y1="765.0078" y2="785.0078"/><polygon fill="#181818" points="265.4424,775.0078,269.4424,785.0078,273.4424,775.0078,269.4424,779.0078" style="stroke:#181818;stroke-width:1;stroke-linejoin:miter;stroke-miterlimit:10;"/><line style="stroke:#181818;stroke-width:1;" x1="269.4424" x2="269.4424" y1="869.0195" y2="896.9727"/><polygon fill="#181818" points="265.4424,886.9727,269.4424,896.9727,273.4424,886.9727,269.4424,890.9727" style="stroke:#181818;stroke-width:1;stroke-linejoin:miter;stroke-miterlimit:10;"/><line style="stroke:#181818;stroke-width:1;" x1="269.4424" x2="269.4424" y1="809.0078" y2="833.9258"/><polygon fill="#181818" points="265.4424,823.9258,269.4424,833.9258,273.4424,823.9258,269.4424,827.9258" style="stroke:#181818;stroke-width:1;stroke-linejoin:miter;stroke-miterlimit:10;"/><line style="stroke:#181818;stroke-width:1;" x1="347.7808" x2="359.7808" y1="797.0078" y2="797.0078"/><polygon fill="#181818" points="355.7808,866.9727,359.7808,876.9727,363.7808,866.9727,359.7808,870.9727" style="stroke:#181818;stroke-width:1;stroke-linejoin:miter;stroke-miterlimit:10;"/><line style="stroke:#181818;stroke-width:1;" x1="359.7808" x2="359.7808" y1="797.0078" y2="940.9727"/><line style="stroke:#181818;stroke-width:1;" x1="359.7808" x2="269.4424" y1="940.9727" y2="940.9727"/><line style="stroke:#181818;stroke-width:1;" x1="269.4424" x2="269.4424" y1="940.9727" y2="960.9727"/><polygon fill="#181818" points="265.4424,950.9727,269.4424,960.9727,273.4424,950.9727,269.4424,954.9727" style="stroke:#181818;stroke-width:1;stroke-linejoin:miter;stroke-miterlimit:10;"/><line style="stroke:#181818;stroke-width:1;" x1="269.4424" x2="269.4424" y1="996.0664" y2="1016.0664"/><polygon fill="#181818" points="265.4424,1006.0664,269.4424,1016.0664,273.4424,1006.0664,269.4424,1010.0664" style="stroke:#181818;stroke-width:1;stroke-linejoin:miter;stroke-miterlimit:10;"/><line style="stroke:#181818;stroke-width:1;" x1="269.4424" x2="269.4424" y1="1051.1602" y2="1071.1602"/><polygon fill="#181818" points="265.4424,1061.1602,269.4424,1071.1602,273.4424,1061.1602,269.4424,1065.1602" style="stroke:#181818;stroke-width:1;stroke-linejoin:miter;stroke-miterlimit:10;"/><line style="stroke:#181818;stroke-width:1;" x1="269.4424" x2="269.4424" y1="1254.2656" y2="1274.2656"/><polygon fill="#181818" points="265.4424,1264.2656,269.4424,1274.2656,273.4424,1264.2656,269.4424,1268.2656" style="stroke:#181818;stroke-width:1;stroke-linejoin:miter;stroke-miterlimit:10;"/><line style="stroke:#181818;stroke-width:1;" x1="269.4424" x2="269.4424" y1="1309.3594" y2="1329.3594"/><polygon fill="#181818" points="265.4424,1319.3594,269.4424,1329.3594,273.4424,1319.3594,269.4424,1323.3594" style="stroke:#181818;stroke-width:1;stroke-linejoin:miter;stroke-miterlimit:10;"/><line style="stroke:#181818;stroke-width:1;" x1="383.6157" x2="383.6157" y1="1563.4648" y2="1583.4648"/><polygon fill="#181818" points="379.6157,1573.4648,383.6157,1583.4648,387.6157,1573.4648,383.6157,1577.4648" style="stroke:#181818;stroke-width:1;stroke-linejoin:miter;stroke-miterlimit:10;"/><line style="stroke:#181818;stroke-width:1;" x1="383.6157" x2="383.6157" y1="1618.5586" y2="1638.5586"/><polygon fill="#181818" points="379.6157,1628.5586,383.6157,1638.5586,387.6157,1628.5586,383.6157,1632.5586" style="stroke:#181818;stroke-width:1;stroke-linejoin:miter;stroke-miterlimit:10;"/><line style="stroke:#181818;stroke-width:1;" x1="210.9744" x2="155.269" y1="1506.3711" y2="1506.3711"/><line style="stroke:#181818;stroke-width:1;" x1="155.269" x2="155.269" y1="1506.3711" y2="1528.3711"/><polygon fill="#181818" points="151.269,1518.3711,155.269,1528.3711,159.269,1518.3711,155.269,1522.3711" style="stroke:#181818;stroke-width:1;stroke-linejoin:miter;stroke-miterlimit:10;"/><line style="stroke:#181818;stroke-width:1;" x1="327.9104" x2="383.6157" y1="1506.3711" y2="1506.3711"/><line style="stroke:#181818;stroke-width:1;" x1="383.6157" x2="383.6157" y1="1506.3711" y2="1528.3711"/><polygon fill="#181818" points="379.6157,1518.3711,383.6157,1528.3711,387.6157,1518.3711,383.6157,1522.3711" style="stroke:#181818;stroke-width:1;stroke-linejoin:miter;stroke-miterlimit:10;"/><line style="stroke:#181818;stroke-width:1;" x1="155.269" x2="155.269" y1="1563.4648" y2="1665.5586"/><line style="stroke:#181818;stroke-width:1;" x1="155.269" x2="269.4424" y1="1665.5586" y2="1665.5586"/><line style="stroke:#181818;stroke-width:1;" x1="269.4424" x2="269.4424" y1="1665.5586" y2="1680.5586"/><polygon fill="#181818" points="265.4424,1670.5586,269.4424,1680.5586,273.4424,1670.5586,269.4424,1674.5586" style="stroke:#181818;stroke-width:1;stroke-linejoin:miter;stroke-miterlimit:10;"/><line style="stroke:#181818;stroke-width:1;" x1="269.4424" x2="269.4424" y1="1468.4648" y2="1494.3711"/><polygon fill="#181818" points="265.4424,1484.3711,269.4424,1494.3711,273.4424,1484.3711,269.4424,1488.3711" style="stroke:#181818;stroke-width:1;stroke-linejoin:miter;stroke-miterlimit:10;"/><line style="stroke:#181818;stroke-width:1;" x1="269.4424" x2="269.4424" y1="1408.4531" y2="1433.3711"/><polygon fill="#181818" points="265.4424,1423.3711,269.4424,1433.3711,273.4424,1423.3711,269.4424,1427.3711" style="stroke:#181818;stroke-width:1;stroke-linejoin:miter;stroke-miterlimit:10;"/><line style="stroke:#181818;stroke-width:1;" x1="361.5281" x2="538.5991" y1="1396.4531" y2="1396.4531"/><polygon fill="#181818" points="534.5991,1550.418,538.5991,1560.418,542.5991,1550.418,538.5991,1554.418" style="stroke:#181818;stroke-width:1;stroke-linejoin:miter;stroke-miterlimit:10;"/><line style="stroke:#181818;stroke-width:1;" x1="538.5991" x2="538.5991" y1="1396.4531" y2="1692.5586"/><line style="stroke:#181818;stroke-width:1;" x1="538.5991" x2="281.4424" y1="1692.5586" y2="1692.5586"/><polygon fill="#181818" points="291.4424,1688.5586,281.4424,1692.5586,291.4424,1696.5586,287.4424,1692.5586" style="stroke:#181818;stroke-width:1;stroke-linejoin:miter;stroke-miterlimit:10;"/><line style="stroke:#181818;stroke-width:1;" x1="269.4424" x2="269.4424" y1="1364.4531" y2="1384.4531"/><polygon fill="#181818" points="265.4424,1374.4531,269.4424,1384.4531,273.4424,1374.4531,269.4424,1378.4531" style="stroke:#181818;stroke-width:1;stroke-linejoin:miter;stroke-miterlimit:10;"/><line style="stroke:#181818;stroke-width:1;" x1="269.4424" x2="269.4424" y1="1194.2539" y2="1219.1719"/><polygon fill="#181818" points="265.4424,1209.1719,269.4424,1219.1719,273.4424,1209.1719,269.4424,1213.1719" style="stroke:#181818;stroke-width:1;stroke-linejoin:miter;stroke-miterlimit:10;"/><line style="stroke:#181818;stroke-width:1;" x1="362.4492" x2="556.5991" y1="1182.2539" y2="1182.2539"/><polygon fill="#181818" points="552.5991,1454.3711,556.5991,1464.3711,560.5991,1454.3711,556.5991,1458.3711" style="stroke:#181818;stroke-width:1;stroke-linejoin:miter;stroke-miterlimit:10;"/><line style="stroke:#181818;stroke-width:1;" x1="556.5991" x2="556.5991" y1="1182.2539" y2="1736.5586"/><line style="stroke:#181818;stroke-width:1;" x1="556.5991" x2="281.4424" y1="1736.5586" y2="1736.5586"/><polygon fill="#181818" points="291.4424,1732.5586,281.4424,1736.5586,291.4424,1740.5586,287.4424,1736.5586" style="stroke:#181818;stroke-width:1;stroke-linejoin:miter;stroke-miterlimit:10;"/><line style="stroke:#181818;stroke-width:1;" x1="269.4424" x2="269.4424" y1="1704.5586" y2="1724.5586"/><polygon fill="#181818" points="265.4424,1714.5586,269.4424,1724.5586,273.4424,1714.5586,269.4424,1718.5586" style="stroke:#181818;stroke-width:1;stroke-linejoin:miter;stroke-miterlimit:10;"/><line style="stroke:#181818;stroke-width:1;" x1="269.4424" x2="269.4424" y1="1150.2539" y2="1170.2539"/><polygon fill="#181818" points="265.4424,1160.2539,269.4424,1170.2539,273.4424,1160.2539,269.4424,1164.2539" style="stroke:#181818;stroke-width:1;stroke-linejoin:miter;stroke-miterlimit:10;"/><line style="stroke:#181818;stroke-width:1;" x1="336.1604" x2="574.5991" y1="1780.5586" y2="1780.5586"/><polygon fill="#181818" points="570.5991,1474.3711,574.5991,1464.3711,578.5991,1474.3711,574.5991,1470.3711" style="stroke:#181818;stroke-width:1;stroke-linejoin:miter;stroke-miterlimit:10;"/><line style="stroke:#181818;stroke-width:1;" x1="574.5991" x2="574.5991" y1="1138.2539" y2="1780.5586"/><line style="stroke:#181818;stroke-width:1;" x1="574.5991" x2="281.4424" y1="1138.2539" y2="1138.2539"/><polygon fill="#181818" points="291.4424,1134.2539,281.4424,1138.2539,291.4424,1142.2539,287.4424,1138.2539" style="stroke:#181818;stroke-width:1;stroke-linejoin:miter;stroke-miterlimit:10;"/><line style="stroke:#181818;stroke-width:1;" x1="269.4424" x2="269.4424" y1="1748.5586" y2="1768.5586"/><polygon fill="#181818" points="265.4424,1758.5586,269.4424,1768.5586,273.4424,1758.5586,269.4424,1762.5586" style="stroke:#181818;stroke-width:1;stroke-linejoin:miter;stroke-miterlimit:10;"/><line style="stroke:#181818;stroke-width:1;" x1="269.4424" x2="269.4424" y1="1106.2539" y2="1126.2539"/><polygon fill="#181818" points="265.4424,1116.2539,269.4424,1126.2539,273.4424,1116.2539,269.4424,1120.2539" style="stroke:#181818;stroke-width:1;stroke-linejoin:miter;stroke-miterlimit:10;"/><line style="stroke:#181818;stroke-width:1;" x1="269.4424" x2="269.4424" y1="1792.5586" y2="1812.5586"/><polygon fill="#181818" points="265.4424,1802.5586,269.4424,1812.5586,273.4424,1802.5586,269.4424,1806.5586" style="stroke:#181818;stroke-width:1;stroke-linejoin:miter;stroke-miterlimit:10;"/><line style="stroke:#181818;stroke-width:1;" x1="269.4424" x2="269.4424" y1="1847.6523" y2="1867.6523"/><polygon fill="#181818" points="265.4424,1857.6523,269.4424,1867.6523,273.4424,1857.6523,269.4424,1861.6523" style="stroke:#181818;stroke-width:1;stroke-linejoin:miter;stroke-miterlimit:10;"/><line style="stroke:#181818;stroke-width:1;" x1="269.4424" x2="269.4424" y1="1902.7461" y2="1922.7461"/><polygon fill="#181818" points="265.4424,1912.7461,269.4424,1922.7461,273.4424,1912.7461,269.4424,1916.7461" style="stroke:#181818;stroke-width:1;stroke-linejoin:miter;stroke-miterlimit:10;"/><line style="stroke:#181818;stroke-width:1;" x1="269.4424" x2="269.4424" y1="1957.8398" y2="1977.8398"/><polygon fill="#181818" points="265.4424,1967.8398,269.4424,1977.8398,273.4424,1967.8398,269.4424,1971.8398" style="stroke:#181818;stroke-width:1;stroke-linejoin:miter;stroke-miterlimit:10;"/><?plantuml-src bLN1Rjim3BtxAuYUKg3h1zI78Kk2Ra3I3FM6dMMBIRJ8aYlHwVptesJPTT8CnN98REdnyL5yL4YHHfXNf4wAEbWgiNUYXa_m2_6eEoYg0ygM8Ij3heEvaR3GmdlO898oUtX4WqwGiYRBF0b7MVOmbxKooXElMmUsGSDuOSGUBsbzdZqKdIUiGIhVQD5vm3yS6gXxx03j1JYih9CXx3m96aBdOUziszo1nngPrF5JM_x6Ykw0K30HhrHHFdKDta6TYgYjv3SfEiQf6lCiKpkORIQxe3mirlEYUDvkDvzlWGveODQXlyq0BhHur9pIWxEspZFK7c6sVLf_UrfT0IVXrcXbS1J4BqSEDLBjtfrdfLLrz5284rxlKfB_Z2-jSYXXfr1B3oUXbJoNtcipDkeg3lQr1yLs0ZfdNSuxdcmpQ0d4F_gZX9UMmKpE6KBL_Kb_bE1cYEO3DPOc96Jx9d4yxoMw-vjh2efWjDWgA96J8n-ZZEyVfOyn7nNvC3dRC_lb_-X56W8ydus9kHN5VSyU2zybqYkooi6dzt5obe51S27ZCki9YznGXmqAOfsX_0Yi1R4q7mpakdlsxdON55zwamjVE1or3PuE7QkigHpoZemv8hP0kZ8pQQpIqCHXOSNKiWiNNrVBd-lLCiMlsRYZYxcZLmynGlzhmgPrfA12Mve5vL6BOxbyMhTv0iS1uFaBhE8ab1QbnckiRxm1_iNQ8tCFB5F_9F2prReKrH7suyMNl-ts5XyJQsQM7PJCcgOaUZkQqBF-tjtz9nemfOqsd3xrlxq9uFMWUDHdc-3xmIgziRX0fk_BIovECb6Uzz_65WU7Few0r3RMtN0Udb03tzkI7VxkcWacRVZQiaPeyDExFDI_VyzOsTPG7luXRFCN?></g></svg>