<svg xmlns="http://www.w3.org/2000/svg" xmlns:xlink="http://www.w3.org/1999/xlink" contentStyleType="text/css" data-diagram-type="ACTIVITY" height="1139px" preserveAspectRatio="none" style="width:857px;height:1139px;background:#FFFFFF;" version="1.1" viewBox="0 0 857 1139" width="857px" zoomAndPan="magnify"><?plantuml 1.2026.5?><defs/><g><g class="title" data-source-line="1"><text fill="#000000" font-family="sans-serif" font-size="14" font-weight="700" lengthAdjust="spacing" textLength="348.4893" x="253.6987" y="34.5332">Activity Diagram - Login And Role-Based Navigation</text></g><ellipse cx="505.3662" cy="63.6094" fill="#222222" rx="10" ry="10" style="stroke:#222222;stroke-width:1;"/><rect fill="#F1F1F1" height="35.0938" rx="12.5" ry="12.5" style="stroke:#181818;stroke-width:0.5;" width="142.0742" x="434.3291" y="93.6094"/><text fill="#000000" font-family="sans-serif" font-size="12" lengthAdjust="spacing" textLength="122.0742" x="444.3291" y="116.0664">User opens application</text><rect fill="#F1F1F1" height="35.0938" rx="12.5" ry="12.5" style="stroke:#181818;stroke-width:0.5;" width="165.4004" x="422.666" y="148.7031"/><text fill="#000000" font-family="sans-serif" font-size="12" lengthAdjust="spacing" textLength="145.4004" x="432.666" y="171.1602">System displays LoginView</text><rect fill="#F1F1F1" height="35.0938" rx="12.5" ry="12.5" style="stroke:#181818;stroke-width:0.5;" width="192.0781" x="409.3271" y="247.7969"/><text fill="#000000" font-family="sans-serif" font-size="12" lengthAdjust="spacing" textLength="172.0781" x="419.3271" y="270.2539">User enters email and password</text><rect fill="#F1F1F1" height="35.0938" rx="12.5" ry="12.5" style="stroke:#181818;stroke-width:0.5;" width="110.6973" x="450.0176" y="302.8906"/><text fill="#000000" font-family="sans-serif" font-size="12" lengthAdjust="spacing" textLength="90.6973" x="460.0176" y="325.3477">User clicks Login</text><rect fill="#F1F1F1" height="35.0938" rx="12.5" ry="12.5" style="stroke:#181818;stroke-width:0.5;" width="300.7988" x="354.9668" y="357.9844"/><text fill="#000000" font-family="sans-serif" font-size="12" lengthAdjust="spacing" textLength="280.7988" x="364.9668" y="380.4414">AuthenticationService checks email in Person.emails</text><rect fill="#F1F1F1" height="35.0938" rx="12.5" ry="12.5" style="stroke:#181818;stroke-width:0.5;" width="238.0918" x="386.3203" y="413.0781"/><text fill="#000000" font-family="sans-serif" font-size="12" lengthAdjust="spacing" textLength="218.0918" x="396.3203" y="435.5352">PasswordService verifies password hash</text><polygon fill="#F1F1F1" points="461.6482,468.1719,549.0842,468.1719,561.0842,480.1719,549.0842,492.1719,461.6482,492.1719,449.6482,480.1719,461.6482,468.1719" style="stroke:#181818;stroke-width:0.5;stroke-linejoin:miter;stroke-miterlimit:10;"/><text fill="#000000" font-family="sans-serif" font-size="11" lengthAdjust="spacing" textLength="87.436" x="461.6482" y="484.6729">Credentials valid?</text><text fill="#000000" font-family="sans-serif" font-size="11" lengthAdjust="spacing" textLength="17.1177" x="432.5305" y="477.7549">yes</text><text fill="#000000" font-family="sans-serif" font-size="11" lengthAdjust="spacing" textLength="12.2354" x="561.0842" y="477.7549">no</text><rect fill="#F1F1F1" height="35.0938" rx="12.5" ry="12.5" style="stroke:#181818;stroke-width:0.5;" width="234.1191" x="185.085" y="502.1719"/><text fill="#000000" font-family="sans-serif" font-size="12" lengthAdjust="spacing" textLength="214.1191" x="195.085" y="524.6289">SessionContext stores logged-in Person</text><rect fill="#F1F1F1" height="35.0938" rx="12.5" ry="12.5" style="stroke:#181818;stroke-width:0.5;" width="161.4102" x="221.4395" y="557.2656"/><text fill="#000000" font-family="sans-serif" font-size="12" lengthAdjust="spacing" textLength="141.4102" x="231.4395" y="579.7227">System opens MainLayout</text><rect fill="#F1F1F1" height="35.0938" rx="12.5" ry="12.5" style="stroke:#181818;stroke-width:0.5;" width="239.4512" x="182.4189" y="612.3594"/><text fill="#000000" font-family="sans-serif" font-size="12" lengthAdjust="spacing" textLength="219.4512" x="192.4189" y="634.8164">System displays logged-in name and role</text><polygon fill="#F1F1F1" points="96.0134,683.2305,124.7542,683.2305,136.7542,695.2305,124.7542,707.2305,96.0134,707.2305,84.0134,695.2305,96.0134,683.2305" style="stroke:#181818;stroke-width:0.5;stroke-linejoin:miter;stroke-miterlimit:10;"/><text fill="#000000" font-family="sans-serif" font-size="11" lengthAdjust="spacing" textLength="37.9199" x="114.3838" y="718.6494">Student</text><text fill="#000000" font-family="sans-serif" font-size="11" lengthAdjust="spacing" textLength="28.7407" x="96.0134" y="699.7314">Role?</text><rect fill="#F1F1F1" height="35.0938" rx="12.5" ry="12.5" style="stroke:#181818;stroke-width:0.5;" width="157.4082" x="31.6797" y="741.0664"/><text fill="#000000" font-family="sans-serif" font-size="12" lengthAdjust="spacing" textLength="137.4082" x="41.6797" y="763.5234">Show common navigation</text><rect fill="#F1F1F1" height="35.0938" rx="12.5" ry="12.5" style="stroke:#181818;stroke-width:0.5;" width="130.748" x="45.0098" y="811.1602"/><text fill="#000000" font-family="sans-serif" font-size="12" lengthAdjust="spacing" textLength="110.748" x="55.0098" y="833.6172">Show Student pages</text><rect fill="#F1F1F1" height="35.0938" rx="12.5" ry="12.5" style="stroke:#181818;stroke-width:0.5;" width="188.7676" x="16" y="881.2539"/><text fill="#000000" font-family="sans-serif" font-size="12" lengthAdjust="spacing" textLength="168.7676" x="26" y="903.7109">Hide Teacher and Admin pages</text><polygon fill="#F1F1F1" points="297.6477,683.2305,338.0007,683.2305,350.0007,695.2305,338.0007,707.2305,297.6477,707.2305,285.6477,695.2305,297.6477,683.2305" style="stroke:#181818;stroke-width:0.5;stroke-linejoin:miter;stroke-miterlimit:10;"/><text fill="#000000" font-family="sans-serif" font-size="11" lengthAdjust="spacing" textLength="40.353" x="297.6477" y="699.7314">Teacher</text><text fill="#000000" font-family="sans-serif" font-size="11" lengthAdjust="spacing" textLength="64.7969" x="350.0007" y="692.8135">Administrator</text><rect fill="#F1F1F1" height="35.0938" rx="12.5" ry="12.5" style="stroke:#181818;stroke-width:0.5;" width="157.4082" x="239.1201" y="727.2305"/><text fill="#000000" font-family="sans-serif" font-size="12" lengthAdjust="spacing" textLength="137.4082" x="249.1201" y="749.6875">Show common navigation</text><rect fill="#F1F1F1" height="35.0938" rx="12.5" ry="12.5" style="stroke:#181818;stroke-width:0.5;" width="133.4023" x="251.123" y="797.3242"/><text fill="#000000" font-family="sans-serif" font-size="12" lengthAdjust="spacing" textLength="113.4023" x="261.123" y="819.7813">Show Teacher pages</text><rect fill="#F1F1F1" height="35.0938" rx="12.5" ry="12.5" style="stroke:#181818;stroke-width:0.5;" width="186.1133" x="224.7676" y="867.418"/><text fill="#000000" font-family="sans-serif" font-size="12" lengthAdjust="spacing" textLength="166.1133" x="234.7676" y="889.875">Hide Student and Admin pages</text><rect fill="#F1F1F1" height="35.0938" rx="12.5" ry="12.5" style="stroke:#181818;stroke-width:0.5;" width="157.4082" x="430.8809" y="772.1953"/><text fill="#000000" font-family="sans-serif" font-size="12" lengthAdjust="spacing" textLength="137.4082" x="440.8809" y="794.6523">Show common navigation</text><rect fill="#F1F1F1" height="35.0938" rx="12.5" ry="12.5" style="stroke:#181818;stroke-width:0.5;" width="123.3945" x="447.8877" y="842.2891"/><text fill="#000000" font-family="sans-serif" font-size="12" lengthAdjust="spacing" textLength="103.3945" x="457.8877" y="864.7461">Show Admin pages</text><rect fill="#F1F1F1" height="35.0938" rx="12.5" ry="12.5" style="stroke:#181818;stroke-width:0.5;" width="230.457" x="186.916" y="956.3477"/><text fill="#000000" font-family="sans-serif" font-size="12" lengthAdjust="spacing" textLength="210.457" x="196.916" y="978.8047">Default page = Public Weekly Schedule</text><ellipse cx="302.1445" cy="1022.4414" fill="none" rx="11" ry="11" style="stroke:#222222;stroke-width:1;"/><ellipse cx="302.1445" cy="1022.4414" fill="#222222" rx="6" ry="6" style="stroke:#222222;stroke-width:1;"/><rect fill="#F1F1F1" height="35.0938" rx="12.5" ry="12.5" style="stroke:#181818;stroke-width:0.5;" width="200.5977" x="608.2891" y="502.1719"/><text fill="#000000" font-family="sans-serif" font-size="12" lengthAdjust="spacing" textLength="180.5977" x="618.2891" y="524.6289">Show "Invalid email or password."</text><polygon fill="#F1F1F1" points="505.3662,203.7969,517.3662,215.7969,505.3662,227.7969,493.3662,215.7969,505.3662,203.7969" style="stroke:#181818;stroke-width:0.5;stroke-linejoin:miter;stroke-miterlimit:10;"/><polygon fill="#F1F1F1" points="463.7913,1053.4414,546.9412,1053.4414,558.9412,1065.4414,546.9412,1077.4414,463.7913,1077.4414,451.7913,1065.4414,463.7913,1053.4414" style="stroke:#181818;stroke-width:0.5;stroke-linejoin:miter;stroke-miterlimit:10;"/><text fill="#000000" font-family="sans-serif" font-size="11" lengthAdjust="spacing" textLength="83.1499" x="463.7913" y="1069.9424">User tries again?</text><text fill="#000000" font-family="sans-serif" font-size="11" lengthAdjust="spacing" textLength="17.1177" x="558.9412" y="1063.0244">yes</text><ellipse cx="505.3662" cy="1108.4414" fill="none" rx="11" ry="11" style="stroke:#222222;stroke-width:1;"/><ellipse cx="505.3662" cy="1108.4414" fill="#222222" rx="6" ry="6" style="stroke:#222222;stroke-width:1;"/><line style="stroke:#181818;stroke-width:1;" x1="505.3662" x2="505.3662" y1="73.6094" y2="93.6094"/><polygon fill="#181818" points="501.3662,83.6094,505.3662,93.6094,509.3662,83.6094,505.3662,87.6094" style="stroke:#181818;stroke-width:1;stroke-linejoin:miter;stroke-miterlimit:10;"/><line style="stroke:#181818;stroke-width:1;" x1="505.3662" x2="505.3662" y1="128.7031" y2="148.7031"/><polygon fill="#181818" points="501.3662,138.7031,505.3662,148.7031,509.3662,138.7031,505.3662,142.7031" style="stroke:#181818;stroke-width:1;stroke-linejoin:miter;stroke-miterlimit:10;"/><line style="stroke:#181818;stroke-width:1;" x1="505.3662" x2="505.3662" y1="282.8906" y2="302.8906"/><polygon fill="#181818" points="501.3662,292.8906,505.3662,302.8906,509.3662,292.8906,505.3662,296.8906" style="stroke:#181818;stroke-width:1;stroke-linejoin:miter;stroke-miterlimit:10;"/><line style="stroke:#181818;stroke-width:1;" x1="505.3662" x2="505.3662" y1="337.9844" y2="357.9844"/><polygon fill="#181818" points="501.3662,347.9844,505.3662,357.9844,509.3662,347.9844,505.3662,351.9844" style="stroke:#181818;stroke-width:1;stroke-linejoin:miter;stroke-miterlimit:10;"/><line style="stroke:#181818;stroke-width:1;" x1="505.3662" x2="505.3662" y1="393.0781" y2="413.0781"/><polygon fill="#181818" points="501.3662,403.0781,505.3662,413.0781,509.3662,403.0781,505.3662,407.0781" style="stroke:#181818;stroke-width:1;stroke-linejoin:miter;stroke-miterlimit:10;"/><line style="stroke:#181818;stroke-width:1;" x1="302.1445" x2="302.1445" y1="537.2656" y2="557.2656"/><polygon fill="#181818" points="298.1445,547.2656,302.1445,557.2656,306.1445,547.2656,302.1445,551.2656" style="stroke:#181818;stroke-width:1;stroke-linejoin:miter;stroke-miterlimit:10;"/><line style="stroke:#181818;stroke-width:1;" x1="302.1445" x2="302.1445" y1="592.3594" y2="612.3594"/><polygon fill="#181818" points="298.1445,602.3594,302.1445,612.3594,306.1445,602.3594,302.1445,606.3594" style="stroke:#181818;stroke-width:1;stroke-linejoin:miter;stroke-miterlimit:10;"/><line style="stroke:#181818;stroke-width:1;" x1="110.3838" x2="110.3838" y1="776.1602" y2="811.1602"/><polygon fill="#181818" points="106.3838,801.1602,110.3838,811.1602,114.3838,801.1602,110.3838,805.1602" style="stroke:#181818;stroke-width:1;stroke-linejoin:miter;stroke-miterlimit:10;"/><line style="stroke:#181818;stroke-width:1;" x1="110.3838" x2="110.3838" y1="846.2539" y2="881.2539"/><polygon fill="#181818" points="106.3838,871.2539,110.3838,881.2539,114.3838,871.2539,110.3838,875.2539" style="stroke:#181818;stroke-width:1;stroke-linejoin:miter;stroke-miterlimit:10;"/><line style="stroke:#181818;stroke-width:1;" x1="317.8242" x2="317.8242" y1="762.3242" y2="797.3242"/><polygon fill="#181818" points="313.8242,787.3242,317.8242,797.3242,321.8242,787.3242,317.8242,791.3242" style="stroke:#181818;stroke-width:1;stroke-linejoin:miter;stroke-miterlimit:10;"/><line style="stroke:#181818;stroke-width:1;" x1="317.8242" x2="317.8242" y1="832.418" y2="867.418"/><polygon fill="#181818" points="313.8242,857.418,317.8242,867.418,321.8242,857.418,317.8242,861.418" style="stroke:#181818;stroke-width:1;stroke-linejoin:miter;stroke-miterlimit:10;"/><line style="stroke:#181818;stroke-width:1;" x1="509.585" x2="509.585" y1="807.2891" y2="842.2891"/><polygon fill="#181818" points="505.585,832.2891,509.585,842.2891,513.585,832.2891,509.585,836.2891" style="stroke:#181818;stroke-width:1;stroke-linejoin:miter;stroke-miterlimit:10;"/><line style="stroke:#181818;stroke-width:1;" x1="110.3838" x2="110.3838" y1="707.2305" y2="741.0664"/><polygon fill="#181818" points="106.3838,731.0664,110.3838,741.0664,114.3838,731.0664,110.3838,735.0664" style="stroke:#181818;stroke-width:1;stroke-linejoin:miter;stroke-miterlimit:10;"/><line style="stroke:#181818;stroke-width:1;" x1="110.3838" x2="110.3838" y1="916.3477" y2="936.3477"/><polygon fill="#181818" points="106.3838,926.3477,110.3838,936.3477,114.3838,926.3477,110.3838,930.3477" style="stroke:#181818;stroke-width:1;stroke-linejoin:miter;stroke-miterlimit:10;"/><line style="stroke:#181818;stroke-width:1;" x1="317.8242" x2="317.8242" y1="707.2305" y2="727.2305"/><polygon fill="#181818" points="313.8242,717.2305,317.8242,727.2305,321.8242,717.2305,317.8242,721.2305" style="stroke:#181818;stroke-width:1;stroke-linejoin:miter;stroke-miterlimit:10;"/><line style="stroke:#181818;stroke-width:1;" x1="317.8242" x2="317.8242" y1="902.5117" y2="936.3477"/><polygon fill="#181818" points="313.8242,926.3477,317.8242,936.3477,321.8242,926.3477,317.8242,930.3477" style="stroke:#181818;stroke-width:1;stroke-linejoin:miter;stroke-miterlimit:10;"/><line style="stroke:#181818;stroke-width:1;" x1="136.7542" x2="285.6477" y1="695.2305" y2="695.2305"/><polygon fill="#181818" points="275.6477,691.2305,285.6477,695.2305,275.6477,699.2305,279.6477,695.2305" style="stroke:#181818;stroke-width:1;stroke-linejoin:miter;stroke-miterlimit:10;"/><line style="stroke:#181818;stroke-width:1;" x1="302.1445" x2="302.1445" y1="647.4531" y2="668.2305"/><line style="stroke:#181818;stroke-width:1;" x1="302.1445" x2="110.3838" y1="668.2305" y2="668.2305"/><line style="stroke:#181818;stroke-width:1;" x1="110.3838" x2="110.3838" y1="668.2305" y2="683.2305"/><polygon fill="#181818" points="106.3838,673.2305,110.3838,683.2305,114.3838,673.2305,110.3838,677.2305" style="stroke:#181818;stroke-width:1;stroke-linejoin:miter;stroke-miterlimit:10;"/><line style="stroke:#181818;stroke-width:1;" x1="350.0007" x2="509.585" y1="695.2305" y2="695.2305"/><line style="stroke:#181818;stroke-width:1;" x1="509.585" x2="509.585" y1="695.2305" y2="772.1953"/><polygon fill="#181818" points="505.585,762.1953,509.585,772.1953,513.585,762.1953,509.585,766.1953" style="stroke:#181818;stroke-width:1;stroke-linejoin:miter;stroke-miterlimit:10;"/><line style="stroke:#181818;stroke-width:1;" x1="509.585" x2="509.585" y1="877.3828" y2="936.3477"/><polygon fill="#181818" points="505.585,926.3477,509.585,936.3477,513.585,926.3477,509.585,930.3477" style="stroke:#181818;stroke-width:1;stroke-linejoin:miter;stroke-miterlimit:10;"/><line style="stroke:#181818;stroke-width:1;" x1="110.3838" x2="509.585" y1="936.3477" y2="936.3477"/><line style="stroke:#181818;stroke-width:1;" x1="302.1445" x2="302.1445" y1="936.3477" y2="956.3477"/><polygon fill="#181818" points="298.1445,946.3477,302.1445,956.3477,306.1445,946.3477,302.1445,950.3477" style="stroke:#181818;stroke-width:1;stroke-linejoin:miter;stroke-miterlimit:10;"/><line style="stroke:#181818;stroke-width:1;" x1="302.1445" x2="302.1445" y1="991.4414" y2="1011.4414"/><polygon fill="#181818" points="298.1445,1001.4414,302.1445,1011.4414,306.1445,1001.4414,302.1445,1005.4414" style="stroke:#181818;stroke-width:1;stroke-linejoin:miter;stroke-miterlimit:10;"/><line style="stroke:#181818;stroke-width:1;" x1="449.6482" x2="302.1445" y1="480.1719" y2="480.1719"/><line style="stroke:#181818;stroke-width:1;" x1="302.1445" x2="302.1445" y1="480.1719" y2="502.1719"/><polygon fill="#181818" points="298.1445,492.1719,302.1445,502.1719,306.1445,492.1719,302.1445,496.1719" style="stroke:#181818;stroke-width:1;stroke-linejoin:miter;stroke-miterlimit:10;"/><line style="stroke:#181818;stroke-width:1;" x1="561.0842" x2="708.5879" y1="480.1719" y2="480.1719"/><line style="stroke:#181818;stroke-width:1;" x1="708.5879" x2="708.5879" y1="480.1719" y2="502.1719"/><polygon fill="#181818" points="704.5879,492.1719,708.5879,502.1719,712.5879,492.1719,708.5879,496.1719" style="stroke:#181818;stroke-width:1;stroke-linejoin:miter;stroke-miterlimit:10;"/><line style="stroke:#181818;stroke-width:1;" x1="708.5879" x2="708.5879" y1="537.2656" y2="1038.4414"/><line style="stroke:#181818;stroke-width:1;" x1="708.5879" x2="505.3662" y1="1038.4414" y2="1038.4414"/><line style="stroke:#181818;stroke-width:1;" x1="505.3662" x2="505.3662" y1="1038.4414" y2="1053.4414"/><polygon fill="#181818" points="501.3662,1043.4414,505.3662,1053.4414,509.3662,1043.4414,505.3662,1047.4414" style="stroke:#181818;stroke-width:1;stroke-linejoin:miter;stroke-miterlimit:10;"/><line style="stroke:#181818;stroke-width:1;" x1="505.3662" x2="505.3662" y1="448.1719" y2="468.1719"/><polygon fill="#181818" points="501.3662,458.1719,505.3662,468.1719,509.3662,458.1719,505.3662,462.1719" style="stroke:#181818;stroke-width:1;stroke-linejoin:miter;stroke-miterlimit:10;"/><line style="stroke:#181818;stroke-width:1;" x1="505.3662" x2="505.3662" y1="227.7969" y2="247.7969"/><polygon fill="#181818" points="501.3662,237.7969,505.3662,247.7969,509.3662,237.7969,505.3662,241.7969" style="stroke:#181818;stroke-width:1;stroke-linejoin:miter;stroke-miterlimit:10;"/><line style="stroke:#181818;stroke-width:1;" x1="558.9412" x2="822.8867" y1="1065.4414" y2="1065.4414"/><polygon fill="#181818" points="818.8867,663.2305,822.8867,653.2305,826.8867,663.2305,822.8867,659.2305" style="stroke:#181818;stroke-width:1;stroke-linejoin:miter;stroke-miterlimit:10;"/><line style="stroke:#181818;stroke-width:1;" x1="822.8867" x2="822.8867" y1="215.7969" y2="1065.4414"/><line style="stroke:#181818;stroke-width:1;" x1="822.8867" x2="517.3662" y1="215.7969" y2="215.7969"/><polygon fill="#181818" points="527.3662,211.7969,517.3662,215.7969,527.3662,219.7969,523.3662,215.7969" style="stroke:#181818;stroke-width:1;stroke-linejoin:miter;stroke-miterlimit:10;"/><line style="stroke:#181818;stroke-width:1;" x1="505.3662" x2="505.3662" y1="183.7969" y2="203.7969"/><polygon fill="#181818" points="501.3662,193.7969,505.3662,203.7969,509.3662,193.7969,505.3662,197.7969" style="stroke:#181818;stroke-width:1;stroke-linejoin:miter;stroke-miterlimit:10;"/><line style="stroke:#181818;stroke-width:1;" x1="505.3662" x2="505.3662" y1="1077.4414" y2="1097.4414"/><polygon fill="#181818" points="501.3662,1087.4414,505.3662,1097.4414,509.3662,1087.4414,505.3662,1091.4414" style="stroke:#181818;stroke-width:1;stroke-linejoin:miter;stroke-miterlimit:10;"/><?plantuml-src bLFBRjmm3BpxAuYSDeVD1wmH5Dlaq09fiEZsSMOjhar4bWnHzjP_NqgotGPj3pbA96T6mr7aQ0cEJUI9umoFZ6t07lRmv5jsS7G6FdjB-_SePE0P9sunidTL9H53hAh3Lw40VY0dWCDWkSdrkZgSPudKWs4PBCvI4BynNUkg2ZGGnWgWZ9EB50IeHxQ0oZcWoDK7KsyjZIA_B23vzZZ6JkSMlZE5YHk2fgFKLf3q0IV5zUukdoNFdHReTMAYm1ScsJYXG-bK8m1VOFSGo2GQj08JMZRlRY4HmsuckTKcXJoJY6fuyFgCdn4a-g1urhSjcVqcebwQYot5iK_8xWbdFyRNrSsqto0EUyhU1Dr7bbS4flLicivnJ6gBhWJN-Iiqlkzz0bYNLxygBpFw_fPaAtrWG_25K0qDcVPeUbNnHnDPeIHWQNeJvmhy3yvLpdyvOPUlMM90TVfDl7y3EiENOkRXaIuusc84tCDf_A6PW-z4BtQ6i-erOt8-zUgAXsgLu_oQWqHnyz7bd2mPz64BrjrD6YwCvGF0jMFzVhkSy1XI2h7LIEW-MPQ4LOdh5m00?></g></svg>