<svg xmlns="http://www.w3.org/2000/svg" xmlns:xlink="http://www.w3.org/1999/xlink" contentStyleType="text/css" data-diagram-type="CLASS" height="1276px" preserveAspectRatio="none" style="width:2062px;height:1276px;background:#FFFFFF;" version="1.1" viewBox="0 0 2062 1276" width="2062px" zoomAndPan="magnify"><?plantuml 1.2026.5?><defs/><g><g class="title" data-source-line="1"><text fill="#000000" font-family="sans-serif" font-size="14" font-weight="700" lengthAdjust="spacing" textLength="423.2471" x="816.2554" y="24.5332">Design Class Diagram - Readable Layered Implementation View</text></g><!--class GuiLayer--><g class="entity" data-qualified-name="GuiLayer" data-source-line="10" id="ent0001"><rect fill="#F1F1F1" height="278.0156" rx="2.5" ry="2.5" style="stroke:#181818;stroke-width:0.5;" width="208.1094" x="104.5" y="521.1094"/><text fill="#000000" font-family="sans-serif" font-size="12" font-style="italic" lengthAdjust="spacing" textLength="39.3574" x="188.876" y="538.5664">&#171;layer&#187;</text><text fill="#000000" font-family="sans-serif" font-size="14" lengthAdjust="spacing" textLength="115.1514" x="150.979" y="555.7363">JavaFX GUI Layer</text><line style="stroke:#181818;stroke-width:0.5;" x1="105.5" x2="311.6094" y1="563.8125" y2="563.8125"/><text fill="#000000" font-family="sans-serif" font-size="14" lengthAdjust="spacing" textLength="117.5303" x="110.5" y="582.3457">AttendanceGuiApp</text><line style="stroke:#181818;stroke-width:1;" x1="105.5" x2="311.6094" y1="589.4219" y2="589.4219"/><text fill="#000000" font-family="sans-serif" font-size="14" lengthAdjust="spacing" textLength="66.1514" x="110.5" y="607.9551">Login view</text><text fill="#000000" font-family="sans-serif" font-size="14" lengthAdjust="spacing" textLength="71.5928" x="110.5" y="625.5645">Main layout</text><text fill="#000000" font-family="sans-serif" font-size="14" lengthAdjust="spacing" textLength="144.7441" x="110.5" y="643.1738">Public weekly schedule</text><text fill="#000000" font-family="sans-serif" font-size="14" lengthAdjust="spacing" textLength="133.0615" x="110.5" y="660.7832">Class meeting details</text><text fill="#000000" font-family="sans-serif" font-size="14" lengthAdjust="spacing" textLength="196.1094" x="110.5" y="678.3926">GroupStudentsAssociationView</text><text fill="#000000" font-family="sans-serif" font-size="14" lengthAdjust="spacing" textLength="174.3027" x="110.5" y="696.002">AdminWeeklyScheduleView</text><text fill="#000000" font-family="sans-serif" font-size="14" lengthAdjust="spacing" textLength="139.2822" x="110.5" y="713.6113">AdminNotificationView</text><text fill="#000000" font-family="sans-serif" font-size="14" lengthAdjust="spacing" textLength="189.0889" x="110.5" y="731.2207">AdminRoomManagementView</text><text fill="#000000" font-family="sans-serif" font-size="14" lengthAdjust="spacing" textLength="112.0479" x="110.5" y="748.8301">AdminReportView</text><line style="stroke:#181818;stroke-width:1;" x1="105.5" x2="311.6094" y1="755.9063" y2="755.9063"/><text fill="#000000" font-family="sans-serif" font-size="14" lengthAdjust="spacing" textLength="98.8408" x="110.5" y="774.4395">AttendanceRow</text><text fill="#000000" font-family="sans-serif" font-size="14" lengthAdjust="spacing" textLength="96.4961" x="110.5" y="792.0488">ReportLineRow</text></g><!--class ServiceLayer--><g class="entity" data-qualified-name="ServiceLayer" data-source-line="27" id="ent0002"><rect fill="#F1F1F1" height="340.4531" rx="2.5" ry="2.5" style="stroke:#181818;stroke-width:0.5;" width="209.6543" x="466" y="490.1094"/><text fill="#000000" font-family="sans-serif" font-size="12" font-style="italic" lengthAdjust="spacing" textLength="39.3574" x="551.1484" y="507.5664">&#171;layer&#187;</text><text fill="#000000" font-family="sans-serif" font-size="14" lengthAdjust="spacing" textLength="85.5928" x="528.0308" y="524.7363">Service Layer</text><line style="stroke:#181818;stroke-width:0.5;" x1="467" x2="674.6543" y1="532.8125" y2="532.8125"/><text fill="#000000" font-family="sans-serif" font-size="14" lengthAdjust="spacing" textLength="135.4131" x="472" y="551.3457">AuthenticationService</text><text fill="#000000" font-family="sans-serif" font-size="14" lengthAdjust="spacing" textLength="108.1514" x="472" y="568.9551">PasswordService</text><text fill="#000000" font-family="sans-serif" font-size="14" lengthAdjust="spacing" textLength="98.0547" x="472" y="586.5645">SessionContext</text><text fill="#000000" font-family="sans-serif" font-size="14" lengthAdjust="spacing" textLength="152.5234" x="472" y="604.1738">PersonalSettingsService</text><text fill="#000000" font-family="sans-serif" font-size="14" lengthAdjust="spacing" textLength="150.1855" x="472" y="621.7832">ScheduleAccessService</text><text fill="#000000" font-family="sans-serif" font-size="14" lengthAdjust="spacing" textLength="131.4961" x="472" y="639.3926">ClassMeetingService</text><text fill="#000000" font-family="sans-serif" font-size="14" lengthAdjust="spacing" textLength="192.2197" x="472" y="657.002">AttendanceRegistrationService</text><text fill="#000000" font-family="sans-serif" font-size="14" lengthAdjust="spacing" textLength="159.5371" x="472" y="674.6113">AttendanceReportService</text><text fill="#000000" font-family="sans-serif" font-size="14" lengthAdjust="spacing" textLength="129.165" x="472" y="692.2207">ReportExportService</text><text fill="#000000" font-family="sans-serif" font-size="14" lengthAdjust="spacing" textLength="174.3301" x="472" y="709.8301">ScheduleGenerationService</text><text fill="#000000" font-family="sans-serif" font-size="14" lengthAdjust="spacing" textLength="106.5996" x="472" y="727.4395">EntityService&lt;T&gt;</text><text fill="#000000" font-family="sans-serif" font-size="14" lengthAdjust="spacing" textLength="84.0273" x="472" y="745.0488">RoomService</text><text fill="#000000" font-family="sans-serif" font-size="14" lengthAdjust="spacing" textLength="134.6201" x="472" y="762.6582">RoomBookingService</text><text fill="#000000" font-family="sans-serif" font-size="14" lengthAdjust="spacing" textLength="115.9375" x="472" y="780.2676">NotificationService</text><text fill="#000000" font-family="sans-serif" font-size="14" lengthAdjust="spacing" textLength="197.6543" x="472" y="797.877">NotificationManagementService</text><text fill="#000000" font-family="sans-serif" font-size="14" lengthAdjust="spacing" textLength="109.7168" x="472" y="815.4863">SystemScheduler</text><line style="stroke:#181818;stroke-width:0.5;" x1="467" x2="674.6543" y1="822.5625" y2="822.5625"/></g><!--class PersistenceLayer--><g class="entity" data-qualified-name="PersistenceLayer" data-source-line="46" id="ent0003"><rect fill="#F1F1F1" height="287.625" rx="2.5" ry="2.5" style="stroke:#181818;stroke-width:0.5;" width="244.6748" x="1085.5" y="159.1094"/><text fill="#000000" font-family="sans-serif" font-size="12" font-style="italic" lengthAdjust="spacing" textLength="39.3574" x="1188.1587" y="176.5664">&#171;layer&#187;</text><text fill="#000000" font-family="sans-serif" font-size="14" lengthAdjust="spacing" textLength="112.0547" x="1151.8101" y="193.7363">Persistence Layer</text><line style="stroke:#181818;stroke-width:0.5;" x1="1086.5" x2="1329.1748" y1="201.8125" y2="201.8125"/><text fill="#000000" font-family="sans-serif" font-size="14" lengthAdjust="spacing" textLength="42.793" x="1091.5" y="220.3457">JpaUtil</text><text fill="#000000" font-family="sans-serif" font-size="14" lengthAdjust="spacing" textLength="150.9717" x="1091.5" y="237.9551">JpaTransactionManager</text><text fill="#000000" font-family="sans-serif" font-size="14" lengthAdjust="spacing" textLength="140.8408" x="1091.5" y="255.5645">GenericRepository&lt;T&gt;</text><text fill="#000000" font-family="sans-serif" font-size="14" lengthAdjust="spacing" textLength="111.2754" x="1091.5" y="273.1738">PersonRepository</text><text fill="#000000" font-family="sans-serif" font-size="14" lengthAdjust="spacing" textLength="154.0889" x="1091.5" y="290.7832">StudentGroupRepository</text><text fill="#000000" font-family="sans-serif" font-size="14" lengthAdjust="spacing" textLength="151.7305" x="1091.5" y="308.3926">ClassMeetingRepository</text><text fill="#000000" font-family="sans-serif" font-size="14" lengthAdjust="spacing" textLength="137.751" x="1091.5" y="326.002">AttendanceRepository</text><text fill="#000000" font-family="sans-serif" font-size="14" lengthAdjust="spacing" textLength="179.7715" x="1091.5" y="343.6113">AttendanceReportRepository</text><text fill="#000000" font-family="sans-serif" font-size="14" lengthAdjust="spacing" textLength="203.8682" x="1091.5" y="361.2207">WeeklyScheduleEntryRepository</text><text fill="#000000" font-family="sans-serif" font-size="14" lengthAdjust="spacing" textLength="104.2617" x="1091.5" y="378.8301">RoomRepository</text><text fill="#000000" font-family="sans-serif" font-size="14" lengthAdjust="spacing" textLength="154.8545" x="1091.5" y="396.4395">RoomBookingRepository</text><text fill="#000000" font-family="sans-serif" font-size="14" lengthAdjust="spacing" textLength="136.1719" x="1091.5" y="414.0488">NotificationRepository</text><text fill="#000000" font-family="sans-serif" font-size="14" lengthAdjust="spacing" textLength="232.6748" x="1091.5" y="431.6582">ScheduledNotificationTaskRepository</text><line style="stroke:#181818;stroke-width:0.5;" x1="1086.5" x2="1329.1748" y1="438.7344" y2="438.7344"/></g><!--class DomainLayer--><g class="entity" data-qualified-name="DomainLayer" data-source-line="62" id="ent0004"><rect fill="#F1F1F1" height="340.4531" rx="2.5" ry="2.5" style="stroke:#181818;stroke-width:0.5;" width="177.7578" x="1870" y="286.1094"/><text fill="#000000" font-family="sans-serif" font-size="12" font-style="italic" lengthAdjust="spacing" textLength="39.3574" x="1939.2002" y="303.5664">&#171;layer&#187;</text><text fill="#000000" font-family="sans-serif" font-size="14" lengthAdjust="spacing" textLength="156.3994" x="1880.6792" y="320.7363">Persistent Domain Model</text><line style="stroke:#181818;stroke-width:0.5;" x1="1871" x2="2046.7578" y1="328.8125" y2="328.8125"/><text fill="#000000" font-family="sans-serif" font-size="14" lengthAdjust="spacing" textLength="44.3584" x="1876" y="347.3457">Person</text><text fill="#000000" font-family="sans-serif" font-size="14" lengthAdjust="spacing" textLength="48.2617" x="1876" y="364.9551">Student</text><text fill="#000000" font-family="sans-serif" font-size="14" lengthAdjust="spacing" textLength="51.3584" x="1876" y="382.5645">Teacher</text><text fill="#000000" font-family="sans-serif" font-size="14" lengthAdjust="spacing" textLength="82.4688" x="1876" y="400.1738">Administrator</text><text fill="#000000" font-family="sans-serif" font-size="14" lengthAdjust="spacing" textLength="87.1719" x="1876" y="417.7832">StudentGroup</text><text fill="#000000" font-family="sans-serif" font-size="14" lengthAdjust="spacing" textLength="46.6963" x="1876" y="435.3926">Subject</text><text fill="#000000" font-family="sans-serif" font-size="14" lengthAdjust="spacing" textLength="59.9102" x="1876" y="453.002">Semester</text><text fill="#000000" font-family="sans-serif" font-size="14" lengthAdjust="spacing" textLength="136.9512" x="1876" y="470.6113">WeeklyScheduleEntry</text><text fill="#000000" font-family="sans-serif" font-size="14" lengthAdjust="spacing" textLength="84.8135" x="1876" y="488.2207">ClassMeeting</text><text fill="#000000" font-family="sans-serif" font-size="14" lengthAdjust="spacing" textLength="70.834" x="1876" y="505.8301">Attendance</text><text fill="#000000" font-family="sans-serif" font-size="14" lengthAdjust="spacing" textLength="112.8545" x="1876" y="523.4395">AttendanceReport</text><text fill="#000000" font-family="sans-serif" font-size="14" lengthAdjust="spacing" textLength="68.4893" x="1876" y="541.0488">ReportLine</text><text fill="#000000" font-family="sans-serif" font-size="14" lengthAdjust="spacing" textLength="37.3447" x="1876" y="558.6582">Room</text><text fill="#000000" font-family="sans-serif" font-size="14" lengthAdjust="spacing" textLength="87.9375" x="1876" y="576.2676">RoomBooking</text><text fill="#000000" font-family="sans-serif" font-size="14" lengthAdjust="spacing" textLength="69.2549" x="1876" y="593.877">Notification</text><text fill="#000000" font-family="sans-serif" font-size="14" lengthAdjust="spacing" textLength="165.7578" x="1876" y="611.4863">ScheduledNotificationTask</text><line style="stroke:#181818;stroke-width:0.5;" x1="1871" x2="2046.7578" y1="618.5625" y2="618.5625"/></g><!--class AuthenticationService--><g class="entity" data-qualified-name="AuthenticationService" data-source-line="85" id="ent0008"><rect fill="#F1F1F1" height="114.0469" rx="2.5" ry="2.5" style="stroke:#181818;stroke-width:0.5;" width="152.0547" x="796" y="321.1094"/><text fill="#000000" font-family="sans-serif" font-size="14" lengthAdjust="spacing" textLength="135.4131" x="804.3208" y="340.6426">AuthenticationService</text><line style="stroke:#181818;stroke-width:0.5;" x1="797" x2="947.0547" y1="348.7188" y2="348.7188"/><line style="stroke:#181818;stroke-width:0.5;" x1="797" x2="947.0547" y1="356.7188" y2="356.7188"/><text fill="#000000" font-family="sans-serif" font-size="14" lengthAdjust="spacing" textLength="140.0547" x="802" y="375.252">login(email, password)</text><text fill="#000000" font-family="sans-serif" font-size="14" lengthAdjust="spacing" textLength="67.6963" x="802" y="392.8613">isStudent()</text><text fill="#000000" font-family="sans-serif" font-size="14" lengthAdjust="spacing" textLength="70.793" x="802" y="410.4707">isTeacher()</text><text fill="#000000" font-family="sans-serif" font-size="14" lengthAdjust="spacing" textLength="59.1172" x="802" y="428.0801">isAdmin()</text></g><!--class AttendanceReportService--><g class="entity" data-qualified-name="AttendanceReportService" data-source-line="92" id="ent0009"><rect fill="#F1F1F1" height="78.8281" rx="2.5" ry="2.5" style="stroke:#181818;stroke-width:0.5;" width="213.5439" x="1101" y="620.6094"/><text fill="#000000" font-family="sans-serif" font-size="14" lengthAdjust="spacing" textLength="159.5371" x="1128.0034" y="640.1426">AttendanceReportService</text><line style="stroke:#181818;stroke-width:0.5;" x1="1102" x2="1313.5439" y1="648.2188" y2="648.2188"/><line style="stroke:#181818;stroke-width:0.5;" x1="1102" x2="1313.5439" y1="656.2188" y2="656.2188"/><text fill="#000000" font-family="sans-serif" font-size="14" lengthAdjust="spacing" textLength="133.0615" x="1107" y="674.752">generateReport(filter)</text><text fill="#000000" font-family="sans-serif" font-size="14" lengthAdjust="spacing" textLength="201.5439" x="1107" y="692.3613">buildConclusionMessage(report)</text></g><!--class AttendanceRegistrationService--><g class="entity" data-qualified-name="AttendanceRegistrationService" data-source-line="97" id="ent0010"><rect fill="#F1F1F1" height="61.2188" rx="2.5" ry="2.5" style="stroke:#181818;stroke-width:0.5;" width="220.5508" x="1097.5" y="764.6094"/><text fill="#000000" font-family="sans-serif" font-size="14" lengthAdjust="spacing" textLength="192.2197" x="1111.6655" y="784.1426">AttendanceRegistrationService</text><line style="stroke:#181818;stroke-width:0.5;" x1="1098.5" x2="1317.0508" y1="792.2188" y2="792.2188"/><line style="stroke:#181818;stroke-width:0.5;" x1="1098.5" x2="1317.0508" y1="800.2188" y2="800.2188"/><text fill="#000000" font-family="sans-serif" font-size="14" lengthAdjust="spacing" textLength="208.5508" x="1103.5" y="818.752">saveAttendance(meetingId, rows)</text></g><!--class ScheduleGenerationService--><g class="entity" data-qualified-name="ScheduleGenerationService" data-source-line="101" id="ent0011"><rect fill="#F1F1F1" height="61.2188" rx="2.5" ry="2.5" style="stroke:#181818;stroke-width:0.5;" width="280.4404" x="732" y="500.6094"/><text fill="#000000" font-family="sans-serif" font-size="14" lengthAdjust="spacing" textLength="174.3301" x="785.0552" y="520.1426">ScheduleGenerationService</text><line style="stroke:#181818;stroke-width:0.5;" x1="733" x2="1011.4404" y1="528.2188" y2="528.2188"/><line style="stroke:#181818;stroke-width:0.5;" x1="733" x2="1011.4404" y1="536.2188" y2="536.2188"/><text fill="#000000" font-family="sans-serif" font-size="14" lengthAdjust="spacing" textLength="268.4404" x="738" y="554.752">generateClassMeetingsForSemester(entry)</text></g><!--class RoomBookingService--><g class="entity" data-qualified-name="RoomBookingService" data-source-line="105" id="ent0012"><rect fill="#F1F1F1" height="78.8281" rx="2.5" ry="2.5" style="stroke:#181818;stroke-width:0.5;" width="183.9648" x="780" y="45.6094"/><text fill="#000000" font-family="sans-serif" font-size="14" lengthAdjust="spacing" textLength="134.6201" x="804.6724" y="65.1426">RoomBookingService</text><line style="stroke:#181818;stroke-width:0.5;" x1="781" x2="962.9648" y1="73.2188" y2="73.2188"/><line style="stroke:#181818;stroke-width:0.5;" x1="781" x2="962.9648" y1="81.2188" y2="81.2188"/><text fill="#000000" font-family="sans-serif" font-size="14" lengthAdjust="spacing" textLength="171.9648" x="786" y="99.752">createBooking(roomId, slot)</text><text fill="#000000" font-family="sans-serif" font-size="14" lengthAdjust="spacing" textLength="149.3857" x="786" y="117.3613">isAvailable(roomId, slot)</text></g><!--class EntityService--><g class="entity" data-qualified-name="EntityService" data-source-line="110" id="ent0013"><rect fill="#F1F1F1" height="96.4375" rx="2.5" ry="2.5" style="stroke:#181818;stroke-width:0.5;" width="99.0264" x="1158.5" y="975.1094"/><text fill="#000000" font-family="sans-serif" font-size="14" lengthAdjust="spacing" textLength="81.6963" x="1161.5" y="994.6426">EntityService</text><rect fill="#FFFFFF" height="17.0938" style="stroke:#181818;stroke-width:1;stroke-dasharray:2,2;" width="9.3301" x="1251.1963" y="972.1094"/><text fill="#000000" font-family="sans-serif" font-size="12" font-style="italic" lengthAdjust="spacing" textLength="7.3301" x="1252.1963" y="985.5664">T</text><line style="stroke:#181818;stroke-width:0.5;" x1="1159.5" x2="1256.5264" y1="1002.7188" y2="1002.7188"/><line style="stroke:#181818;stroke-width:0.5;" x1="1159.5" x2="1256.5264" y1="1010.7188" y2="1010.7188"/><text fill="#000000" font-family="sans-serif" font-size="14" lengthAdjust="spacing" textLength="66.1445" x="1164.5" y="1029.252">add(entity)</text><text fill="#000000" font-family="sans-serif" font-size="14" lengthAdjust="spacing" textLength="85.6064" x="1164.5" y="1046.8613">update(entity)</text><text fill="#000000" font-family="sans-serif" font-size="14" lengthAdjust="spacing" textLength="58.3652" x="1164.5" y="1064.4707">delete(id)</text></g><!--class RoomService--><g class="entity" data-qualified-name="RoomService" data-source-line="116" id="ent0014"><rect fill="#F1F1F1" height="78.8281" rx="2.5" ry="2.5" style="stroke:#181818;stroke-width:0.5;" width="281.9922" x="731" y="1020.6094"/><text fill="#000000" font-family="sans-serif" font-size="14" lengthAdjust="spacing" textLength="84.0273" x="829.9824" y="1040.1426">RoomService</text><line style="stroke:#181818;stroke-width:0.5;" x1="732" x2="1011.9922" y1="1048.2188" y2="1048.2188"/><line style="stroke:#181818;stroke-width:0.5;" x1="732" x2="1011.9922" y1="1056.2188" y2="1056.2188"/><text fill="#000000" font-family="sans-serif" font-size="14" lengthAdjust="spacing" textLength="226.4063" x="737" y="1074.752">createRoom(roomNumber, capacity)</text><text fill="#000000" font-family="sans-serif" font-size="14" lengthAdjust="spacing" textLength="269.9922" x="737" y="1092.3613">updateRoom(room, roomNumber, capacity)</text></g><!--class NotificationManagementService--><g class="entity" data-qualified-name="NotificationManagementService" data-source-line="121" id="ent0015"><rect fill="#F1F1F1" height="96.4375" rx="2.5" ry="2.5" style="stroke:#181818;stroke-width:0.5;" width="203.6543" x="770" y="1165.1094"/><text fill="#000000" font-family="sans-serif" font-size="14" lengthAdjust="spacing" textLength="197.6543" x="773" y="1184.6426">NotificationManagementService</text><line style="stroke:#181818;stroke-width:0.5;" x1="771" x2="972.6543" y1="1192.7188" y2="1192.7188"/><line style="stroke:#181818;stroke-width:0.5;" x1="771" x2="972.6543" y1="1200.7188" y2="1200.7188"/><text fill="#000000" font-family="sans-serif" font-size="14" lengthAdjust="spacing" textLength="164.165" x="776" y="1219.252">createSystemNotification()</text><text fill="#000000" font-family="sans-serif" font-size="14" lengthAdjust="spacing" textLength="171.9922" x="776" y="1236.8613">updateEditableNotification()</text><text fill="#000000" font-family="sans-serif" font-size="14" lengthAdjust="spacing" textLength="170.4268" x="776" y="1254.4707">cancelPendingNotification()</text></g><!--class JpaTransactionManager--><g class="entity" data-qualified-name="JpaTransactionManager" data-source-line="127" id="ent0016"><rect fill="#F1F1F1" height="78.8281" rx="2.5" ry="2.5" style="stroke:#181818;stroke-width:0.5;" width="156.9717" x="1880.5" y="964.6094"/><text fill="#000000" font-family="sans-serif" font-size="14" lengthAdjust="spacing" textLength="150.9717" x="1883.5" y="984.1426">JpaTransactionManager</text><line style="stroke:#181818;stroke-width:0.5;" x1="1881.5" x2="2036.4717" y1="992.2188" y2="992.2188"/><line style="stroke:#181818;stroke-width:0.5;" x1="1881.5" x2="2036.4717" y1="1000.2188" y2="1000.2188"/><text fill="#000000" font-family="sans-serif" font-size="14" lengthAdjust="spacing" textLength="87.917" x="1886.5" y="1018.752">execute(work)</text><text fill="#000000" font-family="sans-serif" font-size="14" lengthAdjust="spacing" textLength="115.9375" x="1886.5" y="1036.3613">executeVoid(work)</text></g><!--class StudentGroupRepository--><g class="entity" data-qualified-name="StudentGroupRepository" data-source-line="132" id="ent0017"><rect fill="#F1F1F1" height="61.2188" rx="2.5" ry="2.5" style="stroke:#181818;stroke-width:0.5;" width="160.0889" x="1529" y="119.6094"/><text fill="#000000" font-family="sans-serif" font-size="14" lengthAdjust="spacing" textLength="154.0889" x="1532" y="139.1426">StudentGroupRepository</text><line style="stroke:#181818;stroke-width:0.5;" x1="1530" x2="1688.0889" y1="147.2188" y2="147.2188"/><line style="stroke:#181818;stroke-width:0.5;" x1="1530" x2="1688.0889" y1="155.2188" y2="155.2188"/><text fill="#000000" font-family="sans-serif" font-size="14" lengthAdjust="spacing" textLength="130.7168" x="1535" y="173.752">findAllWithStudents()</text></g><!--class ClassMeetingRepository--><g class="entity" data-qualified-name="ClassMeetingRepository" data-source-line="136" id="ent0018"><rect fill="#F1F1F1" height="78.8281" rx="2.5" ry="2.5" style="stroke:#181818;stroke-width:0.5;" width="239.1787" x="1489.5" y="485.6094"/><text fill="#000000" font-family="sans-serif" font-size="14" lengthAdjust="spacing" textLength="151.7305" x="1533.2241" y="505.1426">ClassMeetingRepository</text><line style="stroke:#181818;stroke-width:0.5;" x1="1490.5" x2="1727.6787" y1="513.2188" y2="513.2188"/><line style="stroke:#181818;stroke-width:0.5;" x1="1490.5" x2="1727.6787" y1="521.2188" y2="521.2188"/><text fill="#000000" font-family="sans-serif" font-size="14" lengthAdjust="spacing" textLength="227.1787" x="1495.5" y="539.752">findClassMeetingsForCurrentWeek()</text><text fill="#000000" font-family="sans-serif" font-size="14" lengthAdjust="spacing" textLength="147.8135" x="1495.5" y="557.3613">findByReportFilter(filter)</text></g><!--class AttendanceRepository--><g class="entity" data-qualified-name="AttendanceRepository" data-source-line="141" id="ent0019"><rect fill="#F1F1F1" height="61.2188" rx="2.5" ry="2.5" style="stroke:#181818;stroke-width:0.5;" width="181.6201" x="1518" y="629.6094"/><text fill="#000000" font-family="sans-serif" font-size="14" lengthAdjust="spacing" textLength="137.751" x="1539.9346" y="649.1426">AttendanceRepository</text><line style="stroke:#181818;stroke-width:0.5;" x1="1519" x2="1698.6201" y1="657.2188" y2="657.2188"/><line style="stroke:#181818;stroke-width:0.5;" x1="1519" x2="1698.6201" y1="665.2188" y2="665.2188"/><text fill="#000000" font-family="sans-serif" font-size="14" lengthAdjust="spacing" textLength="169.6201" x="1524" y="683.752">findByClassMeetingIds(ids)</text></g><!--class GenericRepository--><g class="entity" data-qualified-name="GenericRepository" data-source-line="145" id="ent0020"><rect fill="#F1F1F1" height="131.6563" rx="2.5" ry="2.5" style="stroke:#181818;stroke-width:0.5;" width="133.2676" x="1542.5" y="793.1094"/><text fill="#000000" font-family="sans-serif" font-size="14" lengthAdjust="spacing" textLength="115.9375" x="1545.5" y="812.6426">GenericRepository</text><rect fill="#FFFFFF" height="17.0938" style="stroke:#181818;stroke-width:1;stroke-dasharray:2,2;" width="9.3301" x="1669.4375" y="790.1094"/><text fill="#000000" font-family="sans-serif" font-size="12" font-style="italic" lengthAdjust="spacing" textLength="7.3301" x="1670.4375" y="803.5664">T</text><line style="stroke:#181818;stroke-width:0.5;" x1="1543.5" x2="1674.7676" y1="820.7188" y2="820.7188"/><line style="stroke:#181818;stroke-width:0.5;" x1="1543.5" x2="1674.7676" y1="828.7188" y2="828.7188"/><text fill="#000000" font-family="sans-serif" font-size="14" lengthAdjust="spacing" textLength="59.9102" x="1548.5" y="847.252">findById()</text><text fill="#000000" font-family="sans-serif" font-size="14" lengthAdjust="spacing" textLength="47.4551" x="1548.5" y="864.8613">findAll()</text><text fill="#000000" font-family="sans-serif" font-size="14" lengthAdjust="spacing" textLength="38.8965" x="1548.5" y="882.4707">save()</text><text fill="#000000" font-family="sans-serif" font-size="14" lengthAdjust="spacing" textLength="52.1445" x="1548.5" y="900.0801">update()</text><text fill="#000000" font-family="sans-serif" font-size="14" lengthAdjust="spacing" textLength="47.4688" x="1548.5" y="917.6895">delete()</text></g><!--class NotificationRepository--><g class="entity" data-qualified-name="NotificationRepository" data-source-line="176" id="ent0043"><rect fill="#F1F1F1" height="43.6094" rx="2.5" ry="2.5" style="stroke:#181818;stroke-width:0.5;" width="142.1719" x="1137" y="1191.1094"/><text fill="#000000" font-family="sans-serif" font-size="14" lengthAdjust="spacing" textLength="136.1719" x="1140" y="1210.6426">NotificationRepository</text><line style="stroke:#181818;stroke-width:0.5;" x1="1138" x2="1278.1719" y1="1218.7188" y2="1218.7188"/><line style="stroke:#181818;stroke-width:0.5;" x1="1138" x2="1278.1719" y1="1226.7188" y2="1226.7188"/></g><!--class JpaUtil--><g class="entity" data-qualified-name="JpaUtil" data-source-line="180" id="ent0048"><rect fill="#F1F1F1" height="43.6094" rx="2.5" ry="2.5" style="stroke:#181818;stroke-width:0.5;" width="48.793" x="1934.5" y="837.1094"/><text fill="#000000" font-family="sans-serif" font-size="14" lengthAdjust="spacing" textLength="42.793" x="1937.5" y="856.6426">JpaUtil</text><line style="stroke:#181818;stroke-width:0.5;" x1="1935.5" x2="1982.293" y1="864.7188" y2="864.7188"/><line style="stroke:#181818;stroke-width:0.5;" x1="1935.5" x2="1982.293" y1="872.7188" y2="872.7188"/></g><g class="entity" data-qualified-name="GMN51" data-source-line="184" id="ent0052"><path d="M6,864.6094 L6,923.6641 A0,0 0 0 0 6,923.6641 L410.7095,923.6641 A0,0 0 0 0 410.7095,923.6641 L410.7095,874.6094 L400.7095,864.6094 L213,864.6094 L209,799.2694 L205,864.6094 L6,864.6094 A0,0 0 0 0 6,864.6094" fill="#FEFFDD" style="stroke:#181818;stroke-width:0.5;"/><path d="M400.7095,864.6094 L400.7095,874.6094 L410.7095,874.6094 L400.7095,864.6094" fill="#FEFFDD" style="stroke:#181818;stroke-width:0.5;"/><text fill="#000000" font-family="sans-serif" font-size="13" lengthAdjust="spacing" textLength="373.5913" x="12" y="883.1045">The current JavaFX code builds views inside AttendanceGuiApp.</text><text fill="#000000" font-family="sans-serif" font-size="13" lengthAdjust="spacing" textLength="383.7095" x="12" y="899.4561">Role-based navigation makes Student, Teacher, and Administrator</text><text fill="#000000" font-family="sans-serif" font-size="13" lengthAdjust="spacing" textLength="234.8569" x="12" y="915.8076">functions visibly different during defence.</text></g><g class="entity" data-qualified-name="GMN54" data-source-line="190" id="ent0055"><path d="M1403,245.6094 L1403,288.3125 A0,0 0 0 0 1403,288.3125 L1814.9585,288.3125 A0,0 0 0 0 1814.9585,288.3125 L1814.9585,255.6094 L1804.9585,245.6094 L1613,245.6094 L1609,180.8494 L1605,245.6094 L1403,245.6094 A0,0 0 0 0 1403,245.6094" fill="#FEFFDD" style="stroke:#181818;stroke-width:0.5;"/><path d="M1804.9585,245.6094 L1804.9585,255.6094 L1814.9585,255.6094 L1804.9585,245.6094" fill="#FEFFDD" style="stroke:#181818;stroke-width:0.5;"/><text fill="#000000" font-family="sans-serif" font-size="13" lengthAdjust="spacing" textLength="294.0679" x="1409" y="264.1045">UAMS group view is implemented by findAllWithStudents()</text><text fill="#000000" font-family="sans-serif" font-size="13" lengthAdjust="spacing" textLength="390.9585" x="1409" y="280.4561">and StudentGroup.getStudents() in GroupStudentsAssociationView.</text></g><g class="entity" data-qualified-name="GMN57" data-source-line="195" id="ent0058"><path d="M1068,512.6094 L1068,555.3125 A0,0 0 0 0 1068,555.3125 L1347.6924,555.3125 A0,0 0 0 0 1347.6924,555.3125 L1347.6924,522.6094 L1337.6924,512.6094 L1172,512.6094 L1168,447.4394 L1164,512.6094 L1068,512.6094 A0,0 0 0 0 1068,512.6094" fill="#FEFFDD" style="stroke:#181818;stroke-width:0.5;"/><path d="M1337.6924,512.6094 L1337.6924,522.6094 L1347.6924,522.6094 L1337.6924,512.6094" fill="#FEFFDD" style="stroke:#181818;stroke-width:0.5;"/><text fill="#000000" font-family="sans-serif" font-size="13" lengthAdjust="spacing" textLength="258.6924" x="1074" y="531.1045">Manual JPA/Hibernate repositories are used.</text><text fill="#000000" font-family="sans-serif" font-size="13" lengthAdjust="spacing" textLength="107.6753" x="1074" y="547.4561">Spring is not used.</text></g><!--link GuiLayer to ServiceLayer--><g class="link" data-entity-1="ent0001" data-entity-2="ent0002" data-link-type="dependency" data-source-line="81" id="lnk5"><path codeLine="81" d="M312.86,660.1094 C360.87,660.1094 412.7,660.1094 460.8,660.1094" fill="none" id="GuiLayer-to-ServiceLayer" style="stroke:#181818;stroke-width:1;"/><polygon fill="#181818" points="465.8,660.1094,456.8,656.1094,460.8,660.1094,456.8,664.1094,465.8,660.1094" style="stroke:#181818;stroke-width:1;stroke-linejoin:miter;stroke-miterlimit:10;"/><text fill="#000000" font-family="sans-serif" font-size="13" lengthAdjust="spacing" textLength="77.2954" x="311.33" y="674.6045">calls services</text></g><!--link ServiceLayer to PersistenceLayer--><g class="link" data-entity-1="ent0002" data-entity-2="ent0003" data-link-type="dependency" data-source-line="82" id="lnk6"><path codeLine="82" d="M571,490.0894 C571,460.5594 571,439.1094 571,439.1094 C571,439.1094 895.08,439.1094 1080.18,439.1094" fill="none" id="ServiceLayer-to-PersistenceLayer" style="stroke:#181818;stroke-width:1;"/><polygon fill="#181818" points="1085.18,439.1094,1076.18,435.1094,1080.18,439.1094,1076.18,443.1094,1085.18,439.1094" style="stroke:#181818;stroke-width:1;stroke-linejoin:miter;stroke-miterlimit:10;"/><text fill="#000000" font-family="sans-serif" font-size="13" lengthAdjust="spacing" textLength="98.2681" x="703.6" y="453.6045">uses repositories</text></g><!--link PersistenceLayer to DomainLayer--><g class="link" data-entity-1="ent0003" data-entity-2="ent0004" data-link-type="dependency" data-source-line="83" id="lnk7"><path codeLine="83" d="M1330.75,328.2294 C1482.13,328.2294 1730.81,328.2294 1864.81,328.2294" fill="none" id="PersistenceLayer-to-DomainLayer" style="stroke:#181818;stroke-width:1;"/><polygon fill="#181818" points="1869.81,328.2294,1860.81,324.2294,1864.81,328.2294,1860.81,332.2294,1869.81,328.2294" style="stroke:#181818;stroke-width:1;stroke-linejoin:miter;stroke-miterlimit:10;"/><text fill="#000000" font-family="sans-serif" font-size="13" lengthAdjust="spacing" textLength="89.5908" x="1510.28" y="342.7245">persists entities</text></g><!--link ServiceLayer to AuthenticationService--><g class="link" data-entity-1="ent0002" data-entity-2="ent0008" data-link-type="association" data-source-line="153" id="lnk21"><path codeLine="153" d="M676.28,495.3594 C763.07,495.3594 872,495.3594 872,495.3594 C872,495.3594 872,465.1194 872,435.3594" fill="none" id="ServiceLayer-AuthenticationService" style="stroke:#181818;stroke-width:1;stroke-dasharray:7,7;"/></g><!--link ServiceLayer to AttendanceReportService--><g class="link" data-entity-1="ent0002" data-entity-2="ent0009" data-link-type="association" data-source-line="154" id="lnk22"><path codeLine="154" d="M676.19,660.1094 C793.6,660.1094 982.57,660.1094 1100.79,660.1094" fill="none" id="ServiceLayer-AttendanceReportService" style="stroke:#181818;stroke-width:1;stroke-dasharray:7,7;"/></g><!--link ServiceLayer to AttendanceRegistrationService--><g class="link" data-entity-1="ent0002" data-entity-2="ent0010" data-link-type="association" data-source-line="155" id="lnk23"><path codeLine="155" d="M676.19,795.1094 C792.45,795.1094 978.88,795.1094 1097.3,795.1094" fill="none" id="ServiceLayer-AttendanceRegistrationService" style="stroke:#181818;stroke-width:1;stroke-dasharray:7,7;"/></g><!--link ServiceLayer to ScheduleGenerationService--><g class="link" data-entity-1="ent0002" data-entity-2="ent0011" data-link-type="association" data-source-line="156" id="lnk24"><path codeLine="156" d="M676.28,531.1094 C694.25,531.1094 713.16,531.1094 731.87,531.1094" fill="none" id="ServiceLayer-ScheduleGenerationService" style="stroke:#181818;stroke-width:1;stroke-dasharray:7,7;"/></g><!--link ServiceLayer to EntityService--><g class="link" data-entity-1="ent0002" data-entity-2="ent0013" data-link-type="association" data-source-line="157" id="lnk25"><path codeLine="157" d="M624,830.4694 C624,914.4094 624,997.8594 624,997.8594 C624,997.8594 1017.45,997.8594 1158.46,997.8594" fill="none" id="ServiceLayer-EntityService" style="stroke:#181818;stroke-width:1;stroke-dasharray:7,7;"/></g><!--link ServiceLayer to RoomService--><g class="link" data-entity-1="ent0002" data-entity-2="ent0014" data-link-type="association" data-source-line="158" id="lnk26"><path codeLine="158" d="M571,830.3294 C571,939.1994 571,1060.1094 571,1060.1094 C571,1060.1094 652.55,1060.1094 730.75,1060.1094" fill="none" id="ServiceLayer-RoomService" style="stroke:#181818;stroke-width:1;stroke-dasharray:7,7;"/></g><!--link ServiceLayer to RoomBookingService--><g class="link" data-entity-1="ent0002" data-entity-2="ent0012" data-link-type="association" data-source-line="159" id="lnk27"><path codeLine="159" d="M676,492.7294 C731.39,492.7294 788,492.7294 788,492.7294 C788,492.7294 788,227.5094 788,124.9394" fill="none" id="ServiceLayer-RoomBookingService" style="stroke:#181818;stroke-width:1;stroke-dasharray:7,7;"/></g><!--link ServiceLayer to NotificationManagementService--><g class="link" data-entity-1="ent0002" data-entity-2="ent0015" data-link-type="association" data-source-line="160" id="lnk28"><path codeLine="160" d="M519,830.1594 C519,992.6794 519,1213.1094 519,1213.1094 C519,1213.1094 665.64,1213.1094 769.9,1213.1094" fill="none" id="ServiceLayer-NotificationManagementService" style="stroke:#181818;stroke-width:1;stroke-dasharray:7,7;"/></g><!--link PersistenceLayer to StudentGroupRepository--><g class="link" data-entity-1="ent0003" data-entity-2="ent0017" data-link-type="association" data-source-line="161" id="lnk29"><path codeLine="161" d="M1330.77,169.8594 C1395.13,169.8594 1472.13,169.8594 1528.8,169.8594" fill="none" id="PersistenceLayer-StudentGroupRepository" style="stroke:#181818;stroke-width:1;stroke-dasharray:7,7;"/></g><!--link PersistenceLayer to ClassMeetingRepository--><g class="link" data-entity-1="ent0003" data-entity-2="ent0018" data-link-type="association" data-source-line="162" id="lnk30"><path codeLine="162" d="M1249,447.2894 C1249,476.2494 1249,497.9894 1249,497.9894 C1249,497.9894 1384.4,497.9894 1489.13,497.9894" fill="none" id="PersistenceLayer-ClassMeetingRepository" style="stroke:#181818;stroke-width:1;stroke-dasharray:7,7;"/></g><!--link PersistenceLayer to AttendanceRepository--><g class="link" data-entity-1="ent0003" data-entity-2="ent0019" data-link-type="association" data-source-line="163" id="lnk31"><path codeLine="163" d="M1330.93,367.8594 C1361.14,367.8594 1385,367.8594 1385,367.8594 C1385,367.8594 1385,644.8594 1385,644.8594 C1385,644.8594 1455.88,644.8594 1517.89,644.8594" fill="none" id="PersistenceLayer-AttendanceRepository" style="stroke:#181818;stroke-width:1;stroke-dasharray:7,7;"/></g><!--link PersistenceLayer to GenericRepository--><g class="link" data-entity-1="ent0003" data-entity-2="ent0020" data-link-type="association" data-source-line="164" id="lnk32"><path codeLine="164" d="M1330.52,407.4894 C1351.67,407.4894 1367,407.4894 1367,407.4894 C1367,407.4894 1367,809.3594 1367,809.3594 C1367,809.3594 1470.6,809.3594 1542.23,809.3594" fill="none" id="PersistenceLayer-GenericRepository" style="stroke:#181818;stroke-width:1;stroke-dasharray:7,7;"/></g><!--link AuthenticationService to PersistenceLayer--><g class="link" data-entity-1="ent0008" data-entity-2="ent0003" data-link-type="dependency" data-source-line="166" id="lnk33"><path codeLine="166" d="M948.24,378.1094 C988.71,378.1094 1034.42,378.1094 1080.27,378.1094" fill="none" id="AuthenticationService-to-PersistenceLayer" style="stroke:#181818;stroke-width:1;"/><polygon fill="#181818" points="1085.27,378.1094,1076.27,374.1094,1080.27,378.1094,1076.27,382.1094,1085.27,378.1094" style="stroke:#181818;stroke-width:1;stroke-linejoin:miter;stroke-miterlimit:10;"/></g><!--link AttendanceReportService to ClassMeetingRepository--><g class="link" data-entity-1="ent0009" data-entity-2="ent0018" data-link-type="dependency" data-source-line="167" id="lnk34"><path codeLine="167" d="M1315.28,660.1094 C1399.99,660.1094 1504,660.1094 1504,660.1094 C1504,660.1094 1504,609.7094 1504,569.8794" fill="none" id="AttendanceReportService-to-ClassMeetingRepository" style="stroke:#181818;stroke-width:1;"/><polygon fill="#181818" points="1504,564.8794,1500,573.8794,1504,569.8794,1508,573.8794,1504,564.8794" style="stroke:#181818;stroke-width:1;stroke-linejoin:miter;stroke-miterlimit:10;"/></g><!--link AttendanceReportService to AttendanceRepository--><g class="link" data-entity-1="ent0009" data-entity-2="ent0019" data-link-type="dependency" data-source-line="168" id="lnk35"><path codeLine="168" d="M1315.2,675.3594 C1378.42,675.3594 1452.57,675.3594 1512.78,675.3594" fill="none" id="AttendanceReportService-to-AttendanceRepository" style="stroke:#181818;stroke-width:1;"/><polygon fill="#181818" points="1517.78,675.3594,1508.78,671.3594,1512.78,675.3594,1508.78,679.3594,1517.78,675.3594" style="stroke:#181818;stroke-width:1;stroke-linejoin:miter;stroke-miterlimit:10;"/></g><!--link AttendanceRegistrationService to AttendanceRepository--><g class="link" data-entity-1="ent0010" data-entity-2="ent0019" data-link-type="dependency" data-source-line="169" id="lnk36"><path codeLine="169" d="M1318.71,778.8594 C1412.21,778.8594 1531,778.8594 1531,778.8594 C1531,778.8594 1531,730.8794 1531,695.6894" fill="none" id="AttendanceRegistrationService-to-AttendanceRepository" style="stroke:#181818;stroke-width:1;"/><polygon fill="#181818" points="1531,690.6894,1527,699.6894,1531,695.6894,1535,699.6894,1531,690.6894" style="stroke:#181818;stroke-width:1;stroke-linejoin:miter;stroke-miterlimit:10;"/></g><!--link ScheduleGenerationService to PersistenceLayer--><g class="link" data-entity-1="ent0011" data-entity-2="ent0003" data-link-type="dependency" data-source-line="170" id="lnk37"><path codeLine="170" d="M988,500.3294 C988,474.9594 988,443.1094 988,443.1094 C988,443.1094 1029.94,443.1094 1080.46,443.1094" fill="none" id="ScheduleGenerationService-to-PersistenceLayer" style="stroke:#181818;stroke-width:1;"/><polygon fill="#181818" points="1085.46,443.1094,1076.46,439.1094,1080.46,443.1094,1076.46,447.1094,1085.46,443.1094" style="stroke:#181818;stroke-width:1;stroke-linejoin:miter;stroke-miterlimit:10;"/></g><!--link EntityService to GenericRepository--><g class="link" data-entity-1="ent0013" data-entity-2="ent0020" data-link-type="dependency" data-source-line="171" id="lnk38"><path codeLine="171" d="M1208,975.0794 C1208,938.3994 1208,894.1094 1208,894.1094 C1208,894.1094 1423.31,894.1094 1537.33,894.1094" fill="none" id="EntityService-to-GenericRepository" style="stroke:#181818;stroke-width:1;"/><polygon fill="#181818" points="1542.33,894.1094,1533.33,890.1094,1537.33,894.1094,1533.33,898.1094,1542.33,894.1094" style="stroke:#181818;stroke-width:1;stroke-linejoin:miter;stroke-miterlimit:10;"/></g><!--link EntityService to JpaTransactionManager--><g class="link" data-entity-1="ent0013" data-entity-2="ent0016" data-link-type="dependency" data-source-line="172" id="lnk39"><path codeLine="172" d="M1257.57,1009.3594 C1385.08,1009.3594 1720.32,1009.3594 1875.22,1009.3594" fill="none" id="EntityService-to-JpaTransactionManager" style="stroke:#181818;stroke-width:1;"/><polygon fill="#181818" points="1880.22,1009.3594,1871.22,1005.3594,1875.22,1009.3594,1871.22,1013.3594,1880.22,1009.3594" style="stroke:#181818;stroke-width:1;stroke-linejoin:miter;stroke-miterlimit:10;"/></g><!--link RoomService to EntityService--><g class="link" data-entity-1="ent0014" data-entity-2="ent0013" data-link-type="extension" data-source-line="173" id="lnk40"><path codeLine="173" d="M1013.03,1045.8594 C1064.76,1045.8594 1101.98,1045.8594 1140.4,1045.8594" fill="none" id="RoomService-to-EntityService" style="stroke:#181818;stroke-width:1;"/><polygon fill="none" points="1158.4,1045.8594,1140.4,1039.8594,1140.4,1051.8594,1158.4,1045.8594" style="stroke:#181818;stroke-width:1;stroke-linejoin:miter;stroke-miterlimit:10;"/></g><!--link RoomBookingService to PersistenceLayer--><g class="link" data-entity-1="ent0012" data-entity-2="ent0003" data-link-type="dependency" data-source-line="174" id="lnk41"><path codeLine="174" d="M956,124.6194 C956,170.5494 956,240.1094 956,240.1094 C956,240.1094 1016.23,240.1094 1080.32,240.1094" fill="none" id="RoomBookingService-to-PersistenceLayer" style="stroke:#181818;stroke-width:1;"/><polygon fill="#181818" points="1085.32,240.1094,1076.32,236.1094,1080.32,240.1094,1076.32,244.1094,1085.32,240.1094" style="stroke:#181818;stroke-width:1;stroke-linejoin:miter;stroke-miterlimit:10;"/></g><!--link NotificationManagementService to EntityService--><g class="link" data-entity-1="ent0015" data-entity-2="ent0013" data-link-type="extension" data-source-line="175" id="lnk42"><path codeLine="175" d="M974.18,1178.1094 C1073.03,1178.1094 1208,1178.1094 1208,1178.1094 C1208,1178.1094 1208,1134.7994 1208,1089.2994" fill="none" id="NotificationManagementService-to-EntityService" style="stroke:#181818;stroke-width:1;"/><polygon fill="none" points="1208,1071.2994,1202,1089.2994,1214,1089.2994,1208,1071.2994" style="stroke:#181818;stroke-width:1;stroke-linejoin:miter;stroke-miterlimit:10;"/></g><!--link NotificationManagementService to NotificationRepository--><g class="link" data-entity-1="ent0015" data-entity-2="ent0043" data-link-type="dependency" data-source-line="176" id="lnk44"><path codeLine="176" d="M974.18,1213.1094 C1026.79,1213.1094 1084.63,1213.1094 1131.91,1213.1094" fill="none" id="NotificationManagementService-to-NotificationRepository" style="stroke:#181818;stroke-width:1;"/><polygon fill="#181818" points="1136.91,1213.1094,1127.91,1209.1094,1131.91,1213.1094,1127.91,1217.1094,1136.91,1213.1094" style="stroke:#181818;stroke-width:1;stroke-linejoin:miter;stroke-miterlimit:10;"/></g><!--link StudentGroupRepository to DomainLayer--><g class="link" data-entity-1="ent0017" data-entity-2="ent0004" data-link-type="dependency" data-source-line="177" id="lnk45"><path codeLine="177" d="M1689.3,150.1094 C1792.63,150.1094 1959,150.1094 1959,150.1094 C1959,150.1094 1959,210.6794 1959,281.1094" fill="none" id="StudentGroupRepository-to-DomainLayer" style="stroke:#181818;stroke-width:1;"/><polygon fill="#181818" points="1959,286.1094,1963,277.1094,1959,281.1094,1955,277.1094,1959,286.1094" style="stroke:#181818;stroke-width:1;stroke-linejoin:miter;stroke-miterlimit:10;"/></g><!--link ClassMeetingRepository to DomainLayer--><g class="link" data-entity-1="ent0018" data-entity-2="ent0004" data-link-type="dependency" data-source-line="178" id="lnk46"><path codeLine="178" d="M1728.96,525.1094 C1775.17,525.1094 1822.07,525.1094 1864.87,525.1094" fill="none" id="ClassMeetingRepository-to-DomainLayer" style="stroke:#181818;stroke-width:1;"/><polygon fill="#181818" points="1869.87,525.1094,1860.87,521.1094,1864.87,525.1094,1860.87,529.1094,1869.87,525.1094" style="stroke:#181818;stroke-width:1;stroke-linejoin:miter;stroke-miterlimit:10;"/></g><!--link AttendanceRepository to DomainLayer--><g class="link" data-entity-1="ent0019" data-entity-2="ent0004" data-link-type="dependency" data-source-line="179" id="lnk47"><path codeLine="179" d="M1700.14,660.1094 C1777.49,660.1094 1876,660.1094 1876,660.1094 C1876,660.1094 1876,651.5494 1876,631.4194" fill="none" id="AttendanceRepository-to-DomainLayer" style="stroke:#181818;stroke-width:1;"/><polygon fill="#181818" points="1876,626.4194,1872,635.4194,1876,631.4194,1880,635.4194,1876,626.4194" style="stroke:#181818;stroke-width:1;stroke-linejoin:miter;stroke-miterlimit:10;"/></g><!--link GenericRepository to JpaUtil--><g class="link" data-entity-1="ent0020" data-entity-2="ent0048" data-link-type="dependency" data-source-line="180" id="lnk49"><path codeLine="180" d="M1675.66,859.1094 C1754.4,859.1094 1876.38,859.1094 1929.46,859.1094" fill="none" id="GenericRepository-to-JpaUtil" style="stroke:#181818;stroke-width:1;"/><polygon fill="#181818" points="1934.46,859.1094,1925.46,855.1094,1929.46,859.1094,1925.46,863.1094,1934.46,859.1094" style="stroke:#181818;stroke-width:1;stroke-linejoin:miter;stroke-miterlimit:10;"/></g><!--link GenericRepository to JpaTransactionManager--><g class="link" data-entity-1="ent0020" data-entity-2="ent0016" data-link-type="dependency" data-source-line="181" id="lnk50"><path codeLine="181" d="M1675.73,903.1094 C1763.85,903.1094 1908,903.1094 1908,903.1094 C1908,903.1094 1908,931.1894 1908,959.4794" fill="none" id="GenericRepository-to-JpaTransactionManager" style="stroke:#181818;stroke-width:1;"/><polygon fill="#181818" points="1908,964.4794,1912,955.4794,1908,959.4794,1904,955.4794,1908,964.4794" style="stroke:#181818;stroke-width:1;stroke-linejoin:miter;stroke-miterlimit:10;"/></g><?plantuml-src XLZVR-Cs37xtNq7SKmveic6uxk5G54X_haLxA9fURw-AnIHQ5CcGvBRPRV_xADcnPLlENkuYaYAfZzHdgauuYN25LgmLN4fcBLm9jZPi1rDuHiRPalGFR8y6ETpj2eaxL8uveHMy2dpFCeah1qw34UkD0ouCvbwRsQrG1VEUSkztxfmHozBXNQxLGloDy6ja8eL2joyGj74R7IcKvcYnWDzF8w5XQkk5fwVPHd24N9XSOfQ5GF3fdhsncp_XzljTbVadO1PkIn4MS7Oc_V_dv_0p0w2qK76cSYI3UL6GQ3gbVnxqMYXuyoS4U6JqctRfqj7ggLnAaSCxubRkmUORv2L5Xng_7Q8JQWqS7HFIalpMwB9Ok98JSdPkhSv50F2ryZxdEw5-16-Bsbci-QQTM8byiEDPwzqZKsmTAjBHO44mrf9mclQKpzeBAui70jsl_ssGMw1v4pb6iDMI97Ibsr3aEhNQqED3hjwruQraWTQIoQLM3Zy2X6YiLamkq7ciR6HQ8p3FSzhKoWEsZnMqhJGw5ww5TQQNIgpt9surrVhweoizHBz5XNrVrtHKjw_NPo_dtWcL8799gmkjjvqCu-gbfMqDeppsrk7ka8s9AkIHeuEYwbGfagOgTL-mxqx8wjSBtHxByZQqyItg3onoZueLJfjzTS2gJgtKfrRrSUZfZYAkK4VHBSA8sBYEidiT27gpx-WzrWD13Nv77YFTFKVjcySMBynk8wi4x0wkzCxJmICHampWLu8KxXLyBMZqwmKP1JQ7grhrh3OzOFsoNFv5J1fkpmufj4d3qaE-0sm2vSxbht7hmjS3xHXK7g26LwVJyovRV8MSIMd1LaARTRJUVD2sNw6qQC4SIY1ery38xumn_mf5PMB1qv7pc-gw9Iagb4PwVfyWUP4dKDICzPaKmjQ5c5Ihkc3rAXIDVZUTCS8m8SQwOf5QCra9ILNqVfQba9pOC9UbvyL7OZgwXnCJx4QS3-WjXB3i3LkhIVtjkUCdOFIxZLoDCbidqxYJx8qsXzQRe6-roDsGwuAVt21vgHKJGqO-5Ikrg-5x8xpzID7JDNxx91kyCiudeR9xxwKiECM817GFaGI2z_8R9kQb8VAtShT4Sq8DMh2yuxSnyGYc39iGHpay2bfnUMmzQSDTS-4y7WDrxkifdwYmX6HFswIGPFCG6ZymfrbhGbsz_TokNxNWjQpjZ2IX1oyheVXSoX_2RGxZInm-pVZDpdupNPR6a0lFOU68tkPYNrsEct0tcYioShrw0IxsSOWxRga7ufvFVTIYpNUyIOCE6NxxwnHLPnArL_3ROR3PR6G46bYDJ277x8RJJDzwV5RfMtOkrK0R3p4fNM-awPiS7sK6vEqJJqyGATEHcI9bcfmoKeQ3hiYoz6SYzONAnlZU6uzaUsnBCklZj3-wRPpYaoVfT4Km6I8pj4aFa37TJgV_dFTQBl6rIAPqd58JZlzlm_dO_3T2UhtH8XjXkBvPagNwHWDq3tY6qNnKcq0xKzeXBBLpUWTwrJnjivSDlOKhbeNw4PpJc5hD6pQyPYq8PVsRkV_mdL6L94wNpD93Nx4tiQuU-JksnUOZSNAONq-0ATuROLUb2cdwG5OiwMtCnMg58HjUckfDlFBLdcKK6lmf1cSP8OV7-GA-p7wRVQ4X0iJXpn2KwN8_yfNo-SNEPcjqhPfGEFeiFvBXe6kfB2MJSFyq_-KFGTE2eYz7PuG5Pj0FjdoMBOg00ns2lDQo9j9_?></g></svg>