<svg xmlns="http://www.w3.org/2000/svg" xmlns:xlink="http://www.w3.org/1999/xlink" contentStyleType="text/css" data-diagram-type="STATE" height="705px" preserveAspectRatio="none" style="width:793px;height:705px;background:#FFFFFF;" version="1.1" viewBox="0 0 793 705" width="793px" zoomAndPan="magnify"><?plantuml 1.2026.5?><defs/><g><g class="title" data-source-line="1"><text fill="#000000" font-family="sans-serif" font-size="14" font-weight="700" lengthAdjust="spacing" textLength="350.0957" x="218.2893" y="24.5332">State Diagram - ScheduledNotificationTask Lifecycle</text></g><g class="start_entity" data-qualified-name=".start." data-source-line="3" id="ent0001"><ellipse cx="232.52" cy="54.6094" fill="#222222" rx="10" ry="10" style="stroke:#222222;stroke-width:1;"/></g><g class="entity" data-qualified-name="PENDING" data-source-line="3" id="ent0002"><rect fill="#F1F1F1" height="50" rx="12.5" ry="12.5" style="stroke:#181818;stroke-width:0.5;" width="83.7861" x="190.52" y="142.6094"/><line style="stroke:#181818;stroke-width:0.5;" x1="190.52" x2="274.3061" y1="170.2188" y2="170.2188"/><text fill="#000000" font-family="sans-serif" font-size="14" lengthAdjust="spacing" textLength="63.7861" x="200.52" y="162.1426">PENDING</text></g><g class="entity" data-qualified-name="PROCESSING" data-source-line="5" id="ent0004"><rect fill="#F1F1F1" height="50" rx="12.5" ry="12.5" style="stroke:#181818;stroke-width:0.5;" width="113.3516" x="390.02" y="270.6094"/><line style="stroke:#181818;stroke-width:0.5;" x1="390.02" x2="503.3716" y1="298.2188" y2="298.2188"/><text fill="#000000" font-family="sans-serif" font-size="14" lengthAdjust="spacing" textLength="93.3516" x="400.02" y="290.1426">PROCESSING</text></g><g class="entity" data-qualified-name="CANCELLED" data-source-line="6" id="ent0006"><rect fill="#F1F1F1" height="50" rx="12.5" ry="12.5" style="stroke:#181818;stroke-width:0.5;" width="104.0273" x="126.52" y="558.6094"/><line style="stroke:#181818;stroke-width:0.5;" x1="126.52" x2="230.5473" y1="586.2188" y2="586.2188"/><text fill="#000000" font-family="sans-serif" font-size="14" lengthAdjust="spacing" textLength="84.0273" x="136.52" y="578.1426">CANCELLED</text></g><g class="entity" data-qualified-name="SENT" data-source-line="8" id="ent0008"><rect fill="#F1F1F1" height="50" rx="12.5" ry="12.5" style="stroke:#181818;stroke-width:0.5;" width="57.3379" x="410.02" y="478.6094"/><line style="stroke:#181818;stroke-width:0.5;" x1="410.02" x2="467.3579" y1="506.2188" y2="506.2188"/><text fill="#000000" font-family="sans-serif" font-size="14" lengthAdjust="spacing" textLength="37.3379" x="420.02" y="498.1426">SENT</text></g><g class="entity" data-qualified-name="FAILED" data-source-line="9" id="ent0010"><rect fill="#F1F1F1" height="50" rx="12.5" ry="12.5" style="stroke:#181818;stroke-width:0.5;" width="69.0137" x="144.02" y="398.6094"/><line style="stroke:#181818;stroke-width:0.5;" x1="144.02" x2="213.0337" y1="426.2188" y2="426.2188"/><text fill="#000000" font-family="sans-serif" font-size="14" lengthAdjust="spacing" textLength="49.0137" x="154.02" y="418.1426">FAILED</text></g><g class="end_entity" data-qualified-name=".end." data-source-line="14" id="ent0014"><ellipse cx="268.52" cy="680.6094" fill="none" rx="11" ry="11" style="stroke:#222222;stroke-width:1;"/><ellipse cx="268.52" cy="680.6094" fill="#222222" rx="6" ry="6" style="stroke:#222222;stroke-width:1;"/></g><g class="entity" data-qualified-name="GMN17" data-source-line="18" id="ent0018"><path d="M310.02,154.6094 L310.02,163.6094 L274.85,167.6094 L310.02,171.6094 L310.02,180.9609 A0,0 0 0 0 310.02,180.9609 L498.6553,180.9609 A0,0 0 0 0 498.6553,180.9609 L498.6553,164.6094 L488.6553,154.6094 L310.02,154.6094 A0,0 0 0 0 310.02,154.6094" fill="#FEFFDD" style="stroke:#181818;stroke-width:0.5;"/><path d="M488.6553,154.6094 L488.6553,164.6094 L498.6553,164.6094 L488.6553,154.6094" fill="#FEFFDD" style="stroke:#181818;stroke-width:0.5;"/><text fill="#000000" font-family="sans-serif" font-size="13" lengthAdjust="spacing" textLength="167.6353" x="316.02" y="173.1045">Task waits until scheduledAt.</text></g><g class="entity" data-qualified-name="GMN20" data-source-line="22" id="ent0021"><path d="M538.02,282.6094 L538.02,291.6094 L503.25,295.6094 L538.02,299.6094 L538.02,308.9609 A0,0 0 0 0 538.02,308.9609 L778.6743,308.9609 A0,0 0 0 0 778.6743,308.9609 L778.6743,292.6094 L768.6743,282.6094 L538.02,282.6094 A0,0 0 0 0 538.02,282.6094" fill="#FEFFDD" style="stroke:#181818;stroke-width:0.5;"/><path d="M768.6743,282.6094 L768.6743,292.6094 L778.6743,292.6094 L768.6743,282.6094" fill="#FEFFDD" style="stroke:#181818;stroke-width:0.5;"/><text fill="#000000" font-family="sans-serif" font-size="13" lengthAdjust="spacing" textLength="219.6543" x="544.02" y="301.1045">SystemScheduler owns this transition.</text></g><g class="entity" data-qualified-name="GMN23" data-source-line="26" id="ent0024"><path d="M248.52,402.1094 L248.52,419.6094 L213.29,423.6094 L248.52,427.6094 L248.52,444.8125 A0,0 0 0 0 248.52,444.8125 L464.6216,444.8125 A0,0 0 0 0 464.6216,444.8125 L464.6216,412.1094 L454.6216,402.1094 L248.52,402.1094 A0,0 0 0 0 248.52,402.1094" fill="#FEFFDD" style="stroke:#181818;stroke-width:0.5;"/><path d="M454.6216,402.1094 L454.6216,412.1094 L464.6216,412.1094 L454.6216,402.1094" fill="#FEFFDD" style="stroke:#181818;stroke-width:0.5;"/><text fill="#000000" font-family="sans-serif" font-size="13" lengthAdjust="spacing" textLength="195.1016" x="254.52" y="420.6045">failureReason stores the problem.</text><text fill="#000000" font-family="sans-serif" font-size="13" lengthAdjust="spacing" textLength="156.0508" x="254.52" y="436.9561">retryCount tracks attempts.</text></g><!--link *start* to PENDING--><g class="link" data-entity-1="ent0001" data-entity-2="ent0002" data-link-type="dependency" data-source-line="3" id="lnk3"><path d="M232.52,64.6894 C232.52,81.4694 232.52,112.8294 232.52,137.2594" fill="none" id="*start*-to-PENDING" style="stroke:#181818;stroke-width:1;"/><polygon fill="#181818" points="232.52,142.2594,236.52,133.2594,232.52,137.2594,228.52,133.2594,232.52,142.2594" style="stroke:#181818;stroke-width:1;stroke-linejoin:miter;stroke-miterlimit:10;"/><text fill="#000000" font-family="sans-serif" font-size="13" lengthAdjust="spacing" textLength="70.8145" x="233.52" y="109.1045">task created</text></g><!--link PENDING to PROCESSING--><g class="link" data-entity-1="ent0002" data-entity-2="ent0004" data-link-type="dependency" data-source-line="5" id="lnk5"><path d="M273.53,192.7494 C311.52,215.1194 363.4014,245.6724 401.3414,268.0124" fill="none" id="PENDING-to-PROCESSING" style="stroke:#181818;stroke-width:1;"/><polygon fill="#181818" points="405.65,270.5494,399.9242,262.536,401.3414,268.0124,395.865,269.4296,405.65,270.5494" style="stroke:#181818;stroke-width:1;stroke-linejoin:miter;stroke-miterlimit:10;"/><text fill="#000000" font-family="sans-serif" font-size="13" lengthAdjust="spacing" textLength="187.8652" x="352.52" y="237.1045">SystemScheduler picks due task</text></g><!--link PENDING to CANCELLED--><g class="link" data-entity-1="ent0002" data-entity-2="ent0006" data-link-type="dependency" data-source-line="6" id="lnk7"><path d="M191.69,192.6794 C145.04,222.8294 71.18,279.2994 40.52,350.6094 C6,430.9094 91.1271,514.2016 142.0071,555.2116" fill="none" id="PENDING-to-CANCELLED" style="stroke:#181818;stroke-width:1;"/><polygon fill="#181818" points="145.9,558.3494,141.403,549.5871,142.0071,555.2116,136.3826,555.8158,145.9,558.3494" style="stroke:#181818;stroke-width:1;stroke-linejoin:miter;stroke-miterlimit:10;"/><text fill="#000000" font-family="sans-serif" font-size="13" lengthAdjust="spacing" textLength="160.4307" x="41.52" y="365.1045">admin cancels pending task</text></g><!--link PROCESSING to SENT--><g class="link" data-entity-1="ent0004" data-entity-2="ent0008" data-link-type="dependency" data-source-line="8" id="lnk9"><path d="M460.66,320.7694 C476.53,351.1594 498.16,404.6594 482.52,448.6094 C478.63,459.5494 474.7323,466.0902 467.3023,474.7202" fill="none" id="PROCESSING-to-SENT" style="stroke:#181818;stroke-width:1;"/><polygon fill="#181818" points="464.04,478.5094,472.9434,474.2987,467.3023,474.7202,466.8808,469.0791,464.04,478.5094" style="stroke:#181818;stroke-width:1;stroke-linejoin:miter;stroke-miterlimit:10;"/><text fill="#000000" font-family="sans-serif" font-size="13" lengthAdjust="spacing" textLength="211.7197" x="480.52" y="365.1045">NotificationService sends notification</text></g><!--link PROCESSING to FAILED--><g class="link" data-entity-1="ent0004" data-entity-2="ent0010" data-link-type="dependency" data-source-line="9" id="lnk11"><path d="M395.17,320.7494 C341.67,345.9094 263.8548,382.492 217.6148,404.232" fill="none" id="PROCESSING-to-FAILED" style="stroke:#181818;stroke-width:1;"/><polygon fill="#181818" points="213.09,406.3594,222.9366,406.15,217.6148,404.232,219.5328,398.9102,213.09,406.3594" style="stroke:#181818;stroke-width:1;stroke-linejoin:miter;stroke-miterlimit:10;"/><text fill="#000000" font-family="sans-serif" font-size="13" lengthAdjust="spacing" textLength="72.2681" x="329.52" y="365.1045">sending fails</text></g><!--link FAILED to PENDING--><g class="link" data-entity-1="ent0010" data-entity-2="ent0002" data-link-type="dependency" data-source-line="11" id="lnk12"><path d="M195.84,398.4094 C201.43,389.4494 207.07,378.9494 210.52,368.6094 C230.88,307.6394 233.37,235.9993 233.14,197.6993" fill="none" id="FAILED-to-PENDING" style="stroke:#181818;stroke-width:1;"/><polygon fill="#181818" points="233.11,192.6994,229.1641,201.7232,233.14,197.6993,237.164,201.6752,233.11,192.6994" style="stroke:#181818;stroke-width:1;stroke-linejoin:miter;stroke-miterlimit:10;"/><text fill="#000000" font-family="sans-serif" font-size="13" lengthAdjust="spacing" textLength="88.8799" x="246.4145" y="293.1045">retry scheduled</text><text fill="#000000" font-family="sans-serif" font-size="13" lengthAdjust="spacing" textLength="120.6689" x="230.52" y="309.4561">retryCount increased</text></g><!--link FAILED to CANCELLED--><g class="link" data-entity-1="ent0010" data-entity-2="ent0006" data-link-type="dependency" data-source-line="12" id="lnk13"><path d="M178.52,448.9494 C178.52,478.7294 178.52,523.8294 178.52,553.4994" fill="none" id="FAILED-to-CANCELLED" style="stroke:#181818;stroke-width:1;"/><polygon fill="#181818" points="178.52,558.4994,182.52,549.4994,178.52,553.4994,174.52,549.4994,178.52,558.4994" style="stroke:#181818;stroke-width:1;stroke-linejoin:miter;stroke-miterlimit:10;"/><text fill="#000000" font-family="sans-serif" font-size="13" lengthAdjust="spacing" textLength="145.2407" x="179.52" y="509.1045">admin cancels failed task</text></g><!--link SENT to *end*--><g class="link" data-entity-1="ent0008" data-entity-2="ent0014" data-link-type="dependency" data-source-line="14" id="lnk15"><path d="M414.88,528.9394 C375.84,569.1394 303.2741,643.8332 279.3741,668.4332" fill="none" id="SENT-to-*end*" style="stroke:#181818;stroke-width:1;"/><polygon fill="#181818" points="275.89,672.0194,285.0304,668.3515,279.3741,668.4332,279.2925,662.7769,275.89,672.0194" style="stroke:#181818;stroke-width:1;stroke-linejoin:miter;stroke-miterlimit:10;"/></g><!--link CANCELLED to *end*--><g class="link" data-entity-1="ent0006" data-entity-2="ent0014" data-link-type="dependency" data-source-line="15" id="lnk16"><path d="M201.7,609.0694 C221.49,629.9694 245.2717,655.0692 257.9917,668.4992" fill="none" id="CANCELLED-to-*end*" style="stroke:#181818;stroke-width:1;"/><polygon fill="#181818" points="261.43,672.1294,258.1453,662.8444,257.9917,668.4992,252.337,668.3457,261.43,672.1294" style="stroke:#181818;stroke-width:1;stroke-linejoin:miter;stroke-miterlimit:10;"/></g><?plantuml-src TP71Ri8m38RlUGgV9y43x309bMv2GcMYtBOTijG5YpIfOdU8jr_Iqb6OkEJW-F_jxxUGM8HIj20iIU-3Rc06fJbWrLci2YzKaz52tkqq7s5DDPgpiQZKnzCNp6Oly9uNorNn1iyWgSC4Z6QLKcEzxzbkihmiXxRop8BDE2D0I-R8K7NO6zpeiaMHvUjrlemoNJNam6Xdq3Aqw2fo-q6Y9lv9LkR5BYgcsvSOViWWSDGnkCdFlVXriHe6ycL4hScoKfVwBN902MVWCQzFrnSotpa1SYaBZbbCf8-9qXYiBa0zGUgFAQkhPgoe280GQ7yGyFMuZ-fFTD8a3741ijV55Z9N4IU1up_r7x-wFuq_EGOvK7o2TamfhyT60wPA85t0RMJt3bXym6I2q0R_RR6Pgqb8qJTTNqkSsmfFp7y1?></g></svg>