<svg xmlns="http://www.w3.org/2000/svg" xmlns:xlink="http://www.w3.org/1999/xlink" contentStyleType="text/css" data-diagram-type="STATE" height="586px" preserveAspectRatio="none" style="width:1163px;height:586px;background:#FFFFFF;" version="1.1" viewBox="0 0 1163 586" width="1163px" zoomAndPan="magnify"><?plantuml 1.2026.5?><defs/><g><g class="title" data-source-line="1"><text fill="#000000" font-family="sans-serif" font-size="14" font-weight="700" lengthAdjust="spacing" textLength="260.6475" x="447.8916" y="24.5332">State Diagram - ClassMeeting Lifecycle</text></g><g class="start_entity" data-qualified-name=".start." data-source-line="3" id="ent0001"><ellipse cx="457.5" cy="54.6094" fill="#222222" rx="10" ry="10" style="stroke:#222222;stroke-width:1;"/></g><g class="entity" data-qualified-name="DRAFT" data-source-line="3" id="ent0002"><rect fill="#F1F1F1" height="50" rx="12.5" ry="12.5" style="stroke:#181818;stroke-width:0.5;" width="66.6621" x="424" y="142.6094"/><line style="stroke:#181818;stroke-width:0.5;" x1="424" x2="490.6621" y1="170.2188" y2="170.2188"/><text fill="#000000" font-family="sans-serif" font-size="14" lengthAdjust="spacing" textLength="46.6621" x="434" y="162.1426">DRAFT</text></g><g class="entity" data-qualified-name="SCHEDULED" data-source-line="5" id="ent0004"><rect fill="#F1F1F1" height="50" rx="12.5" ry="12.5" style="stroke:#181818;stroke-width:0.5;" width="106.3516" x="159.5" y="286.6094"/><line style="stroke:#181818;stroke-width:0.5;" x1="159.5" x2="265.8516" y1="314.2188" y2="314.2188"/><text fill="#000000" font-family="sans-serif" font-size="14" lengthAdjust="spacing" textLength="86.3516" x="169.5" y="306.1426">SCHEDULED</text></g><g class="entity" data-qualified-name="CANCELLED" data-source-line="6" id="ent0006"><rect fill="#F1F1F1" height="50" rx="12.5" ry="12.5" style="stroke:#181818;stroke-width:0.5;" width="104.0273" x="650.5" y="435.1094"/><line style="stroke:#181818;stroke-width:0.5;" x1="650.5" x2="754.5273" y1="462.7188" y2="462.7188"/><text fill="#000000" font-family="sans-serif" font-size="14" lengthAdjust="spacing" textLength="84.0273" x="660.5" y="454.6426">CANCELLED</text></g><g class="entity" data-qualified-name="COMPLETED" data-source-line="9" id="ent0009"><rect fill="#F1F1F1" height="50" rx="12.5" ry="12.5" style="stroke:#181818;stroke-width:0.5;" width="107.124" x="7" y="435.1094"/><line style="stroke:#181818;stroke-width:0.5;" x1="7" x2="114.124" y1="462.7188" y2="462.7188"/><text fill="#000000" font-family="sans-serif" font-size="14" lengthAdjust="spacing" textLength="87.124" x="17" y="454.6426">COMPLETED</text></g><g class="end_entity" data-qualified-name=".end." data-source-line="14" id="ent0013"><ellipse cx="380.5" cy="561.6094" fill="none" rx="11" ry="11" style="stroke:#222222;stroke-width:1;"/><ellipse cx="380.5" cy="561.6094" fill="#222222" rx="6" ry="6" style="stroke:#222222;stroke-width:1;"/></g><g class="entity" data-qualified-name="GMN16" data-source-line="18" id="ent0017"><path d="M526.5,146.1094 L526.5,163.6094 L491.19,167.6094 L526.5,171.6094 L526.5,188.8125 A0,0 0 0 0 526.5,188.8125 L780.1543,188.8125 A0,0 0 0 0 780.1543,188.8125 L780.1543,156.1094 L770.1543,146.1094 L526.5,146.1094 A0,0 0 0 0 526.5,146.1094" fill="#FEFFDD" style="stroke:#181818;stroke-width:0.5;"/><path d="M770.1543,146.1094 L770.1543,156.1094 L780.1543,156.1094 L770.1543,146.1094" fill="#FEFFDD" style="stroke:#181818;stroke-width:0.5;"/><text fill="#000000" font-family="sans-serif" font-size="13" lengthAdjust="spacing" textLength="156.0698" x="532.5" y="164.6045">Details may be incomplete.</text><text fill="#000000" font-family="sans-serif" font-size="13" lengthAdjust="spacing" textLength="232.6543" x="532.5" y="180.9561">Admin can add room/link/comment later.</text></g><g class="entity" data-qualified-name="GMN19" data-source-line="23" id="ent0020"><path d="M301,290.1094 L301,307.6094 L265.58,311.6094 L301,315.6094 L301,332.8125 A0,0 0 0 0 301,332.8125 L632.0132,332.8125 A0,0 0 0 0 632.0132,332.8125 L632.0132,300.1094 L622.0132,290.1094 L301,290.1094 A0,0 0 0 0 301,290.1094" fill="#FEFFDD" style="stroke:#181818;stroke-width:0.5;"/><path d="M622.0132,290.1094 L622.0132,300.1094 L632.0132,300.1094 L622.0132,290.1094" fill="#FEFFDD" style="stroke:#181818;stroke-width:0.5;"/><text fill="#000000" font-family="sans-serif" font-size="13" lengthAdjust="spacing" textLength="234.146" x="307" y="308.6045">Visible in public and personal schedules.</text><text fill="#000000" font-family="sans-serif" font-size="13" lengthAdjust="spacing" textLength="310.0132" x="307" y="324.9561">Attendance is allowed only when business rules pass.</text></g><g class="entity" data-qualified-name="GMN22" data-source-line="28" id="ent0023"><path d="M915,430.6094 L915,456.1094 L754.55,460.1094 L915,464.1094 L915,489.6641 A0,0 0 0 0 915,489.6641 L1148.4307,489.6641 A0,0 0 0 0 1148.4307,489.6641 L1148.4307,440.6094 L1138.4307,430.6094 L915,430.6094 A0,0 0 0 0 915,430.6094" fill="#FEFFDD" style="stroke:#181818;stroke-width:0.5;"/><path d="M1138.4307,430.6094 L1138.4307,440.6094 L1148.4307,440.6094 L1138.4307,430.6094" fill="#FEFFDD" style="stroke:#181818;stroke-width:0.5;"/><text fill="#000000" font-family="sans-serif" font-size="13" lengthAdjust="spacing" textLength="130.8062" x="921" y="449.1045">Meeting is not deleted.</text><text fill="#000000" font-family="sans-serif" font-size="13" lengthAdjust="spacing" textLength="177.0615" x="921" y="465.4561">Attendance cannot be marked.</text><text fill="#000000" font-family="sans-serif" font-size="13" lengthAdjust="spacing" textLength="212.4307" x="921" y="481.8076">History and audit information remain.</text></g><g class="entity" data-qualified-name="GMN25" data-source-line="34" id="ent0026"><path d="M331.5,438.6094 L331.5,456.1094 L114.14,460.1094 L331.5,464.1094 L331.5,481.3125 A0,0 0 0 0 331.5,481.3125 L615.5405,481.3125 A0,0 0 0 0 615.5405,481.3125 L615.5405,448.6094 L605.5405,438.6094 L331.5,438.6094 A0,0 0 0 0 331.5,438.6094" fill="#FEFFDD" style="stroke:#181818;stroke-width:0.5;"/><path d="M605.5405,438.6094 L605.5405,448.6094 L615.5405,448.6094 L605.5405,438.6094" fill="#FEFFDD" style="stroke:#181818;stroke-width:0.5;"/><text fill="#000000" font-family="sans-serif" font-size="13" lengthAdjust="spacing" textLength="79.4854" x="337.5" y="457.1045">Past meeting.</text><text fill="#000000" font-family="sans-serif" font-size="13" lengthAdjust="spacing" textLength="263.0405" x="337.5" y="473.4561">Authorized users can view or edit attendance.</text></g><!--link *start* to DRAFT--><g class="link" data-entity-1="ent0001" data-entity-2="ent0002" data-link-type="dependency" data-source-line="3" id="lnk3"><path d="M457.5,64.6894 C457.5,81.4694 457.5,112.8294 457.5,137.2594" fill="none" id="*start*-to-DRAFT" style="stroke:#181818;stroke-width:1;"/><polygon fill="#181818" points="457.5,142.2594,461.5,133.2594,457.5,137.2594,453.5,133.2594,457.5,142.2594" style="stroke:#181818;stroke-width:1;stroke-linejoin:miter;stroke-miterlimit:10;"/><text fill="#000000" font-family="sans-serif" font-size="13" lengthAdjust="spacing" textLength="170.5298" x="458.5" y="109.1045">admin creates partial meeting</text></g><!--link DRAFT to SCHEDULED--><g class="link" data-entity-1="ent0002" data-entity-2="ent0004" data-link-type="dependency" data-source-line="5" id="lnk5"><path d="M423.95,188.0594 C379.78,213.6494 306.4759,256.142 258.5659,283.912" fill="none" id="DRAFT-to-SCHEDULED" style="stroke:#181818;stroke-width:1;"/><polygon fill="#181818" points="254.24,286.4194,264.0324,285.3668,258.5659,283.912,260.0206,278.4454,254.24,286.4194" style="stroke:#181818;stroke-width:1;stroke-linejoin:miter;stroke-miterlimit:10;"/><text fill="#000000" font-family="sans-serif" font-size="13" lengthAdjust="spacing" textLength="145.2471" x="379.5918" y="237.1045">complete required details</text><text fill="#000000" font-family="sans-serif" font-size="13" lengthAdjust="spacing" textLength="173.4307" x="365.5" y="253.4561">and validate teacher/room/link</text></g><!--link DRAFT to CANCELLED--><g class="link" data-entity-1="ent0002" data-entity-2="ent0006" data-link-type="dependency" data-source-line="6" id="lnk7"><path d="M491.33,185.6194 C540.41,210.8994 627.89,258.4394 649.5,286.6094 C684.01,331.6094 695.6392,394.2432 699.8192,429.9832" fill="none" id="DRAFT-to-CANCELLED" style="stroke:#181818;stroke-width:1;"/><polygon fill="#181818" points="700.4,434.9494,703.3274,425.5456,699.8192,429.9832,695.3816,426.475,700.4,434.9494" style="stroke:#181818;stroke-width:1;stroke-linejoin:miter;stroke-miterlimit:10;"/><text fill="#000000" font-family="sans-serif" font-size="13" lengthAdjust="spacing" textLength="67.2026" x="677.5" y="317.1045">cancel draft</text></g><!--link SCHEDULED to CANCELLED--><g class="link" data-entity-1="ent0004" data-entity-2="ent0006" data-link-type="dependency" data-source-line="8" id="lnk8"><path d="M265.88,331.0594 C271.81,332.9794 277.77,334.8694 283.5,336.6094 C437.22,383.2394 480.26,379.3394 632.5,430.6094 C638.34,432.5794 639.7313,432.9897 645.7313,435.2897" fill="none" id="SCHEDULED-to-CANCELLED" style="stroke:#181818;stroke-width:1;"/><polygon fill="#181818" points="650.4,437.0794,643.428,430.123,645.7313,435.2897,640.5645,437.5929,650.4,437.0794" style="stroke:#181818;stroke-width:1;stroke-linejoin:miter;stroke-miterlimit:10;"/><text fill="#000000" font-family="sans-serif" font-size="13" lengthAdjust="spacing" textLength="87.439" x="533.5" y="389.1045">cancel meeting</text></g><!--link SCHEDULED to COMPLETED--><g class="link" data-entity-1="ent0004" data-entity-2="ent0009" data-link-type="dependency" data-source-line="9" id="lnk10"><path d="M187.4,336.7994 C159.24,363.9494 117.4201,404.2496 89.2401,431.4096" fill="none" id="SCHEDULED-to-COMPLETED" style="stroke:#181818;stroke-width:1;"/><polygon fill="#181818" points="85.64,434.8794,94.896,431.5138,89.2401,431.4096,89.3443,425.7537,85.64,434.8794" style="stroke:#181818;stroke-width:1;stroke-linejoin:miter;stroke-miterlimit:10;"/><text fill="#000000" font-family="sans-serif" font-size="13" lengthAdjust="spacing" textLength="119.2217" x="194.824" y="381.1045">meeting time passes</text><text fill="#000000" font-family="sans-serif" font-size="13" lengthAdjust="spacing" textLength="195.8696" x="156.5" y="397.4561">and attendance can be completed</text></g><!--link COMPLETED to COMPLETED--><g class="link" data-entity-1="ent0009" data-entity-2="ent0009" data-link-type="dependency" data-source-line="11" id="lnk11"><path d="M114.07,448.8694 C133.31,448.6294 149,452.3794 149,460.1094 C149,467.8394 138.3096,471.6517 119.0696,471.4117" fill="none" id="COMPLETED-to-COMPLETED" style="stroke:#181818;stroke-width:1;"/><polygon fill="#181818" points="114.07,471.3494,123.0194,475.4613,119.0696,471.4117,123.1192,467.4619,114.07,471.3494" style="stroke:#181818;stroke-width:1;stroke-linejoin:miter;stroke-miterlimit:10;"/><text fill="#000000" font-family="sans-serif" font-size="13" lengthAdjust="spacing" textLength="152.4771" x="155" y="465.6045">edit attendance/comments</text></g><!--link CANCELLED to CANCELLED--><g class="link" data-entity-1="ent0006" data-entity-2="ent0006" data-link-type="dependency" data-source-line="12" id="lnk12"><path d="M754.74,448.8794 C773.85,448.5694 789.5,452.3194 789.5,460.1094 C789.5,467.8994 778.8493,471.7305 759.7393,471.4205" fill="none" id="CANCELLED-to-CANCELLED" style="stroke:#181818;stroke-width:1;"/><polygon fill="#181818" points="754.74,471.3394,763.6739,475.4848,759.7393,471.4205,763.8037,467.4859,754.74,471.3394" style="stroke:#181818;stroke-width:1;stroke-linejoin:miter;stroke-miterlimit:10;"/><text fill="#000000" font-family="sans-serif" font-size="13" lengthAdjust="spacing" textLength="95.3672" x="795.5" y="465.6045">view history only</text></g><!--link CANCELLED to *end*--><g class="link" data-entity-1="ent0006" data-entity-2="ent0013" data-link-type="dependency" data-source-line="14" id="lnk14"><path d="M650.38,483.0794 C644.38,485.3794 638.33,487.6094 632.5,489.6094 C540.5,521.1894 431.0803,548.4156 396.0503,556.8756" fill="none" id="CANCELLED-to-*end*" style="stroke:#181818;stroke-width:1;"/><polygon fill="#181818" points="391.19,558.0494,400.8775,559.8248,396.0503,556.8756,398.9995,552.0483,391.19,558.0494" style="stroke:#181818;stroke-width:1;stroke-linejoin:miter;stroke-miterlimit:10;"/></g><!--link COMPLETED to *end*--><g class="link" data-entity-1="ent0009" data-entity-2="ent0013" data-link-type="dependency" data-source-line="15" id="lnk15"><path d="M114.06,477.7594 C191.99,501.9994 326.7954,543.9151 365.5254,555.9551" fill="none" id="COMPLETED-to-*end*" style="stroke:#181818;stroke-width:1;"/><polygon fill="#181818" points="370.3,557.4394,362.8931,550.948,365.5254,555.9551,360.5183,558.5874,370.3,557.4394" style="stroke:#181818;stroke-width:1;stroke-linejoin:miter;stroke-miterlimit:10;"/></g><?plantuml-src VLAxRXj13EptArW7aDMd223e5BYG4oDsqYGfg5jAHtWVof9dGVdwS4ywIJd0RdU7m-7CA6iWU59KWePnLp3239O1HHw8bDCErhobzjW6SkxdXzymcts2vjlYypDy1FIH4xI5R5nWZqKP0yJJe7CdM1ruMjwlck_hLMD3ROxxGBQlq9-U2tdmfCX1VYLC7buniAzobB3jgCnBpd4UEBtSy2qNNvQhzPaFKqi1VC6jEdVTz0PkL3S1VdruNA-U1-0P0SgHx2WHEaj3LKg-qbGosD3b5k_SbM7AHvxrPdPkGv6IYhkgcsfzPJf0nwAv726dS7GJi2KnsLXVNChLLzvr2dbxYiar9tSXuh5AvZIAldEBKtvs2teF5wD7XH0iXtBdJ3XKvYd_nKBtWuKtePB3ljy4Rg7wjQSYELaZn8BqVI2nbLSFMG13o0ThG3qH3XsPgRrm8X4e5J_O_xQ0YoTkBAjn6iGQDQJotpexitwP1H7BI_syFniyPDlNb3XjSuced9FLCoAdTvQFzhj751rROojxxNBXltPMB-R0uEyGQ2xJBjom_mC0?></g></svg>