<svg xmlns="http://www.w3.org/2000/svg" xmlns:xlink="http://www.w3.org/1999/xlink" contentStyleType="text/css" data-diagram-type="STATE" height="545px" preserveAspectRatio="none" style="width:780px;height:545px;background:#FFFFFF;" version="1.1" viewBox="0 0 780 545" width="780px" zoomAndPan="magnify"><?plantuml 1.2026.5?><defs/><g><g class="title" data-source-line="1"><text fill="#000000" font-family="sans-serif" font-size="14" font-weight="700" lengthAdjust="spacing" textLength="247.3926" x="262.8754" y="24.5332">State Diagram - Notification Lifecycle</text></g><g class="start_entity" data-qualified-name=".start." data-source-line="3" id="ent0001"><ellipse cx="434.28" cy="54.6094" fill="#222222" rx="10" ry="10" style="stroke:#222222;stroke-width:1;"/></g><g class="entity" data-qualified-name="DRAFT" data-source-line="3" id="ent0002"><rect fill="#F1F1F1" height="50" rx="12.5" ry="12.5" style="stroke:#181818;stroke-width:0.5;" width="66.6621" x="400.78" y="142.6094"/><line style="stroke:#181818;stroke-width:0.5;" x1="400.78" x2="467.4421" y1="170.2188" y2="170.2188"/><text fill="#000000" font-family="sans-serif" font-size="14" lengthAdjust="spacing" textLength="46.6621" x="410.78" y="162.1426">DRAFT</text></g><g class="entity" data-qualified-name="PENDING" data-source-line="5" id="ent0004"><rect fill="#F1F1F1" height="50" rx="12.5" ry="12.5" style="stroke:#181818;stroke-width:0.5;" width="83.7861" x="184.28" y="270.6094"/><line style="stroke:#181818;stroke-width:0.5;" x1="184.28" x2="268.0661" y1="298.2188" y2="298.2188"/><text fill="#000000" font-family="sans-serif" font-size="14" lengthAdjust="spacing" textLength="63.7861" x="194.28" y="290.1426">PENDING</text></g><g class="entity" data-qualified-name="SENT" data-source-line="6" id="ent0006"><rect fill="#F1F1F1" height="50" rx="12.5" ry="12.5" style="stroke:#181818;stroke-width:0.5;" width="57.3379" x="277.78" y="398.6094"/><line style="stroke:#181818;stroke-width:0.5;" x1="277.78" x2="335.1179" y1="426.2188" y2="426.2188"/><text fill="#000000" font-family="sans-serif" font-size="14" lengthAdjust="spacing" textLength="37.3379" x="287.78" y="418.1426">SENT</text></g><g class="entity" data-qualified-name="CANCELLED" data-source-line="7" id="ent0008"><rect fill="#F1F1F1" height="50" rx="12.5" ry="12.5" style="stroke:#181818;stroke-width:0.5;" width="104.0273" x="99.28" y="398.6094"/><line style="stroke:#181818;stroke-width:0.5;" x1="99.28" x2="203.3073" y1="426.2188" y2="426.2188"/><text fill="#000000" font-family="sans-serif" font-size="14" lengthAdjust="spacing" textLength="84.0273" x="109.28" y="418.1426">CANCELLED</text></g><g class="entity" data-qualified-name="FAILED" data-source-line="10" id="ent0011"><rect fill="#F1F1F1" height="50" rx="12.5" ry="12.5" style="stroke:#181818;stroke-width:0.5;" width="69.0137" x="32.78" y="142.6094"/><line style="stroke:#181818;stroke-width:0.5;" x1="32.78" x2="101.7937" y1="170.2188" y2="170.2188"/><text fill="#000000" font-family="sans-serif" font-size="14" lengthAdjust="spacing" textLength="49.0137" x="42.78" y="162.1426">FAILED</text></g><g class="end_entity" data-qualified-name=".end." data-source-line="18" id="ent0017"><ellipse cx="208.28" cy="520.6094" fill="none" rx="11" ry="11" style="stroke:#222222;stroke-width:1;"/><ellipse cx="208.28" cy="520.6094" fill="#222222" rx="6" ry="6" style="stroke:#222222;stroke-width:1;"/></g><g class="entity" data-qualified-name="GMN20" data-source-line="22" id="ent0021"><path d="M541.78,402.1094 L541.78,419.6094 L335.08,423.6094 L541.78,427.6094 L541.78,444.8125 A0,0 0 0 0 541.78,444.8125 L765.1433,444.8125 A0,0 0 0 0 765.1433,444.8125 L765.1433,412.1094 L755.1433,402.1094 L541.78,402.1094 A0,0 0 0 0 541.78,402.1094" fill="#FEFFDD" style="stroke:#181818;stroke-width:0.5;"/><path d="M755.1433,402.1094 L755.1433,412.1094 L765.1433,412.1094 L755.1433,402.1094" fill="#FEFFDD" style="stroke:#181818;stroke-width:0.5;"/><text fill="#000000" font-family="sans-serif" font-size="13" lengthAdjust="spacing" textLength="202.3633" x="547.78" y="420.6045">Sent notifications cannot be edited.</text><text fill="#000000" font-family="sans-serif" font-size="13" lengthAdjust="spacing" textLength="150.2935" x="547.78" y="436.9561">They may only be viewed.</text></g><g class="entity" data-qualified-name="GMN23" data-source-line="27" id="ent0024"><path d="M136.78,146.1094 L136.78,163.6094 L101.8,167.6094 L136.78,171.6094 L136.78,188.8125 A0,0 0 0 0 136.78,188.8125 L347.8225,188.8125 A0,0 0 0 0 347.8225,188.8125 L347.8225,156.1094 L337.8225,146.1094 L136.78,146.1094 A0,0 0 0 0 136.78,146.1094" fill="#FEFFDD" style="stroke:#181818;stroke-width:0.5;"/><path d="M337.8225,146.1094 L337.8225,156.1094 L347.8225,156.1094 L337.8225,146.1094" fill="#FEFFDD" style="stroke:#181818;stroke-width:0.5;"/><text fill="#000000" font-family="sans-serif" font-size="13" lengthAdjust="spacing" textLength="190.0425" x="142.78" y="164.6045">Admin may edit failed notification</text><text fill="#000000" font-family="sans-serif" font-size="13" lengthAdjust="spacing" textLength="78.7744" x="142.78" y="180.9561">and try again.</text></g><!--link *start* to DRAFT--><g class="link" data-entity-1="ent0001" data-entity-2="ent0002" data-link-type="dependency" data-source-line="3" id="lnk3"><path d="M434.28,64.6894 C434.28,81.4694 434.28,112.8294 434.28,137.2594" fill="none" id="*start*-to-DRAFT" style="stroke:#181818;stroke-width:1;"/><polygon fill="#181818" points="434.28,142.2594,438.28,133.2594,434.28,137.2594,430.28,133.2594,434.28,142.2594" style="stroke:#181818;stroke-width:1;stroke-linejoin:miter;stroke-miterlimit:10;"/><text fill="#000000" font-family="sans-serif" font-size="13" lengthAdjust="spacing" textLength="147.4116" x="435.28" y="109.1045">admin creates notification</text></g><!--link DRAFT to PENDING--><g class="link" data-entity-1="ent0002" data-entity-2="ent0004" data-link-type="dependency" data-source-line="5" id="lnk5"><path d="M400.61,180.7094 C362.19,194.6494 303.47,216.4394 294.28,222.6094 C274.86,235.6394 260.0522,251.2763 247.4622,266.6963" fill="none" id="DRAFT-to-PENDING" style="stroke:#181818;stroke-width:1;"/><polygon fill="#181818" points="244.3,270.5694,253.0904,266.1277,247.4622,266.6963,246.8936,261.0681,244.3,270.5694" style="stroke:#181818;stroke-width:1;stroke-linejoin:miter;stroke-miterlimit:10;"/><text fill="#000000" font-family="sans-serif" font-size="13" lengthAdjust="spacing" textLength="112.7407" x="295.28" y="237.1045">schedule/send later</text></g><!--link DRAFT to SENT--><g class="link" data-entity-1="ent0002" data-entity-2="ent0006" data-link-type="dependency" data-source-line="6" id="lnk7"><path d="M461,192.6594 C490.49,222.2594 531.29,274.3094 511.28,320.6094 C481.48,389.5794 388.8873,411.5856 339.8773,418.7556" fill="none" id="DRAFT-to-SENT" style="stroke:#181818;stroke-width:1;"/><polygon fill="#181818" points="334.93,419.4794,344.4142,422.1344,339.8773,418.7556,343.2562,414.2187,334.93,419.4794" style="stroke:#181818;stroke-width:1;stroke-linejoin:miter;stroke-miterlimit:10;"/><text fill="#000000" font-family="sans-serif" font-size="13" lengthAdjust="spacing" textLength="101.1563" x="517.28" y="301.1045">send immediately</text></g><!--link DRAFT to CANCELLED--><g class="link" data-entity-1="ent0002" data-entity-2="ent0008" data-link-type="dependency" data-source-line="7" id="lnk9"><path d="M436.69,192.7394 C439.44,234.6394 438.52,320.9194 391.28,368.6094 C390.44,369.4594 278.6412,394.3661 208.3012,409.9761" fill="none" id="DRAFT-to-CANCELLED" style="stroke:#181818;stroke-width:1;"/><polygon fill="#181818" points="203.42,411.0594,213.0728,413.0145,208.3012,409.9761,211.3396,405.2045,203.42,411.0594" style="stroke:#181818;stroke-width:1;stroke-linejoin:miter;stroke-miterlimit:10;"/><text fill="#000000" font-family="sans-serif" font-size="13" lengthAdjust="spacing" textLength="67.2026" x="434.28" y="301.1045">cancel draft</text></g><!--link PENDING to SENT--><g class="link" data-entity-1="ent0004" data-entity-2="ent0006" data-link-type="dependency" data-source-line="9" id="lnk10"><path d="M245.87,320.7694 C252.94,329.8994 260.77,340.5194 267.28,350.6094 C277.22,366.0194 284.7678,379.7306 292.0678,393.9606" fill="none" id="PENDING-to-SENT" style="stroke:#181818;stroke-width:1;"/><polygon fill="#181818" points="294.35,398.4094,293.801,388.5758,292.0678,393.9606,286.683,392.2274,294.35,398.4094" style="stroke:#181818;stroke-width:1;stroke-linejoin:miter;stroke-miterlimit:10;"/><text fill="#000000" font-family="sans-serif" font-size="13" lengthAdjust="spacing" textLength="103.3271" x="279.28" y="365.1045">delivery succeeds</text></g><!--link PENDING to FAILED--><g class="link" data-entity-1="ent0004" data-entity-2="ent0011" data-link-type="dependency" data-source-line="10" id="lnk12"><path d="M200.71,270.4394 C185.1,256.0494 164.51,237.7194 145.28,222.6094 C131.55,211.8194 119.956,203.5189 106.236,194.1989" fill="none" id="PENDING-to-FAILED" style="stroke:#181818;stroke-width:1;"/><polygon fill="#181818" points="102.1,191.3894,107.2971,199.7554,106.236,194.1989,111.7924,193.1378,102.1,191.3894" style="stroke:#181818;stroke-width:1;stroke-linejoin:miter;stroke-miterlimit:10;"/><text fill="#000000" font-family="sans-serif" font-size="13" lengthAdjust="spacing" textLength="71.5254" x="167.28" y="237.1045">delivery fails</text></g><!--link FAILED to PENDING--><g class="link" data-entity-1="ent0011" data-entity-2="ent0004" data-link-type="dependency" data-source-line="13" id="lnk14"><path d="M57.22,192.8494 C52.68,207.9694 50.29,227.0694 60.28,240.6094 C87.06,276.9294 114.41,256.5294 157.28,270.6094 C165.96,273.4594 170.4846,274.9653 179.3046,278.0153" fill="none" id="FAILED-to-PENDING" style="stroke:#181818;stroke-width:1;"/><polygon fill="#181818" points="184.03,279.6494,176.8315,272.9277,179.3046,278.0153,174.2169,280.4884,184.03,279.6494" style="stroke:#181818;stroke-width:1;stroke-linejoin:miter;stroke-miterlimit:10;"/><text fill="#000000" font-family="sans-serif" font-size="13" lengthAdjust="spacing" textLength="75.8735" x="61.28" y="237.1045">edit and retry</text></g><!--link PENDING to CANCELLED--><g class="link" data-entity-1="ent0004" data-entity-2="ent0008" data-link-type="dependency" data-source-line="11" id="lnk13"><path d="M184.25,310.3994 C154.04,321.2594 117.14,336.8194 108.28,350.6094 C98.21,366.2894 105.5307,380.6507 118.8007,394.7307" fill="none" id="PENDING-to-CANCELLED" style="stroke:#181818;stroke-width:1;"/><polygon fill="#181818" points="122.23,398.3694,118.9681,389.0764,118.8007,394.7307,113.1463,394.5633,122.23,398.3694" style="stroke:#181818;stroke-width:1;stroke-linejoin:miter;stroke-miterlimit:10;"/><text fill="#000000" font-family="sans-serif" font-size="13" lengthAdjust="spacing" textLength="153.2197" x="109.28" y="365.1045">cancel pending notification</text></g><!--link FAILED to CANCELLED--><g class="link" data-entity-1="ent0011" data-entity-2="ent0008" data-link-type="dependency" data-source-line="14" id="lnk15"><path d="M50.75,192.7094 C31.86,223.4994 6,277.8894 26.28,320.6094 C42.44,354.6394 71.8608,378.4504 100.1908,395.8704" fill="none" id="FAILED-to-CANCELLED" style="stroke:#181818;stroke-width:1;"/><polygon fill="#181818" points="104.45,398.4894,98.8786,390.3678,100.1908,395.8704,94.6882,397.1826,104.45,398.4894" style="stroke:#181818;stroke-width:1;stroke-linejoin:miter;stroke-miterlimit:10;"/><text fill="#000000" font-family="sans-serif" font-size="13" lengthAdjust="spacing" textLength="138.0298" x="27.28" y="301.1045">cancel failed notification</text></g><!--link SENT to SENT--><g class="link" data-entity-1="ent0006" data-entity-2="ent0006" data-link-type="dependency" data-source-line="16" id="lnk16"><path d="M335.01,414.1994 C352.83,411.9294 369.78,415.0694 369.78,423.6094 C369.78,432.1494 357.7899,435.9212 339.9699,433.6512" fill="none" id="SENT-to-SENT" style="stroke:#181818;stroke-width:1;"/><polygon fill="#181818" points="335.01,433.0194,343.4324,438.1246,339.9699,433.6512,344.4433,430.1887,335.01,433.0194" style="stroke:#181818;stroke-width:1;stroke-linejoin:miter;stroke-miterlimit:10;"/><text fill="#000000" font-family="sans-serif" font-size="13" lengthAdjust="spacing" textLength="53.4663" x="420.2422" y="421.1045">view only</text><text fill="#000000" font-family="sans-serif" font-size="13" lengthAdjust="spacing" textLength="142.3906" x="375.78" y="437.4561">content cannot be edited</text></g><!--link SENT to *end*--><g class="link" data-entity-1="ent0006" data-entity-2="ent0017" data-link-type="dependency" data-source-line="18" id="lnk18"><path d="M281.3,448.8294 C259.75,469.7194 233.5493,495.1084 219.6293,508.6084" fill="none" id="SENT-to-*end*" style="stroke:#181818;stroke-width:1;"/><polygon fill="#181818" points="216.04,512.0894,225.2855,508.695,219.6293,508.6084,219.7159,502.9522,216.04,512.0894" style="stroke:#181818;stroke-width:1;stroke-linejoin:miter;stroke-miterlimit:10;"/></g><!--link CANCELLED to *end*--><g class="link" data-entity-1="ent0008" data-entity-2="ent0017" data-link-type="dependency" data-source-line="19" id="lnk19"><path d="M165.96,449.0694 C178.1,469.3094 192.078,492.6016 200.428,506.5216" fill="none" id="CANCELLED-to-*end*" style="stroke:#181818;stroke-width:1;"/><polygon fill="#181818" points="203,510.8094,201.8005,501.0338,200.428,506.5216,194.9402,505.1491,203,510.8094" style="stroke:#181818;stroke-width:1;stroke-linejoin:miter;stroke-miterlimit:10;"/></g><?plantuml-src RP91JuGm48Nl_HLpDa7l7ZOX2sis8SJ8tjH3RGUOf1JJTjVqtziMLmlkbVdUU_EcE78AeNFS8LJ41yCdAA2T7VKakADPGqCz2YyKClPwzmv5iOFgfJoSu16ud4Y3C1Za5dIcOcnX8lrSjzMnVGgy5IFAiy87Yrg22YgJSLtTHjCqesb2IG5GFYFsPRklcwQk0YQu5gX06juxnguPcOz4HHSq7knP24HfLz2XF2u-lrZFIQsP6t6VOJdImwRhZzcwRDZV0GzT33hZS-Q6Rmn7kR5DHR965y8lcBNoRrhCsg5sKHuqy84f3cKc2e_5_fAkNrZ04GmDeuEvJywiYqvvjFtdUyzE8tgOk4yBn47S9WxYSqNJhVLIc9Nf7ud2T91RHUEHmec03vnqPlWD?></g></svg>