<svg xmlns="http://www.w3.org/2000/svg" xmlns:xlink="http://www.w3.org/1999/xlink" contentStyleType="text/css" data-diagram-type="STATE" height="590px" preserveAspectRatio="none" style="width:1070px;height:590px;background:#FFFFFF;" version="1.1" viewBox="0 0 1070 590" width="1070px" zoomAndPan="magnify"><?plantuml 1.2026.5?><defs/><g><g class="title" data-source-line="1"><text fill="#000000" font-family="sans-serif" font-size="14" font-weight="700" lengthAdjust="spacing" textLength="385.0547" x="338.9795" y="24.5332">State Diagram - AttendanceReport Generation And Export</text></g><g class="start_entity" data-qualified-name=".start." data-source-line="3" id="ent0001"><ellipse cx="515.5" cy="54.6094" fill="#222222" rx="10" ry="10" style="stroke:#222222;stroke-width:1;"/></g><g class="entity" data-qualified-name="FILTER_SELECTED" data-source-line="3" id="ent0002"><rect fill="#F1F1F1" height="50" rx="12.5" ry="12.5" style="stroke:#181818;stroke-width:0.5;" width="149.9238" x="440.5" y="142.6094"/><line style="stroke:#181818;stroke-width:0.5;" x1="440.5" x2="590.4238" y1="170.2188" y2="170.2188"/><text fill="#000000" font-family="sans-serif" font-size="14" lengthAdjust="spacing" textLength="129.9238" x="450.5" y="162.1426">FILTER_SELECTED</text></g><g class="entity" data-qualified-name="GENERATING" data-source-line="5" id="ent0004"><rect fill="#F1F1F1" height="50" rx="12.5" ry="12.5" style="stroke:#181818;stroke-width:0.5;" width="112.5654" x="583" y="270.6094"/><line style="stroke:#181818;stroke-width:0.5;" x1="583" x2="695.5654" y1="298.2188" y2="298.2188"/><text fill="#000000" font-family="sans-serif" font-size="14" lengthAdjust="spacing" textLength="92.5654" x="593" y="290.1426">GENERATING</text></g><g class="entity" data-qualified-name="GENERATED_EMPTY" data-source-line="6" id="ent0006"><rect fill="#F1F1F1" height="50" rx="12.5" ry="12.5" style="stroke:#181818;stroke-width:0.5;" width="163.1377" x="569" y="398.6094"/><line style="stroke:#181818;stroke-width:0.5;" x1="569" x2="732.1377" y1="426.2188" y2="426.2188"/><text fill="#000000" font-family="sans-serif" font-size="14" lengthAdjust="spacing" textLength="143.1377" x="579" y="418.1426">GENERATED_EMPTY</text></g><g class="entity" data-qualified-name="GENERATED_WITH_LINES" data-source-line="7" id="ent0008"><rect fill="#F1F1F1" height="50" rx="12.5" ry="12.5" style="stroke:#181818;stroke-width:0.5;" width="198.9238" x="7" y="398.6094"/><line style="stroke:#181818;stroke-width:0.5;" x1="7" x2="205.9238" y1="426.2188" y2="426.2188"/><text fill="#000000" font-family="sans-serif" font-size="14" lengthAdjust="spacing" textLength="178.9238" x="17" y="418.1426">GENERATED_WITH_LINES</text></g><g class="entity" data-qualified-name="FAILED" data-source-line="8" id="ent0010"><rect fill="#F1F1F1" height="50" rx="12.5" ry="12.5" style="stroke:#181818;stroke-width:0.5;" width="69.0137" x="986" y="398.6094"/><line style="stroke:#181818;stroke-width:0.5;" x1="986" x2="1055.0137" y1="426.2188" y2="426.2188"/><text fill="#000000" font-family="sans-serif" font-size="14" lengthAdjust="spacing" textLength="49.0137" x="996" y="418.1426">FAILED</text></g><g class="entity" data-qualified-name="EXPORTED" data-source-line="13" id="ent0014"><rect fill="#F1F1F1" height="50" rx="12.5" ry="12.5" style="stroke:#181818;stroke-width:0.5;" width="97.0137" x="58" y="526.6094"/><line style="stroke:#181818;stroke-width:0.5;" x1="58" x2="155.0137" y1="554.2188" y2="554.2188"/><text fill="#000000" font-family="sans-serif" font-size="14" lengthAdjust="spacing" textLength="77.0137" x="68" y="546.1426">EXPORTED</text></g><g class="entity" data-qualified-name="GMN19" data-source-line="21" id="ent0020"><path d="M626,146.1094 L626,163.6094 L590.86,167.6094 L626,171.6094 L626,188.8125 A0,0 0 0 0 626,188.8125 L841.3525,188.8125 A0,0 0 0 0 841.3525,188.8125 L841.3525,156.1094 L831.3525,146.1094 L626,146.1094 A0,0 0 0 0 626,146.1094" fill="#FEFFDD" style="stroke:#181818;stroke-width:0.5;"/><path d="M831.3525,146.1094 L831.3525,156.1094 L841.3525,156.1094 L831.3525,146.1094" fill="#FEFFDD" style="stroke:#181818;stroke-width:0.5;"/><text fill="#000000" font-family="sans-serif" font-size="13" lengthAdjust="spacing" textLength="110.5508" x="632" y="164.6045">Filters are optional.</text><text fill="#000000" font-family="sans-serif" font-size="13" lengthAdjust="spacing" textLength="194.3525" x="632" y="180.9561">Null or empty means unrestricted.</text></g><g class="entity" data-qualified-name="GMN22" data-source-line="26" id="ent0023"><path d="M241,402.1094 L241,419.6094 L206.11,423.6094 L241,427.6094 L241,444.8125 A0,0 0 0 0 241,444.8125 L533.7495,444.8125 A0,0 0 0 0 533.7495,444.8125 L533.7495,412.1094 L523.7495,402.1094 L241,402.1094 A0,0 0 0 0 241,402.1094" fill="#FEFFDD" style="stroke:#181818;stroke-width:0.5;"/><path d="M523.7495,402.1094 L523.7495,412.1094 L533.7495,412.1094 L523.7495,402.1094" fill="#FEFFDD" style="stroke:#181818;stroke-width:0.5;"/><text fill="#000000" font-family="sans-serif" font-size="13" lengthAdjust="spacing" textLength="254.3569" x="247" y="420.6045">overallPerformancePercentage is calculated</text><text fill="#000000" font-family="sans-serif" font-size="13" lengthAdjust="spacing" textLength="271.7495" x="247" y="436.9561">as average ReportLine attendance percentage.</text></g><g class="entity" data-qualified-name="GMN25" data-source-line="31" id="ent0026"><path d="M190.5,530.1094 L190.5,547.6094 L155.03,551.6094 L190.5,555.6094 L190.5,572.8125 A0,0 0 0 0 190.5,572.8125 L426.8315,572.8125 A0,0 0 0 0 426.8315,572.8125 L426.8315,540.1094 L416.8315,530.1094 L190.5,530.1094 A0,0 0 0 0 190.5,530.1094" fill="#FEFFDD" style="stroke:#181818;stroke-width:0.5;"/><path d="M416.8315,530.1094 L416.8315,540.1094 L426.8315,540.1094 L416.8315,530.1094" fill="#FEFFDD" style="stroke:#181818;stroke-width:0.5;"/><text fill="#000000" font-family="sans-serif" font-size="13" lengthAdjust="spacing" textLength="208.1143" x="196.5" y="548.6045">CSV includes metadata, conclusion,</text><text fill="#000000" font-family="sans-serif" font-size="13" lengthAdjust="spacing" textLength="215.3315" x="196.5" y="564.9561">overall performance, and report lines.</text></g><!--link *start* to FILTER_SELECTED--><g class="link" data-entity-1="ent0001" data-entity-2="ent0002" data-link-type="dependency" data-source-line="3" id="lnk3"><path d="M515.5,64.6894 C515.5,81.4694 515.5,112.8294 515.5,137.2594" fill="none" id="*start*-to-FILTER_SELECTED" style="stroke:#181818;stroke-width:1;"/><polygon fill="#181818" points="515.5,142.2594,519.5,133.2594,515.5,137.2594,511.5,133.2594,515.5,142.2594" style="stroke:#181818;stroke-width:1;stroke-linejoin:miter;stroke-miterlimit:10;"/><text fill="#000000" font-family="sans-serif" font-size="13" lengthAdjust="spacing" textLength="203.0298" x="516.5" y="109.1045">administrator selects optional filters</text></g><!--link FILTER_SELECTED to GENERATING--><g class="link" data-entity-1="ent0002" data-entity-2="ent0004" data-link-type="dependency" data-source-line="5" id="lnk5"><path d="M539.41,192.8994 C561.37,215.2194 590.2234,244.5352 612.1534,266.8252" fill="none" id="FILTER_SELECTED-to-GENERATING" style="stroke:#181818;stroke-width:1;"/><polygon fill="#181818" points="615.66,270.3894,612.1994,261.1685,612.1534,266.8252,606.4967,266.7791,615.66,270.3894" style="stroke:#181818;stroke-width:1;stroke-linejoin:miter;stroke-miterlimit:10;"/><text fill="#000000" font-family="sans-serif" font-size="13" lengthAdjust="spacing" textLength="125.7217" x="586.5" y="237.1045">click Generate Report</text></g><!--link GENERATING to GENERATED_EMPTY--><g class="link" data-entity-1="ent0004" data-entity-2="ent0006" data-link-type="dependency" data-source-line="6" id="lnk7"><path d="M641.62,320.8994 C643.57,343.2194 646.0042,371.1184 647.9542,393.4084" fill="none" id="GENERATING-to-GENERATED_EMPTY" style="stroke:#181818;stroke-width:1;"/><polygon fill="#181818" points="648.39,398.3894,651.5904,389.075,647.9542,393.4084,643.6209,389.7722,648.39,398.3894" style="stroke:#181818;stroke-width:1;stroke-linejoin:miter;stroke-miterlimit:10;"/><text fill="#000000" font-family="sans-serif" font-size="13" lengthAdjust="spacing" textLength="138.7407" x="647.5" y="365.1045">no matching report lines</text></g><!--link GENERATING to GENERATED_WITH_LINES--><g class="link" data-entity-1="ent0004" data-entity-2="ent0008" data-link-type="dependency" data-source-line="7" id="lnk9"><path d="M582.96,309.9694 C493.35,331.1594 322.3259,371.5892 211.1459,397.8692" fill="none" id="GENERATING-to-GENERATED_WITH_LINES" style="stroke:#181818;stroke-width:1;"/><polygon fill="#181818" points="206.28,399.0194,215.9588,400.8418,211.1459,397.8692,214.1185,393.0563,206.28,399.0194" style="stroke:#181818;stroke-width:1;stroke-linejoin:miter;stroke-miterlimit:10;"/><text fill="#000000" font-family="sans-serif" font-size="13" lengthAdjust="spacing" textLength="111.2808" x="406.5" y="365.1045">report lines created</text></g><!--link GENERATING to FAILED--><g class="link" data-entity-1="ent0004" data-entity-2="ent0010" data-link-type="dependency" data-source-line="8" id="lnk11"><path d="M696.15,311.7194 C762.33,329.9294 874.71,362.6094 968.5,398.6094 C974.16,400.7794 975.5119,401.2465 981.2419,403.7965" fill="none" id="GENERATING-to-FAILED" style="stroke:#181818;stroke-width:1;"/><polygon fill="#181818" points="985.81,405.8294,979.2138,398.5157,981.2419,403.7965,975.9611,405.8246,985.81,405.8294" style="stroke:#181818;stroke-width:1;stroke-linejoin:miter;stroke-miterlimit:10;"/><text fill="#000000" font-family="sans-serif" font-size="13" lengthAdjust="spacing" textLength="92.498" x="879.5" y="365.1045">generation error</text></g><!--link GENERATED_EMPTY to FILTER_SELECTED--><g class="link" data-entity-1="ent0006" data-entity-2="ent0002" data-link-type="dependency" data-source-line="10" id="lnk12"><path d="M568.99,402.8894 C524.4,391.2794 476.91,377.2294 470.5,368.6094 C430.77,315.2094 470.4154,237.3275 496.1154,196.9475" fill="none" id="GENERATED_EMPTY-to-FILTER_SELECTED" style="stroke:#181818;stroke-width:1;"/><polygon fill="#181818" points="498.8,192.7294,490.5931,198.1743,496.1154,196.9475,497.3421,202.4697,498.8,192.7294" style="stroke:#181818;stroke-width:1;stroke-linejoin:miter;stroke-miterlimit:10;"/><text fill="#000000" font-family="sans-serif" font-size="13" lengthAdjust="spacing" textLength="77.3208" x="462.5" y="301.1045">change filters</text></g><!--link GENERATED_EMPTY to GENERATED_EMPTY--><g class="link" data-entity-1="ent0006" data-entity-2="ent0006" data-link-type="dependency" data-source-line="11" id="lnk13"><path d="M732.16,411.7994 C752.13,412.6694 767,416.6094 767,423.6094 C767,430.6094 757.1253,434.3318 737.1553,435.2018" fill="none" id="GENERATED_EMPTY-to-GENERATED_EMPTY" style="stroke:#181818;stroke-width:1;"/><polygon fill="#181818" points="732.16,435.4194,741.3256,439.0239,737.1553,435.2018,740.9774,431.0314,732.16,435.4194" style="stroke:#181818;stroke-width:1;stroke-linejoin:miter;stroke-miterlimit:10;"/><text fill="#000000" font-family="sans-serif" font-size="13" lengthAdjust="spacing" textLength="84.5508" x="825.3047" y="421.1045">export blocked</text><text fill="#000000" font-family="sans-serif" font-size="13" lengthAdjust="spacing" textLength="189.1602" x="773" y="437.4561">"Cannot export an empty report."</text></g><!--link GENERATED_WITH_LINES to EXPORTED--><g class="link" data-entity-1="ent0008" data-entity-2="ent0014" data-link-type="dependency" data-source-line="13" id="lnk15"><path d="M72.1,448.7894 C63.02,457.0994 54.4,467.2094 49.5,478.6094 C41.88,496.3294 50.4049,510.1224 65.5249,523.1724" fill="none" id="GENERATED_WITH_LINES-to-EXPORTED" style="stroke:#181818;stroke-width:1;"/><polygon fill="#181818" points="69.31,526.4394,65.1103,517.5308,65.5249,523.1724,59.8832,523.587,69.31,526.4394" style="stroke:#181818;stroke-width:1;stroke-linejoin:miter;stroke-miterlimit:10;"/><text fill="#000000" font-family="sans-serif" font-size="13" lengthAdjust="spacing" textLength="66.4727" x="50.5" y="493.1045">export CSV</text></g><!--link EXPORTED to GENERATED_WITH_LINES--><g class="link" data-entity-1="ent0014" data-entity-2="ent0008" data-link-type="dependency" data-source-line="18" id="lnk18"><path d="M114.72,526.4394 C117.45,517.2194 120.15,506.5394 121.5,496.6094 C123.69,480.5394 121.4841,467.4802 117.2241,453.5702" fill="none" id="EXPORTED-to-GENERATED_WITH_LINES" style="stroke:#181818;stroke-width:1;"/><polygon fill="#181818" points="115.76,448.7894,114.5708,458.5662,117.2241,453.5702,122.2201,456.2235,115.76,448.7894" style="stroke:#181818;stroke-width:1;stroke-linejoin:miter;stroke-miterlimit:10;"/><text fill="#000000" font-family="sans-serif" font-size="13" lengthAdjust="spacing" textLength="138.7344" x="123.5" y="493.1045">report remains available</text></g><!--link GENERATED_WITH_LINES to FILTER_SELECTED--><g class="link" data-entity-1="ent0008" data-entity-2="ent0002" data-link-type="dependency" data-source-line="14" id="lnk16"><path d="M135.05,398.3994 C173.11,366.7794 243.27,310.7394 308.5,270.6094 C357.64,240.3794 412.4309,213.9422 454.9609,194.7922" fill="none" id="GENERATED_WITH_LINES-to-FILTER_SELECTED" style="stroke:#181818;stroke-width:1;"/><polygon fill="#181818" points="459.52,192.7394,449.6713,192.7872,454.9609,194.7922,452.9558,200.0818,459.52,192.7394" style="stroke:#181818;stroke-width:1;stroke-linejoin:miter;stroke-miterlimit:10;"/><text fill="#000000" font-family="sans-serif" font-size="13" lengthAdjust="spacing" textLength="136.5952" x="309.5" y="301.1045">generate another report</text></g><!--link FAILED to FILTER_SELECTED--><g class="link" data-entity-1="ent0010" data-entity-2="ent0002" data-link-type="dependency" data-source-line="16" id="lnk17"><path d="M1011.51,398.4794 C1004.84,383.2094 994.48,363.9194 980.5,350.6094 C887.19,261.8194 841.16,267.6794 720.5,222.6094 C714.12,220.2294 651.4397,203.8054 595.6097,189.3154" fill="none" id="FAILED-to-FILTER_SELECTED" style="stroke:#181818;stroke-width:1;"/><polygon fill="#181818" points="590.77,188.0594,598.4765,194.192,595.6097,189.3154,600.4862,186.4486,590.77,188.0594" style="stroke:#181818;stroke-width:1;stroke-linejoin:miter;stroke-miterlimit:10;"/><text fill="#000000" font-family="sans-serif" font-size="13" lengthAdjust="spacing" textLength="91.7554" x="945.5" y="301.1045">fix filters or data</text></g><?plantuml-src XLDTZzem47pthrZTOmNyW3wSXC1Gf1n54FL3RONsd2LOvzZ8MKxNVzyr8McQ0_NDiZopCxDZjkm8TenCCBTOHgnW35DcyWLwGriwXSYm94yHsGOFKr-0VaktIltuy0l6uqTOhB9SR_SxdUbPhkVm4R2ehBSr2oX4gCcHuHh2AL6WWuDrJB5MQeXCR4kzrjjflbelXSWuQrxQ-GID7jLxqaFe-Lu_RVBl0lC1AcHpjBw4s7XmrbDz7_brbN_QPwkrtWcy3m4JIKONG-XYkiekNik_uL2C8Ierr7Cx8tD4NrANnItGUsDqYHwUNJ0lLFpq3pFqFd1xZwAXEl7lguF9GrzCps8YrzysdxUDb2jwjljo__bx0sMx5HG5HuhNeRBL9fhRg8DzQps3TAD0HgKwBVzVIgGAhQy1Nz4wV7Qab8mdYBOyCeJ3SAHQN8TXfAw14xK-EvVcDt5LX49vzf6aizR8kYTAlW0avY7_BNagl4eKpcqe7aAiqjUHeo7FA2ksKY9qvkmkFSAaNLwNRPqpgHbWz-VWr27lYsW3Kx8piDwuSo5LhOWn1Je24z9TBMP7hRR4sueRoSwAVshU6_K7?></g></svg>