<svg xmlns="http://www.w3.org/2000/svg" xmlns:xlink="http://www.w3.org/1999/xlink" contentStyleType="text/css" data-diagram-type="DESCRIPTION" height="1438px" preserveAspectRatio="none" style="width:830px;height:1438px;background:#FFFFFF;" version="1.1" viewBox="0 0 830 1438" width="830px" zoomAndPan="magnify"><?plantuml 1.2026.5?><defs/><g><g class="title" data-source-line="1"><text fill="#000000" font-family="sans-serif" font-size="14" font-weight="700" lengthAdjust="spacing" textLength="416.2813" x="203.4314" y="24.5332">University Academic Management System - Use Case Diagram</text></g><!--cluster University Academic Management System--><g class="cluster" data-qualified-name="University Academic Management System" data-source-line="12" id="ent0005"><rect fill="none" height="1304" rx="2.5" ry="2.5" style="stroke:#181818;stroke-width:1;" width="296" x="160" y="120.1094"/><text fill="#000000" font-family="sans-serif" font-size="14" font-weight="700" lengthAdjust="spacing" textLength="280.8887" x="167.5557" y="136.6426">University Academic Management System</text></g><!--entity Login--><g class="entity" data-qualified-name="University Academic Management System.Login" data-source-line="13" id="ent0006"><ellipse cx="307.8894" cy="499.2872" fill="#F1F1F1" rx="68.8894" ry="16.1779" style="stroke:#181818;stroke-width:0.5;"/><text fill="#000000" font-family="sans-serif" font-size="14" lengthAdjust="spacing" textLength="98.0479" x="258.8654" y="504.5919">Log into system</text></g><!--entity PublicSchedule--><g class="entity" data-qualified-name="University Academic Management System.PublicSchedule" data-source-line="14" id="ent0007"><ellipse cx="308.036" cy="572.9166" fill="#F1F1F1" rx="102.036" ry="22.8072" style="stroke:#181818;stroke-width:0.5;"/><text fill="#000000" font-family="sans-serif" font-size="14" lengthAdjust="spacing" textLength="177.4268" x="219.3226" y="578.2213">View public weekly schedule</text></g><!--entity Personal--><g class="entity" data-qualified-name="University Academic Management System.Personal" data-source-line="15" id="ent0008"><ellipse cx="308.185" cy="349.2157" fill="#F1F1F1" rx="108.185" ry="26.1063" style="stroke:#181818;stroke-width:0.5;"/><text fill="#000000" font-family="sans-serif" font-size="14" lengthAdjust="spacing" textLength="160.3232" x="228.0234" y="348.3647">Manage personal settings</text><text fill="#000000" font-family="sans-serif" font-size="14" lengthAdjust="spacing" textLength="101.1787" x="257.5956" y="365.9741">and notifications</text></g><!--entity PersonalSchedule--><g class="entity" data-qualified-name="University Academic Management System.PersonalSchedule" data-source-line="16" id="ent0009"><ellipse cx="307.8494" cy="262.2003" fill="#F1F1F1" rx="97.8494" ry="25.5909" style="stroke:#181818;stroke-width:0.5;"/><text fill="#000000" font-family="sans-serif" font-size="14" lengthAdjust="spacing" textLength="147.8682" x="233.9153" y="262.1584">View personal schedule</text><text fill="#000000" font-family="sans-serif" font-size="14" lengthAdjust="spacing" textLength="68.4824" x="273.6082" y="279.7677">and history</text></g><!--entity GroupView--><g class="entity" data-qualified-name="University Academic Management System.GroupView" data-source-line="18" id="ent0010"><ellipse cx="307.7567" cy="178.8607" fill="#F1F1F1" rx="99.2567" ry="22.2513" style="stroke:#181818;stroke-width:0.5;"/><text fill="#000000" font-family="sans-serif" font-size="14" lengthAdjust="spacing" textLength="171.1992" x="222.1571" y="184.1654">View group and classmates</text></g><!--entity TeacherMeetings--><g class="entity" data-qualified-name="University Academic Management System.TeacherMeetings" data-source-line="19" id="ent0011"><ellipse cx="308.2361" cy="655.2566" fill="#F1F1F1" rx="106.2361" ry="23.6472" style="stroke:#181818;stroke-width:0.5;"/><text fill="#000000" font-family="sans-serif" font-size="14" lengthAdjust="spacing" textLength="186.7578" x="214.8571" y="660.5613">View assigned class meetings</text></g><!--entity CreateMeeting--><g class="entity" data-qualified-name="University Academic Management System.CreateMeeting" data-source-line="20" id="ent0012"><ellipse cx="308.1285" cy="428.9351" fill="#F1F1F1" rx="82.1285" ry="18.8257" style="stroke:#181818;stroke-width:0.5;"/><text fill="#000000" font-family="sans-serif" font-size="14" lengthAdjust="spacing" textLength="131.5029" x="242.377" y="434.2398">Create class meeting</text></g><!--entity MarkAttendance--><g class="entity" data-qualified-name="University Academic Management System.MarkAttendance" data-source-line="21" id="ent0013"><ellipse cx="308.2404" cy="822.2575" fill="#F1F1F1" rx="71.2404" ry="16.6481" style="stroke:#181818;stroke-width:0.5;"/><text fill="#000000" font-family="sans-serif" font-size="14" lengthAdjust="spacing" textLength="104.2822" x="256.0993" y="827.5622">Mark attendance</text></g><!--entity ManageMeetings--><g class="entity" data-qualified-name="University Academic Management System.ManageMeetings" data-source-line="23" id="ent0014"><ellipse cx="307.7877" cy="973.1033" fill="#F1F1F1" rx="105.2877" ry="27.4939" style="stroke:#181818;stroke-width:0.5;"/><text fill="#000000" font-family="sans-serif" font-size="14" lengthAdjust="spacing" textLength="147.0752" x="234.2501" y="970.1873">Manage class meetings</text><text fill="#000000" font-family="sans-serif" font-size="14" lengthAdjust="spacing" textLength="136.9717" x="239.3019" y="987.7967">and weekly schedules</text></g><!--entity ManageRooms--><g class="entity" data-qualified-name="University Academic Management System.ManageRooms" data-source-line="24" id="ent0015"><ellipse cx="307.9407" cy="1139.1975" fill="#F1F1F1" rx="103.4407" ry="23.0881" style="stroke:#181818;stroke-width:0.5;"/><text fill="#000000" font-family="sans-serif" font-size="14" lengthAdjust="spacing" textLength="180.5576" x="217.6619" y="1144.5022">Manage rooms and bookings</text></g><!--entity GenerateReport--><g class="entity" data-qualified-name="University Academic Management System.GenerateReport" data-source-line="25" id="ent0016"><ellipse cx="308.1156" cy="1057.9325" fill="#F1F1F1" rx="99.6156" ry="22.3231" style="stroke:#181818;stroke-width:0.5;"/><text fill="#000000" font-family="sans-serif" font-size="14" lengthAdjust="spacing" textLength="172.0059" x="222.1126" y="1063.2372">Generate attendance report</text></g><!--entity ExportReport--><g class="entity" data-qualified-name="University Academic Management System.ExportReport" data-source-line="26" id="ent0017"><ellipse cx="308.238" cy="1218.357" fill="#F1F1F1" rx="91.738" ry="20.7476" style="stroke:#181818;stroke-width:0.5;"/><text fill="#000000" font-family="sans-serif" font-size="14" lengthAdjust="spacing" textLength="154.0957" x="231.1902" y="1223.6617">Export attendance report</text></g><!--entity ManageNotifications--><g class="entity" data-qualified-name="University Academic Management System.ManageNotifications" data-source-line="27" id="ent0018"><ellipse cx="307.8495" cy="892.1793" fill="#F1F1F1" rx="80.8495" ry="18.5699" style="stroke:#181818;stroke-width:0.5;"/><text fill="#000000" font-family="sans-serif" font-size="14" lengthAdjust="spacing" textLength="128.4131" x="243.6429" y="897.484">Manage notifications</text></g><!--entity AssociationView--><g class="entity" data-qualified-name="University Academic Management System.AssociationView" data-source-line="28" id="ent0019"><ellipse cx="308.1239" cy="742.1342" fill="#F1F1F1" rx="128.1239" ry="28.0248" style="stroke:#181818;stroke-width:0.5;"/><text fill="#000000" font-family="sans-serif" font-size="14" lengthAdjust="spacing" textLength="234.2471" x="191.0003" y="747.4388">Open GroupStudentsAssociationView</text></g><!--entity SchedulerTasks--><g class="entity" data-qualified-name="University Academic Management System.SchedulerTasks" data-source-line="30" id="ent0020"><ellipse cx="308.2285" cy="1381.2939" fill="#F1F1F1" rx="84.2285" ry="27.1845" style="stroke:#181818;stroke-width:0.5;"/><text fill="#000000" font-family="sans-serif" font-size="14" lengthAdjust="spacing" textLength="118.2891" x="249.0839" y="1378.8261">Process scheduled</text><text fill="#000000" font-family="sans-serif" font-size="14" lengthAdjust="spacing" textLength="103.4961" x="256.4804" y="1396.4355">notification tasks</text></g><!--entity AutoNotifications--><g class="entity" data-qualified-name="University Academic Management System.AutoNotifications" data-source-line="31" id="ent0021"><ellipse cx="307.9964" cy="1296.2086" fill="#F1F1F1" rx="100.9964" ry="22.5993" style="stroke:#181818;stroke-width:0.5;"/><text fill="#000000" font-family="sans-serif" font-size="14" lengthAdjust="spacing" textLength="175.1025" x="220.4451" y="1301.5133">Send automatic notifications</text></g><!--entity Student--><g class="entity" data-qualified-name="Student" data-source-line="7" id="ent0001"><ellipse cx="61" cy="326.1094" fill="#F1F1F1" rx="16" ry="16" style="stroke:#181818;stroke-width:0.5;"/><path d="M61,346.1094 C65,346.1094 68,346.1094 72,342.1094 C80,342.1094 88,350.1094 88,358.1094 L88,362.1094 C88,366.1094 84,370.1094 80,370.1094 L42,370.1094 C38,370.1094 34,366.1094 34,362.1094 L34,358.1094 C34,350.1094 42,342.1094 50,342.1094 C54,346.1094 57,346.1094 61,346.1094" fill="#F1F1F1" style="stroke:#181818;stroke-width:0.5;"/><text fill="#000000" font-family="sans-serif" font-size="14" lengthAdjust="spacing" textLength="48.2617" x="36.8691" y="385.1426">Student</text></g><!--entity Teacher--><g class="entity" data-qualified-name="Teacher" data-source-line="8" id="ent0002"><ellipse cx="61" cy="550.1094" fill="#F1F1F1" rx="16" ry="16" style="stroke:#181818;stroke-width:0.5;"/><path d="M61,570.1094 C65,570.1094 68,570.1094 72,566.1094 C80,566.1094 88,574.1094 88,582.1094 L88,586.1094 C88,590.1094 84,594.1094 80,594.1094 L42,594.1094 C38,594.1094 34,590.1094 34,586.1094 L34,582.1094 C34,574.1094 42,566.1094 50,566.1094 C54,570.1094 57,570.1094 61,570.1094" fill="#F1F1F1" style="stroke:#181818;stroke-width:0.5;"/><text fill="#000000" font-family="sans-serif" font-size="14" lengthAdjust="spacing" textLength="51.3584" x="35.3208" y="609.1426">Teacher</text></g><!--entity Administrator--><g class="entity" data-qualified-name="Administrator" data-source-line="9" id="ent0003"><ellipse cx="61.2344" cy="834.1094" fill="#F1F1F1" rx="16" ry="16" style="stroke:#181818;stroke-width:0.5;"/><path d="M61.2344,854.1094 C65.2344,854.1094 68.2344,854.1094 72.2344,850.1094 C80.2344,850.1094 88.2344,858.1094 88.2344,866.1094 L88.2344,870.1094 C88.2344,874.1094 84.2344,878.1094 80.2344,878.1094 L42.2344,878.1094 C38.2344,878.1094 34.2344,874.1094 34.2344,870.1094 L34.2344,866.1094 C34.2344,858.1094 42.2344,850.1094 50.2344,850.1094 C54.2344,854.1094 57.2344,854.1094 61.2344,854.1094" fill="#F1F1F1" style="stroke:#181818;stroke-width:0.5;"/><text fill="#000000" font-family="sans-serif" font-size="14" lengthAdjust="spacing" textLength="82.4688" x="20" y="893.1426">Administrator</text></g><!--entity SystemScheduler--><g class="entity" data-qualified-name="SystemScheduler" data-source-line="10" id="ent0004"><ellipse cx="60.8584" cy="1315.1094" fill="#F1F1F1" rx="16" ry="16" style="stroke:#181818;stroke-width:0.5;"/><path d="M60.8584,1335.1094 C64.8584,1335.1094 67.8584,1335.1094 71.8584,1331.1094 C79.8584,1331.1094 87.8584,1339.1094 87.8584,1347.1094 L87.8584,1351.1094 C87.8584,1355.1094 83.8584,1359.1094 79.8584,1359.1094 L41.8584,1359.1094 C37.8584,1359.1094 33.8584,1355.1094 33.8584,1351.1094 L33.8584,1347.1094 C33.8584,1339.1094 41.8584,1331.1094 49.8584,1331.1094 C53.8584,1335.1094 56.8584,1335.1094 60.8584,1335.1094" fill="#F1F1F1" style="stroke:#181818;stroke-width:0.5;"/><text fill="#000000" font-family="sans-serif" font-size="14" lengthAdjust="spacing" textLength="109.7168" x="6" y="1374.1426">SystemScheduler</text></g><g class="entity" data-qualified-name="GMN49" data-source-line="67" id="ent0050"><path d="M500,712.6094 L500,738.1094 L436.16,742.1094 L500,746.1094 L500,771.6641 A0,0 0 0 0 500,771.6641 L815.144,771.6641 A0,0 0 0 0 815.144,771.6641 L815.144,722.6094 L805.144,712.6094 L500,712.6094 A0,0 0 0 0 500,712.6094" fill="#FEFFDD" style="stroke:#181818;stroke-width:0.5;"/><path d="M805.144,712.6094 L805.144,722.6094 L815.144,722.6094 L805.144,712.6094" fill="#FEFFDD" style="stroke:#181818;stroke-width:0.5;"/><text fill="#000000" font-family="sans-serif" font-size="13" lengthAdjust="spacing" textLength="91.0317" x="506" y="731.1045">UAMS group view:</text><text fill="#000000" font-family="sans-serif" font-size="13" lengthAdjust="spacing" textLength="294.144" x="506" y="747.4561">ListView&lt;StudentGroup&gt; and TableView&lt;Student&gt;</text><text fill="#000000" font-family="sans-serif" font-size="13" lengthAdjust="spacing" textLength="200.9033" x="506" y="763.8076">using StudentGroup.getStudents().</text></g><g class="entity" data-qualified-name="GMN52" data-source-line="73" id="ent0053"><path d="M189.5,44.6094 L189.5,103.6641 L426.5425,103.6641 L426.5425,54.6094 L416.5425,44.6094 L189.5,44.6094" fill="#FEFFDD" style="stroke:#181818;stroke-width:0.5;"/><path d="M416.5425,44.6094 L416.5425,54.6094 L426.5425,54.6094 L416.5425,44.6094" fill="#FEFFDD" style="stroke:#181818;stroke-width:1;"/><text fill="#000000" font-family="sans-serif" font-size="13" lengthAdjust="spacing" textLength="156.8062" x="195.5" y="63.1045">Teacher must be assigned.</text><text fill="#000000" font-family="sans-serif" font-size="13" lengthAdjust="spacing" textLength="179.937" x="195.5" y="79.4561">Meeting must not be cancelled.</text><text fill="#000000" font-family="sans-serif" font-size="13" lengthAdjust="spacing" textLength="216.0425" x="195.5" y="95.8076">Meeting start time must have passed.</text></g><!--link Student to Login--><g class="link" data-entity-1="ent0001" data-entity-2="ent0006" data-link-type="dependency" data-source-line="34" id="lnk22"><path d="M52,388.6594 C52,430.6794 52,491.1094 52,491.1094 C52,491.1094 167.31,491.1094 242.98,491.1094" fill="none" id="Student-to-Login" style="stroke:#181818;stroke-width:1;"/><polygon fill="#181818" points="247.98,491.1094,238.98,487.1094,242.98,491.1094,238.98,495.1094,247.98,491.1094" style="stroke:#181818;stroke-width:1;stroke-linejoin:miter;stroke-miterlimit:10;"/></g><!--link Student to PublicSchedule--><g class="link" data-entity-1="ent0001" data-entity-2="ent0007" data-link-type="dependency" data-source-line="35" id="lnk23"><path d="M88.7,381.8594 C134.25,381.8594 220,381.8594 220,381.8594 C220,381.8594 220,514.9094 220,556.4294" fill="none" id="Student-to-PublicSchedule" style="stroke:#181818;stroke-width:1;"/><polygon fill="#181818" points="220,561.4294,224,552.4294,220,556.4294,216,552.4294,220,561.4294" style="stroke:#181818;stroke-width:1;stroke-linejoin:miter;stroke-miterlimit:10;"/></g><!--link Student to Personal--><g class="link" data-entity-1="ent0001" data-entity-2="ent0008" data-link-type="dependency" data-source-line="36" id="lnk24"><path d="M88.85,340.4394 C117.37,340.4394 158.41,340.4394 200.95,340.4394" fill="none" id="Student-to-Personal" style="stroke:#181818;stroke-width:1;"/><polygon fill="#181818" points="205.95,340.4394,196.95,336.4394,200.95,340.4394,196.95,344.4394,205.95,340.4394" style="stroke:#181818;stroke-width:1;stroke-linejoin:miter;stroke-miterlimit:10;"/></g><!--link Student to PersonalSchedule--><g class="link" data-entity-1="ent0001" data-entity-2="ent0009" data-link-type="dependency" data-source-line="37" id="lnk25"><path d="M71,309.4294 C71,286.4794 71,262.1094 71,262.1094 C71,262.1094 139.69,262.1094 204.89,262.1094" fill="none" id="Student-to-PersonalSchedule" style="stroke:#181818;stroke-width:1;"/><polygon fill="#181818" points="209.89,262.1094,200.89,258.1094,204.89,262.1094,200.89,266.1094,209.89,262.1094" style="stroke:#181818;stroke-width:1;stroke-linejoin:miter;stroke-miterlimit:10;"/></g><!--link Student to GroupView--><g class="link" data-entity-1="ent0001" data-entity-2="ent0010" data-link-type="dependency" data-source-line="38" id="lnk26"><path d="M52,309.2494 C52,259.0094 52,179.1094 52,179.1094 C52,179.1094 131.41,179.1094 203.29,179.1094" fill="none" id="Student-to-GroupView" style="stroke:#181818;stroke-width:1;"/><polygon fill="#181818" points="208.29,179.1094,199.29,175.1094,203.29,179.1094,199.29,183.1094,208.29,179.1094" style="stroke:#181818;stroke-width:1;stroke-linejoin:miter;stroke-miterlimit:10;"/></g><!--link Teacher to Login--><g class="link" data-entity-1="ent0002" data-entity-2="ent0006" data-link-type="dependency" data-source-line="40" id="lnk27"><path d="M71,533.5094 C71,515.9194 71,499.1094 71,499.1094 C71,499.1094 163.86,499.1094 233.81,499.1094" fill="none" id="Teacher-to-Login" style="stroke:#181818;stroke-width:1;"/><polygon fill="#181818" points="238.81,499.1094,229.81,495.1094,233.81,499.1094,229.81,503.1094,238.81,499.1094" style="stroke:#181818;stroke-width:1;stroke-linejoin:miter;stroke-miterlimit:10;"/></g><!--link Teacher to PublicSchedule--><g class="link" data-entity-1="ent0002" data-entity-2="ent0007" data-link-type="dependency" data-source-line="41" id="lnk28"><path d="M88.85,565.4394 C118.63,565.4394 162.52,565.4394 206.57,565.4394" fill="none" id="Teacher-to-PublicSchedule" style="stroke:#181818;stroke-width:1;"/><polygon fill="#181818" points="211.57,565.4394,202.57,561.4394,206.57,565.4394,202.57,569.4394,211.57,565.4394" style="stroke:#181818;stroke-width:1;stroke-linejoin:miter;stroke-miterlimit:10;"/></g><!--link Teacher to Personal--><g class="link" data-entity-1="ent0002" data-entity-2="ent0008" data-link-type="dependency" data-source-line="42" id="lnk29"><path d="M88.53,539.1094 C132.33,539.1094 213,539.1094 213,539.1094 C213,539.1094 213,408.8494 213,366.5794" fill="none" id="Teacher-to-Personal" style="stroke:#181818;stroke-width:1;"/><polygon fill="#181818" points="213,361.5794,209,370.5794,213,366.5794,217,370.5794,213,361.5794" style="stroke:#181818;stroke-width:1;stroke-linejoin:miter;stroke-miterlimit:10;"/></g><!--link Teacher to TeacherMeetings--><g class="link" data-entity-1="ent0002" data-entity-2="ent0011" data-link-type="dependency" data-source-line="43" id="lnk30"><path d="M71,612.6694 C71,633.6394 71,655.1094 71,655.1094 C71,655.1094 133.87,655.1094 196.98,655.1094" fill="none" id="Teacher-to-TeacherMeetings" style="stroke:#181818;stroke-width:1;"/><polygon fill="#181818" points="201.98,655.1094,192.98,651.1094,196.98,655.1094,192.98,659.1094,201.98,655.1094" style="stroke:#181818;stroke-width:1;stroke-linejoin:miter;stroke-miterlimit:10;"/></g><!--link Teacher to CreateMeeting--><g class="link" data-entity-1="ent0002" data-entity-2="ent0012" data-link-type="dependency" data-source-line="44" id="lnk31"><path d="M88.63,544.6094 C137.26,544.6094 233,544.6094 233,544.6094 C233,544.6094 233,468.1394 233,442.0494" fill="none" id="Teacher-to-CreateMeeting" style="stroke:#181818;stroke-width:1;"/><polygon fill="#181818" points="233,437.0494,229,446.0494,233,442.0494,237,446.0494,233,437.0494" style="stroke:#181818;stroke-width:1;stroke-linejoin:miter;stroke-miterlimit:10;"/></g><!--link Teacher to MarkAttendance--><g class="link" data-entity-1="ent0002" data-entity-2="ent0013" data-link-type="dependency" data-source-line="45" id="lnk32"><path d="M52,612.8194 C52,681.1294 52,813.6094 52,813.6094 C52,813.6094 166.29,813.6094 242.01,813.6094" fill="none" id="Teacher-to-MarkAttendance" style="stroke:#181818;stroke-width:1;"/><polygon fill="#181818" points="247.01,813.6094,238.01,809.6094,242.01,813.6094,238.01,817.6094,247.01,813.6094" style="stroke:#181818;stroke-width:1;stroke-linejoin:miter;stroke-miterlimit:10;"/></g><!--link Teacher to AssociationView--><g class="link" data-entity-1="ent0002" data-entity-2="ent0019" data-link-type="dependency" data-source-line="46" id="lnk33"><path d="M88.52,604.3594 C125.05,604.3594 185,604.3594 185,604.3594 C185,604.3594 185,700.1694 185,729.3094" fill="none" id="Teacher-to-AssociationView" style="stroke:#181818;stroke-width:1;"/><polygon fill="#181818" points="185,734.3094,189,725.3094,185,729.3094,181,725.3094,185,734.3094" style="stroke:#181818;stroke-width:1;stroke-linejoin:miter;stroke-miterlimit:10;"/></g><!--link Administrator to Login--><g class="link" data-entity-1="ent0003" data-entity-2="ent0006" data-link-type="dependency" data-source-line="48" id="lnk34"><path d="M96,817.2994 C96,725.5694 96,507.1094 96,507.1094 C96,507.1094 180.41,507.1094 243.1,507.1094" fill="none" id="Administrator-to-Login" style="stroke:#181818;stroke-width:1;"/><polygon fill="#181818" points="248.1,507.1094,239.1,503.1094,243.1,507.1094,239.1,511.1094,248.1,507.1094" style="stroke:#181818;stroke-width:1;stroke-linejoin:miter;stroke-miterlimit:10;"/></g><!--link Administrator to PublicSchedule--><g class="link" data-entity-1="ent0003" data-entity-2="ent0007" data-link-type="dependency" data-source-line="49" id="lnk35"><path d="M99,817.5194 C99,741.1094 99,580.7794 99,580.7794 C99,580.7794 151.91,580.7794 206.76,580.7794" fill="none" id="Administrator-to-PublicSchedule" style="stroke:#181818;stroke-width:1;"/><polygon fill="#181818" points="211.76,580.7794,202.76,576.7794,206.76,580.7794,202.76,584.7794,211.76,580.7794" style="stroke:#181818;stroke-width:1;stroke-linejoin:miter;stroke-miterlimit:10;"/></g><!--link Administrator to Personal--><g class="link" data-entity-1="ent0003" data-entity-2="ent0008" data-link-type="dependency" data-source-line="50" id="lnk36"><path d="M92,817.5094 C92,699.4094 92,357.7794 92,357.7794 C92,357.7794 145.08,357.7794 201.01,357.7794" fill="none" id="Administrator-to-Personal" style="stroke:#181818;stroke-width:1;"/><polygon fill="#181818" points="206.01,357.7794,197.01,353.7794,201.01,357.7794,197.01,361.7794,206.01,357.7794" style="stroke:#181818;stroke-width:1;stroke-linejoin:miter;stroke-miterlimit:10;"/></g><!--link Administrator to ManageMeetings--><g class="link" data-entity-1="ent0003" data-entity-2="ent0014" data-link-type="dependency" data-source-line="51" id="lnk37"><path d="M102.27,888.9394 C147.89,888.9394 215,888.9394 215,888.9394 C215,888.9394 215,931.2894 215,954.9594" fill="none" id="Administrator-to-ManageMeetings" style="stroke:#181818;stroke-width:1;"/><polygon fill="#181818" points="215,959.9594,219,950.9594,215,954.9594,211,950.9594,215,959.9594" style="stroke:#181818;stroke-width:1;stroke-linejoin:miter;stroke-miterlimit:10;"/></g><!--link Administrator to ManageRooms--><g class="link" data-entity-1="ent0003" data-entity-2="ent0015" data-link-type="dependency" data-source-line="52" id="lnk38"><path d="M61,896.7794 C61,976.1094 61,1146.7794 61,1146.7794 C61,1146.7794 136.34,1146.7794 205.38,1146.7794" fill="none" id="Administrator-to-ManageRooms" style="stroke:#181818;stroke-width:1;"/><polygon fill="#181818" points="210.38,1146.7794,201.38,1142.7794,205.38,1146.7794,201.38,1150.7794,210.38,1146.7794" style="stroke:#181818;stroke-width:1;stroke-linejoin:miter;stroke-miterlimit:10;"/></g><!--link Administrator to GenerateReport--><g class="link" data-entity-1="ent0003" data-entity-2="ent0016" data-link-type="dependency" data-source-line="53" id="lnk39"><path d="M82,896.7294 C82,953.3494 82,1050.6094 82,1050.6094 C82,1050.6094 147.03,1050.6094 209.12,1050.6094" fill="none" id="Administrator-to-GenerateReport" style="stroke:#181818;stroke-width:1;"/><polygon fill="#181818" points="214.12,1050.6094,205.12,1046.6094,209.12,1050.6094,205.12,1054.6094,214.12,1050.6094" style="stroke:#181818;stroke-width:1;stroke-linejoin:miter;stroke-miterlimit:10;"/></g><!--link Administrator to ExportReport--><g class="link" data-entity-1="ent0003" data-entity-2="ent0017" data-link-type="dependency" data-source-line="54" id="lnk40"><path d="M41,896.8194 C41,991.9394 41,1224.9394 41,1224.9394 C41,1224.9394 138.67,1224.9394 216.68,1224.9394" fill="none" id="Administrator-to-ExportReport" style="stroke:#181818;stroke-width:1;"/><polygon fill="#181818" points="221.68,1224.9394,212.68,1220.9394,216.68,1224.9394,212.68,1228.9394,221.68,1224.9394" style="stroke:#181818;stroke-width:1;stroke-linejoin:miter;stroke-miterlimit:10;"/></g><!--link Administrator to ManageNotifications--><g class="link" data-entity-1="ent0003" data-entity-2="ent0018" data-link-type="dependency" data-source-line="55" id="lnk41"><path d="M102.06,881.2794 C140.2,881.2794 192.64,881.2794 237.17,881.2794" fill="none" id="Administrator-to-ManageNotifications" style="stroke:#181818;stroke-width:1;"/><polygon fill="#181818" points="242.17,881.2794,233.17,877.2794,237.17,881.2794,233.17,885.2794,242.17,881.2794" style="stroke:#181818;stroke-width:1;stroke-linejoin:miter;stroke-miterlimit:10;"/></g><!--link Administrator to MarkAttendance--><g class="link" data-entity-1="ent0003" data-entity-2="ent0013" data-link-type="dependency" data-source-line="56" id="lnk42"><path d="M102.06,831.6094 C142.39,831.6094 199.31,831.6094 244.72,831.6094" fill="none" id="Administrator-to-MarkAttendance" style="stroke:#181818;stroke-width:1;"/><polygon fill="#181818" points="249.72,831.6094,240.72,827.6094,244.72,831.6094,240.72,835.6094,249.72,831.6094" style="stroke:#181818;stroke-width:1;stroke-linejoin:miter;stroke-miterlimit:10;"/></g><!--link Administrator to AssociationView--><g class="link" data-entity-1="ent0003" data-entity-2="ent0019" data-link-type="dependency" data-source-line="57" id="lnk43"><path d="M102.23,824.6094 C139.32,824.6094 188,824.6094 188,824.6094 C188,824.6094 188,778.7494 188,756.8994" fill="none" id="Administrator-to-AssociationView" style="stroke:#181818;stroke-width:1;"/><polygon fill="#181818" points="188,751.8994,184,760.8994,188,756.8994,192,760.8994,188,751.8994" style="stroke:#181818;stroke-width:1;stroke-linejoin:miter;stroke-miterlimit:10;"/></g><!--link SystemScheduler to SchedulerTasks--><g class="link" data-entity-1="ent0004" data-entity-2="ent0020" data-link-type="dependency" data-source-line="59" id="lnk44"><path d="M116.12,1365.8594 C152.24,1365.8594 194.74,1365.8594 233.45,1365.8594" fill="none" id="SystemScheduler-to-SchedulerTasks" style="stroke:#181818;stroke-width:1;"/><polygon fill="#181818" points="238.45,1365.8594,229.45,1361.8594,233.45,1365.8594,229.45,1369.8594,238.45,1365.8594" style="stroke:#181818;stroke-width:1;stroke-linejoin:miter;stroke-miterlimit:10;"/></g><!--link SystemScheduler to AutoNotifications--><g class="link" data-entity-1="ent0004" data-entity-2="ent0021" data-link-type="dependency" data-source-line="60" id="lnk45"><path d="M116.12,1308.6094 C147.83,1308.6094 183.32,1308.6094 218.92,1308.6094" fill="none" id="SystemScheduler-to-AutoNotifications" style="stroke:#181818;stroke-width:1;"/><polygon fill="#181818" points="223.92,1308.6094,214.92,1304.6094,218.92,1308.6094,214.92,1312.6094,223.92,1308.6094" style="stroke:#181818;stroke-width:1;stroke-linejoin:miter;stroke-miterlimit:10;"/></g><!--link CreateMeeting to ManageRooms--><g class="link" data-entity-1="ent0012" data-entity-2="ent0015" data-link-type="dependency" data-source-line="62" id="lnk46"><path d="M225.66,429.1094 C191.2,429.1094 159,429.1094 159,429.1094 C159,429.1094 159,1131.4394 159,1131.4394 C159,1131.4394 177.19,1131.4394 205.28,1131.4394" fill="none" id="CreateMeeting-to-ManageRooms" style="stroke:#181818;stroke-width:1;stroke-dasharray:7,7;"/><polygon fill="#181818" points="210.28,1131.4394,201.28,1127.4394,205.28,1131.4394,201.28,1135.4394,210.28,1131.4394" style="stroke:#181818;stroke-width:1;stroke-linejoin:miter;stroke-miterlimit:10;"/><text fill="#000000" font-family="sans-serif" font-size="13" lengthAdjust="spacing" textLength="55.6563" x="83.7732" y="787.0845">&#171;include&#187;</text><text fill="#000000" font-family="sans-serif" font-size="13" lengthAdjust="spacing" textLength="93.2026" x="65" y="803.4361">room availability</text></g><!--link ExportReport to GenerateReport--><g class="link" data-entity-1="ent0017" data-entity-2="ent0016" data-link-type="dependency" data-source-line="63" id="lnk47"><path d="M221.49,1211.2794 C206.17,1211.2794 195,1211.2794 195,1211.2794 C195,1211.2794 195,1065.6094 195,1065.6094 C195,1065.6094 197.74,1065.6094 209.17,1065.6094" fill="none" id="ExportReport-to-GenerateReport" style="stroke:#181818;stroke-width:1;stroke-dasharray:7,7;"/><polygon fill="#181818" points="214.17,1065.6094,205.17,1061.6094,209.17,1065.6094,205.17,1069.6094,214.17,1065.6094" style="stroke:#181818;stroke-width:1;stroke-linejoin:miter;stroke-miterlimit:10;"/><text fill="#000000" font-family="sans-serif" font-size="13" lengthAdjust="spacing" textLength="53.4917" x="141" y="1156.6045">&#171;extend&#187;</text></g><!--link AutoNotifications to SchedulerTasks--><g class="link" data-entity-1="ent0021" data-entity-2="ent0020" data-link-type="dependency" data-source-line="64" id="lnk48"><path d="M308,1318.8894 C308,1329.7094 308,1337.7194 308,1349.0394" fill="none" id="AutoNotifications-to-SchedulerTasks" style="stroke:#181818;stroke-width:1;stroke-dasharray:7,7;"/><polygon fill="#181818" points="308,1354.0394,312,1345.0394,308,1349.0394,304,1345.0394,308,1354.0394" style="stroke:#181818;stroke-width:1;stroke-linejoin:miter;stroke-miterlimit:10;"/><text fill="#000000" font-family="sans-serif" font-size="13" lengthAdjust="spacing" textLength="55.6563" x="252" y="1332.9545">&#171;include&#187;</text></g><!--link MarkAttendance to GMN52--><g class="link" data-entity-1="ent0013" data-entity-2="ent0053" data-link-type="association" data-source-line="73" id="lnk54"><path d="M261.55,809.6094 C211.21,809.6094 138,809.6094 138,809.6094 C138,809.6094 138,74.1094 138,74.1094 C138,74.1094 160.68,74.1094 189.47,74.1094" fill="none" id="MarkAttendance-GMN52" style="stroke:#181818;stroke-width:1;stroke-dasharray:7,7;"/></g><?plantuml-src ZLLDJzmm4BtxLumujGVsK752ADAA8bG9MiH2JroyoP2rDh4Zsm5MLVzxnnzPx3WhzH8fyzwRBy_OLjWEuLcADzH6s0EiQzvWBsguvvAtsAEqi3aOYpsSmxD1kERq-IvugtdFM8Ul5gm2BTgTXKPehArGafcza0Cd2l3QAhsn1mh3tz6e7XEm4nBjOK1GskuKOvuC6pis53V-FI6lTwZZtxhfXHJ6Qav_4z_djo5MCtR4P2uBBbiAUVPVfPt17mOm6gnTSMTtgWKXgIeJKMw0R4AcfDy2ts4OjnqvV4VSTmSmCGClUF3Gb5Ig3E5XeBIKv1qOj5R8rhn8BXkGoefNKNFNHXCyHM8P_UWXHWaUTjGUfG-PzfX7uQJLQXp0wUgE6zDpYo7ihGCSfP0GJRGIem9wH9-_LyNJke-sL7kjaPpd8gy9G9JadT9xuDQYRBYiGr-TRNqqiON6vbc5dinEo4HNZh-KQlIabUgDxyrMgVsnne0-EZ0LtQ94xIhyp1Wq3ZJQePyHVlIcL7ZpuImdP04iHJ75Sbm2y3ErfxfV0yfmjd7DpDeOLGlFTCVhdSniMPiVjAgHEZmritcHQHPWkTc7L8uh-UHCgOyDLGfyj8hcZHQeh69DM5x3NyPYnd1-NiM5J2spZSkWQOMMZ8kAp-bdSQIJgAbb5ZM3fgYfSRuWAPOlGehCfZw5YgFAhiWawz8-ots1C5LGGhFbEKK8MrAYisqe2TdSd_AUJyWIAsjRIIYQDtjBF6asnakKSbnPTfYmoXe2bt1r9MJTqS1LrOjq5mtmDouwlXKTFLOiBT-9ytvvFNwumggA5S6T84yw3yWOBHp6Hrkz5bsuNs_WOlLjTG6tppyksHsrpDclueButQZylVZ4jnscMCL6u-fDgQiMxNJPVFcwOXYUEOnfR9MbUy3bSMBA-z5OsEBntLcngQiU8ISEhPscwrBOM4wzigB7mDpnDtftoOqZ7RFu1m00?></g></svg>